NotoSansGurmukhi-Condensed.ufo
<glyph name="exclam.guru" format="2">
  <advance width="337"/>
  <unicode hex="0021"/>
  <outline>
    <contour>
      <point x="152" y="201" type="line"/>
      <point x="209" y="201" type="line"/>
      <point x="231" y="714" type="line"/>
      <point x="131" y="714" type="line"/>
    </contour>
    <contour>
      <point x="127" y="54" type="curve" smooth="yes"/>
      <point x="127" y="12"/>
      <point x="146" y="-10"/>
      <point x="181" y="-10" type="curve" smooth="yes"/>
      <point x="212" y="-10"/>
      <point x="235" y="10"/>
      <point x="235" y="54" type="curve" smooth="yes"/>
      <point x="235" y="99"/>
      <point x="214" y="118"/>
      <point x="181" y="118" type="curve" smooth="yes"/>
      <point x="145" y="118"/>
      <point x="127" y="96"/>
    </contour>
  </outline>
</glyph>
<glyph name="quotedbl.guru" format="2">
  <advance width="444"/>
  <unicode hex="0022"/>
  <outline>
    <contour>
      <point x="110" y="471" type="line"/>
      <point x="170" y="471" type="line"/>
      <point x="187" y="729" type="line"/>
      <point x="93" y="729" type="line"/>
    </contour>
    <contour>
      <point x="274" y="471" type="line"/>
      <point x="334" y="471" type="line"/>
      <point x="351" y="729" type="line"/>
      <point x="257" y="729" type="line"/>
    </contour>
  </outline>
</glyph>
<glyph name="numbersign.guru" format="2">
  <advance width="488"/>
  <unicode hex="0023"/>
  <outline>
    <contour>
      <point x="115" y="178" type="line"/>
      <point x="90" y="0" type="line"/>
      <point x="151" y="0" type="line"/>
      <point x="176" y="178" type="line"/>
      <point x="274" y="178" type="line"/>
      <point x="250" y="0" type="line"/>
      <point x="311" y="0" type="line"/>
      <point x="335" y="178" type="line"/>
      <point x="432" y="178" type="line"/>
      <point x="432" y="240" type="line"/>
      <point x="344" y="240" type="line"/>
      <point x="364" y="396" type="line"/>
      <point x="457" y="396" type="line"/>
      <point x="457" y="457" type="line"/>
      <point x="374" y="457" type="line"/>
      <point x="398" y="632" type="line"/>
      <point x="337" y="632" type="line"/>
      <point x="313" y="457" type="line"/>
      <point x="214" y="457" type="line"/>
      <point x="238" y="632" type="line"/>
      <point x="177" y="632" type="line"/>
      <point x="154" y="457" type="line"/>
      <point x="56" y="457" type="line"/>
      <point x="56" y="396" type="line"/>
      <point x="144" y="396" type="line"/>
      <point x="124" y="240" type="line"/>
      <point x="31" y="240" type="line"/>
      <point x="31" y="178" type="line"/>
    </contour>
    <contour>
      <point x="284" y="239" type="line"/>
      <point x="183" y="239" type="line"/>
      <point x="203" y="397" type="line"/>
      <point x="305" y="397" type="line"/>
    </contour>
  </outline>
</glyph>
<glyph name="percent.guru" format="2">
  <advance width="641"/>
  <unicode hex="0025"/>
  <outline>
    <contour>
      <point x="426" y="622" type="line"/>
      <point x="149" y="0" type="line"/>
      <point x="216" y="0" type="line"/>
      <point x="493" y="622" type="line"/>
    </contour>
    <contour>
      <point x="160" y="270" type="curve" smooth="yes"/>
      <point x="238" y="270"/>
      <point x="272" y="337"/>
      <point x="272" y="452" type="curve" smooth="yes"/>
      <point x="272" y="566"/>
      <point x="234" y="632"/>
      <point x="160" y="632" type="curve" smooth="yes"/>
      <point x="83" y="632"/>
      <point x="49" y="566"/>
      <point x="49" y="452" type="curve" smooth="yes"/>
      <point x="49" y="337"/>
      <point x="88" y="270"/>
    </contour>
    <contour>
      <point x="160" y="331" type="curve" smooth="yes"/>
      <point x="129" y="331"/>
      <point x="115" y="371"/>
      <point x="115" y="451" type="curve" smooth="yes"/>
      <point x="115" y="531"/>
      <point x="129" y="571"/>
      <point x="160" y="571" type="curve" smooth="yes"/>
      <point x="191" y="571"/>
      <point x="206" y="531"/>
      <point x="206" y="451" type="curve" smooth="yes"/>
      <point x="206" y="372"/>
      <point x="191" y="331"/>
    </contour>
    <contour>
      <point x="480" y="-10" type="curve" smooth="yes"/>
      <point x="559" y="-10"/>
      <point x="593" y="59"/>
      <point x="593" y="171" type="curve" smooth="yes"/>
      <point x="593" y="285"/>
      <point x="555" y="352"/>
      <point x="480" y="352" type="curve" smooth="yes"/>
      <point x="403" y="352"/>
      <point x="370" y="285"/>
      <point x="370" y="171" type="curve" smooth="yes"/>
      <point x="370" y="59"/>
      <point x="408" y="-10"/>
    </contour>
    <contour>
      <point x="480" y="51" type="curve" smooth="yes"/>
      <point x="450" y="51"/>
      <point x="436" y="90"/>
      <point x="436" y="170" type="curve" smooth="yes"/>
      <point x="436" y="252"/>
      <point x="450" y="291"/>
      <point x="480" y="291" type="curve" smooth="yes"/>
      <point x="512" y="291"/>
      <point x="527" y="251"/>
      <point x="527" y="170" type="curve" smooth="yes"/>
      <point x="527" y="91"/>
      <point x="512" y="51"/>
    </contour>
  </outline>
</glyph>
<glyph name="quotesingle.guru" format="2">
  <advance width="279"/>
  <unicode hex="0027"/>
  <outline>
    <contour>
      <point x="109" y="471" type="line"/>
      <point x="169" y="471" type="line"/>
      <point x="186" y="729" type="line"/>
      <point x="92" y="729" type="line"/>
    </contour>
  </outline>
</glyph>
<glyph name="asterisk.guru" format="2">
  <advance width="544"/>
  <unicode hex="002A"/>
  <outline>
    <contour>
      <point x="110" y="360" type="line"/>
      <point x="196" y="316" type="line"/>
      <point x="269" y="481" type="line"/>
      <point x="351" y="316" type="line"/>
      <point x="433" y="360" type="line"/>
      <point x="320" y="511" type="line"/>
      <point x="495" y="525" type="line"/>
      <point x="483" y="614" type="line"/>
      <point x="299" y="564" type="line"/>
      <point x="318" y="745" type="line"/>
      <point x="223" y="745" type="line"/>
      <point x="243" y="564" type="line"/>
      <point x="62" y="614" type="line"/>
      <point x="49" y="525" type="line"/>
      <point x="222" y="511" type="line"/>
    </contour>
  </outline>
</glyph>
<glyph name="plus.guru" format="2">
  <advance width="411"/>
  <unicode hex="002B"/>
  <outline>
    <contour>
      <point x="171" y="288" type="line"/>
      <point x="171" y="117" type="line"/>
      <point x="240" y="117" type="line"/>
      <point x="240" y="288" type="line"/>
      <point x="376" y="288" type="line"/>
      <point x="376" y="357" type="line"/>
      <point x="240" y="357" type="line"/>
      <point x="240" y="527" type="line"/>
      <point x="171" y="527" type="line"/>
      <point x="171" y="357" type="line"/>
      <point x="35" y="357" type="line"/>
      <point x="35" y="288" type="line"/>
    </contour>
  </outline>
</glyph>
<glyph name="hyphen.guru" format="2">
  <advance width="278"/>
  <unicode hex="002D"/>
  <outline>
    <contour>
      <point x="40" y="336" type="line"/>
      <point x="40" y="258" type="line"/>
      <point x="239" y="258" type="line"/>
      <point x="239" y="336" type="line"/>
    </contour>
  </outline>
</glyph>
<glyph name="slash.guru" format="2">
  <advance width="399"/>
  <unicode hex="002F"/>
  <outline>
    <contour>
      <point x="286" y="832" type="line"/>
      <point x="37" y="-165" type="line"/>
      <point x="113" y="-165" type="line"/>
      <point x="362" y="832" type="line"/>
    </contour>
  </outline>
</glyph>
<glyph name="one.guru" format="2">
  <advance width="411"/>
  <unicode hex="0031"/>
  <outline>
    <contour>
      <point x="193" y="0" type="line"/>
      <point x="276" y="0" type="line"/>
      <point x="276" y="714" type="line"/>
      <point x="210" y="714" type="line"/>
      <point x="50" y="557" type="line"/>
      <point x="98" y="504" type="line"/>
      <point x="159" y="565" type="line" smooth="yes"/>
      <point x="179" y="585"/>
      <point x="189" y="597"/>
      <point x="196" y="609" type="curve"/>
      <point x="195" y="566"/>
      <point x="193" y="493"/>
      <point x="193" y="437" type="curve" smooth="yes"/>
    </contour>
  </outline>
</glyph>
<glyph name="seven.guru" format="2">
  <advance width="411"/>
  <unicode hex="0037"/>
  <outline>
    <contour>
      <point x="290" y="637" type="line"/>
      <point x="94" y="0" type="line"/>
      <point x="181" y="0" type="line"/>
      <point x="376" y="647" type="line"/>
      <point x="376" y="714" type="line"/>
      <point x="31" y="714" type="line"/>
      <point x="31" y="637" type="line"/>
    </contour>
  </outline>
</glyph>
<glyph name="colon.guru" format="2">
  <advance width="278"/>
  <unicode hex="003A"/>
  <outline>
    <contour>
      <point x="139" y="418" type="curve" smooth="yes"/>
      <point x="170" y="418"/>
      <point x="193" y="439"/>
      <point x="193" y="483" type="curve" smooth="yes"/>
      <point x="193" y="525"/>
      <point x="174" y="547"/>
      <point x="139" y="547" type="curve" smooth="yes"/>
      <point x="103" y="547"/>
      <point x="85" y="525"/>
      <point x="85" y="483" type="curve" smooth="yes"/>
      <point x="85" y="440"/>
      <point x="104" y="418"/>
    </contour>
    <contour>
      <point x="139" y="-14" type="curve" smooth="yes"/>
      <point x="170" y="-14"/>
      <point x="193" y="6"/>
      <point x="193" y="50" type="curve" smooth="yes"/>
      <point x="193" y="95"/>
      <point x="172" y="114"/>
      <point x="139" y="114" type="curve" smooth="yes"/>
      <point x="103" y="114"/>
      <point x="85" y="92"/>
      <point x="85" y="50" type="curve" smooth="yes"/>
      <point x="85" y="8"/>
      <point x="104" y="-14"/>
    </contour>
  </outline>
</glyph>
<glyph name="semicolon.guru" format="2">
  <advance width="278"/>
  <unicode hex="003B"/>
  <outline>
    <contour>
      <point x="192" y="116" type="line"/>
      <point x="107" y="116" type="line"/>
      <point x="99" y="44"/>
      <point x="83" y="-48"/>
      <point x="61" y="-130" type="curve"/>
      <point x="123" y="-130" type="line"/>
      <point x="155" y="-58"/>
      <point x="180" y="21"/>
      <point x="199" y="105" type="curve"/>
    </contour>
    <contour>
      <point x="139" y="418" type="curve" smooth="yes"/>
      <point x="170" y="418"/>
      <point x="193" y="439"/>
      <point x="193" y="483" type="curve" smooth="yes"/>
      <point x="193" y="525"/>
      <point x="174" y="547"/>
      <point x="139" y="547" type="curve" smooth="yes"/>
      <point x="103" y="547"/>
      <point x="85" y="525"/>
      <point x="85" y="483" type="curve" smooth="yes"/>
      <point x="85" y="440"/>
      <point x="104" y="418"/>
    </contour>
  </outline>
</glyph>
<glyph name="less.guru" format="2">
  <advance width="411"/>
  <unicode hex="003C"/>
  <outline>
    <contour>
      <point x="35" y="298" type="line"/>
      <point x="376" y="115" type="line"/>
      <point x="376" y="191" type="line"/>
      <point x="123" y="322" type="line"/>
      <point x="376" y="453" type="line"/>
      <point x="376" y="529" type="line"/>
      <point x="35" y="346" type="line"/>
    </contour>
  </outline>
</glyph>
<glyph name="equal.guru" format="2">
  <advance width="411"/>
  <unicode hex="003D"/>
  <outline>
    <contour>
      <point x="40" y="451" type="line"/>
      <point x="40" y="382" type="line"/>
      <point x="371" y="382" type="line"/>
      <point x="371" y="451" type="line"/>
    </contour>
    <contour>
      <point x="40" y="262" type="line"/>
      <point x="40" y="193" type="line"/>
      <point x="371" y="193" type="line"/>
      <point x="371" y="262" type="line"/>
    </contour>
  </outline>
</glyph>
<glyph name="greater.guru" format="2">
  <advance width="411"/>
  <unicode hex="003E"/>
  <outline>
    <contour>
      <point x="35" y="191" type="line"/>
      <point x="35" y="115" type="line"/>
      <point x="376" y="298" type="line"/>
      <point x="376" y="346" type="line"/>
      <point x="35" y="529" type="line"/>
      <point x="35" y="453" type="line"/>
      <point x="288" y="322" type="line"/>
    </contour>
  </outline>
</glyph>
<glyph name="question.guru" format="2">
  <advance width="422"/>
  <unicode hex="003F"/>
  <outline>
    <contour>
      <point x="154" y="201" type="line"/>
      <point x="219" y="201" type="line"/>
      <point x="219" y="221" type="line" smooth="yes"/>
      <point x="219" y="275"/>
      <point x="234" y="305"/>
      <point x="276" y="364" type="curve" smooth="yes"/>
      <point x="318" y="424"/>
      <point x="353" y="474"/>
      <point x="353" y="557" type="curve" smooth="yes"/>
      <point x="353" y="660"/>
      <point x="294" y="724"/>
      <point x="202" y="724" type="curve" smooth="yes"/>
      <point x="150" y="724"/>
      <point x="103" y="710"/>
      <point x="67" y="692" type="curve"/>
      <point x="98" y="624" type="line"/>
      <point x="127" y="639"/>
      <point x="156" y="650"/>
      <point x="193" y="650" type="curve" smooth="yes"/>
      <point x="244" y="650"/>
      <point x="273" y="616"/>
      <point x="273" y="557" type="curve" smooth="yes"/>
      <point x="273" y="495"/>
      <point x="251" y="456"/>
      <point x="207" y="394" type="curve" smooth="yes"/>
      <point x="169" y="341"/>
      <point x="154" y="301"/>
      <point x="154" y="230" type="curve" smooth="yes"/>
    </contour>
    <contour>
      <point x="134" y="55" type="curve" smooth="yes"/>
      <point x="134" y="13"/>
      <point x="154" y="-9"/>
      <point x="188" y="-9" type="curve" smooth="yes"/>
      <point x="220" y="-9"/>
      <point x="242" y="11"/>
      <point x="242" y="55" type="curve" smooth="yes"/>
      <point x="242" y="100"/>
      <point x="221" y="119"/>
      <point x="188" y="119" type="curve" smooth="yes"/>
      <point x="153" y="119"/>
      <point x="134" y="97"/>
    </contour>
  </outline>
</glyph>
<glyph name="bracketleft.guru" format="2">
  <advance width="311"/>
  <unicode hex="005B"/>
  <outline>
    <contour>
      <point x="90" y="832" type="line"/>
      <point x="90" y="-165" type="line"/>
      <point x="260" y="-165" type="line"/>
      <point x="260" y="-98" type="line"/>
      <point x="167" y="-98" type="line"/>
      <point x="167" y="765" type="line"/>
      <point x="260" y="765" type="line"/>
      <point x="260" y="832" type="line"/>
    </contour>
  </outline>
</glyph>
<glyph name="backslash.guru" format="2">
  <advance width="399"/>
  <unicode hex="005C"/>
  <outline>
    <contour>
      <point x="37" y="832" type="line"/>
      <point x="286" y="-165" type="line"/>
      <point x="362" y="-165" type="line"/>
      <point x="113" y="832" type="line"/>
    </contour>
  </outline>
</glyph>
<glyph name="bracketright.guru" format="2">
  <advance width="311"/>
  <unicode hex="005D"/>
  <outline>
    <contour>
      <point x="51" y="-98" type="line"/>
      <point x="51" y="-165" type="line"/>
      <point x="221" y="-165" type="line"/>
      <point x="221" y="832" type="line"/>
      <point x="51" y="832" type="line"/>
      <point x="51" y="765" type="line"/>
      <point x="142" y="765" type="line"/>
      <point x="142" y="-98" type="line"/>
    </contour>
  </outline>
</glyph>
<glyph name="asciicircum.guru" format="2">
  <advance width="411"/>
  <unicode hex="005E"/>
  <outline>
    <contour>
      <point x="179" y="719" type="line"/>
      <point x="14" y="332" type="line"/>
      <point x="84" y="332" type="line"/>
      <point x="203" y="621" type="line"/>
      <point x="326" y="332" type="line"/>
      <point x="397" y="332" type="line"/>
      <point x="226" y="719" type="line"/>
    </contour>
  </outline>
</glyph>
<glyph name="bar.guru" format="2">
  <advance width="396"/>
  <unicode hex="007C"/>
  <outline>
    <contour>
      <point x="165" y="832" type="line"/>
      <point x="165" y="-165" type="line"/>
      <point x="232" y="-165" type="line"/>
      <point x="232" y="832" type="line"/>
    </contour>
  </outline>
</glyph>
<glyph name="asciitilde.guru" format="2">
  <advance width="411"/>
  <unicode hex="007E"/>
  <outline>
    <contour>
      <point x="35" y="337" type="curve"/>
      <point x="35" y="262" type="line"/>
      <point x="60" y="294"/>
      <point x="90" y="317"/>
      <point x="121" y="317" type="curve" smooth="yes"/>
      <point x="141" y="317"/>
      <point x="157" y="309"/>
      <point x="191" y="290" type="curve" smooth="yes"/>
      <point x="238" y="263"/>
      <point x="256" y="258"/>
      <point x="285" y="258" type="curve" smooth="yes"/>
      <point x="321" y="258"/>
      <point x="348" y="276"/>
      <point x="376" y="307" type="curve"/>
      <point x="376" y="383" type="line"/>
      <point x="348" y="352"/>
      <point x="324" y="327"/>
      <point x="293" y="327" type="curve" smooth="yes"/>
      <point x="268" y="327"/>
      <point x="255" y="334"/>
      <point x="219" y="354" type="curve" smooth="yes"/>
      <point x="173" y="380"/>
      <point x="155" y="386"/>
      <point x="127" y="386" type="curve" smooth="yes"/>
      <point x="92" y="386"/>
      <point x="64" y="369"/>
    </contour>
  </outline>
</glyph>
<glyph name="multiply.guru" format="2">
  <advance width="411"/>
  <unicode hex="00D7"/>
  <outline>
    <contour>
      <point x="204" y="278" type="line"/>
      <point x="335" y="144" type="line"/>
      <point x="382" y="191" type="line"/>
      <point x="249" y="323" type="line"/>
      <point x="382" y="454" type="line"/>
      <point x="335" y="501" type="line"/>
      <point x="204" y="367" type="line"/>
      <point x="73" y="501" type="line"/>
      <point x="26" y="454" type="line"/>
      <point x="159" y="323" type="line"/>
      <point x="26" y="191" type="line"/>
      <point x="73" y="144" type="line"/>
    </contour>
  </outline>
</glyph>
<glyph name="uni0951" format="2">
  <unicode hex="0951"/>
  <outline>
    <contour>
      <point x="-135" y="671" type="line"/>
      <point x="-68" y="671" type="line"/>
      <point x="-68" y="892" type="line"/>
      <point x="-135" y="892" type="line"/>
    </contour>
  </outline>
</glyph>
<glyph name="uni0952" format="2">
  <unicode hex="0952"/>
  <outline>
    <contour>
      <point x="-350" y="-146" type="line"/>
      <point x="-50" y="-146" type="line"/>
      <point x="-50" y="-79" type="line"/>
      <point x="-350" y="-79" type="line"/>
    </contour>
  </outline>
</glyph>
<glyph name="danda.guru" format="2">
  <advance width="356"/>
  <unicode hex="0964"/>
  <outline>
    <contour>
      <point x="179" y="0" type="line"/>
      <point x="254" y="0" type="line"/>
      <point x="254" y="622" type="line"/>
      <point x="179" y="622" type="line"/>
    </contour>
  </outline>
</glyph>
<glyph name="dbldanda.guru" format="2">
  <advance width="538"/>
  <unicode hex="0965"/>
  <outline>
    <contour>
      <point x="361" y="0" type="line"/>
      <point x="436" y="0" type="line"/>
      <point x="436" y="622" type="line"/>
      <point x="361" y="622" type="line"/>
    </contour>
    <contour>
      <point x="179" y="0" type="line"/>
      <point x="254" y="0" type="line"/>
      <point x="254" y="622" type="line"/>
      <point x="179" y="622" type="line"/>
    </contour>
  </outline>
</glyph>
<glyph name="adakbindiguru" format="2">
  <unicode hex="0A01"/>
  <outline>
    <contour>
      <point x="-102" y="673" type="curve" smooth="yes"/>
      <point x="0" y="673"/>
      <point x="36" y="755"/>
      <point x="45" y="860" type="curve"/>
      <point x="-21" y="867" type="line"/>
      <point x="-29" y="775"/>
      <point x="-50" y="736"/>
      <point x="-103" y="736" type="curve" smooth="yes"/>
      <point x="-156" y="736"/>
      <point x="-176" y="775"/>
      <point x="-185" y="867" type="curve"/>
      <point x="-251" y="860" type="line"/>
      <point x="-242" y="754"/>
      <point x="-204" y="673"/>
    </contour>
    <contour>
      <point x="-103" y="790" type="curve" smooth="yes"/>
      <point x="-76" y="790"/>
      <point x="-59" y="809"/>
      <point x="-59" y="842" type="curve" smooth="yes"/>
      <point x="-59" y="876"/>
      <point x="-76" y="895"/>
      <point x="-103" y="895" type="curve" smooth="yes"/>
      <point x="-128" y="895"/>
      <point x="-146" y="876"/>
      <point x="-146" y="842" type="curve" smooth="yes"/>
      <point x="-146" y="809"/>
      <point x="-129" y="790"/>
    </contour>
  </outline>
</glyph>
<glyph name="bindiguru" format="2">
  <unicode hex="0A02"/>
  <outline>
    <contour>
      <point x="-101" y="723" type="curve" smooth="yes"/>
      <point x="-69" y="723"/>
      <point x="-52" y="745"/>
      <point x="-52" y="778" type="curve" smooth="yes"/>
      <point x="-52" y="810"/>
      <point x="-69" y="833"/>
      <point x="-101" y="833" type="curve" smooth="yes"/>
      <point x="-132" y="833"/>
      <point x="-150" y="810"/>
      <point x="-150" y="778" type="curve" smooth="yes"/>
      <point x="-150" y="745"/>
      <point x="-132" y="723"/>
    </contour>
  </outline>
</glyph>
<glyph name="visargaguru" format="2">
  <advance width="314"/>
  <unicode hex="0A03"/>
  <outline>
    <contour>
      <point x="157" y="364" type="curve" smooth="yes"/>
      <point x="226" y="364"/>
      <point x="269" y="408"/>
      <point x="269" y="493" type="curve" smooth="yes"/>
      <point x="269" y="578"/>
      <point x="226" y="622"/>
      <point x="157" y="622" type="curve" smooth="yes"/>
      <point x="88" y="622"/>
      <point x="45" y="578"/>
      <point x="45" y="493" type="curve" smooth="yes"/>
      <point x="45" y="408"/>
      <point x="88" y="364"/>
    </contour>
    <contour>
      <point x="157" y="425" type="curve" smooth="yes"/>
      <point x="129" y="425"/>
      <point x="112" y="445"/>
      <point x="112" y="493" type="curve" smooth="yes"/>
      <point x="112" y="541"/>
      <point x="129" y="561"/>
      <point x="157" y="561" type="curve" smooth="yes"/>
      <point x="185" y="561"/>
      <point x="202" y="541"/>
      <point x="202" y="493" type="curve" smooth="yes"/>
      <point x="202" y="445"/>
      <point x="185" y="425"/>
    </contour>
    <contour>
      <point x="157" y="0" type="curve" smooth="yes"/>
      <point x="226" y="0"/>
      <point x="269" y="44"/>
      <point x="269" y="129" type="curve" smooth="yes"/>
      <point x="269" y="214"/>
      <point x="226" y="258"/>
      <point x="157" y="258" type="curve" smooth="yes"/>
      <point x="88" y="258"/>
      <point x="45" y="214"/>
      <point x="45" y="129" type="curve" smooth="yes"/>
      <point x="45" y="44"/>
      <point x="88" y="0"/>
    </contour>
    <contour>
      <point x="157" y="61" type="curve" smooth="yes"/>
      <point x="129" y="61"/>
      <point x="112" y="81"/>
      <point x="112" y="129" type="curve" smooth="yes"/>
      <point x="112" y="177"/>
      <point x="129" y="197"/>
      <point x="157" y="197" type="curve" smooth="yes"/>
      <point x="185" y="197"/>
      <point x="202" y="177"/>
      <point x="202" y="129" type="curve" smooth="yes"/>
      <point x="202" y="81"/>
      <point x="185" y="61"/>
    </contour>
  </outline>
</glyph>
<glyph name="aguru" format="2">
  <advance width="567"/>
  <unicode hex="0A05"/>
  <outline>
    <contour>
      <point x="427" y="0" type="line"/>
      <point x="502" y="0" type="line"/>
      <point x="502" y="554" type="line"/>
      <point x="574" y="554" type="line"/>
      <point x="574" y="622" type="line"/>
      <point x="427" y="622" type="line"/>
      <point x="427" y="405" type="line"/>
      <point x="431" y="439" type="line"/>
      <point x="390" y="422"/>
      <point x="343" y="392"/>
      <point x="303" y="347" type="curve"/>
      <point x="329" y="336" type="line"/>
      <point x="329" y="415"/>
      <point x="306" y="504"/>
      <point x="284" y="555" type="curve"/>
      <point x="229" y="532"/>
      <point x="166" y="488"/>
      <point x="130" y="450" type="curve"/>
      <point x="153" y="438" type="line"/>
      <point x="152" y="507"/>
      <point x="134" y="581"/>
      <point x="120" y="622" type="curve"/>
      <point x="-7" y="622" type="line"/>
      <point x="-7" y="554" type="line"/>
      <point x="88" y="554" type="line"/>
      <point x="55" y="562" type="line"/>
      <point x="69" y="532"/>
      <point x="80" y="486"/>
      <point x="86" y="418" type="curve"/>
      <point x="54" y="363"/>
      <point x="40" y="307"/>
      <point x="40" y="272" type="curve" smooth="yes"/>
      <point x="40" y="225"/>
      <point x="65" y="213"/>
      <point x="86" y="213" type="curve" smooth="yes"/>
      <point x="132" y="213"/>
      <point x="155" y="294"/>
      <point x="155" y="424" type="curve"/>
      <point x="143" y="375" type="line"/>
      <point x="167" y="408"/>
      <point x="221" y="447"/>
      <point x="259" y="467" type="curve"/>
      <point x="228" y="479" type="line"/>
      <point x="241" y="452"/>
      <point x="260" y="387"/>
      <point x="262" y="316" type="curve"/>
      <point x="230" y="261"/>
      <point x="216" y="205"/>
      <point x="216" y="170" type="curve" smooth="yes"/>
      <point x="216" y="123"/>
      <point x="241" y="111"/>
      <point x="261" y="111" type="curve" smooth="yes"/>
      <point x="307" y="111"/>
      <point x="331" y="190"/>
      <point x="331" y="321" type="curve"/>
      <point x="318" y="274" type="line"/>
      <point x="350" y="319"/>
      <point x="402" y="352"/>
      <point x="436" y="364" type="curve"/>
      <point x="427" y="374" type="line"/>
    </contour>
  </outline>
</glyph>
<glyph name="aaguru" format="2">
  <advance width="750"/>
  <unicode hex="0A06"/>
  <outline>
    <contour>
      <point x="619" y="261" type="line"/>
      <point x="694" y="261" type="line"/>
      <point x="694" y="554" type="line"/>
      <point x="757" y="554" type="line"/>
      <point x="757" y="622" type="line"/>
      <point x="560" y="622" type="line"/>
      <point x="560" y="554" type="line"/>
      <point x="619" y="554" type="line"/>
    </contour>
    <component base="aguru"/>
  </outline>
</glyph>
<glyph name="ooguru" format="2">
  <advance width="501"/>
  <unicode hex="0A13"/>
  <outline>
    <contour>
      <point x="270" y="0" type="curve" smooth="yes"/>
      <point x="375" y="0"/>
      <point x="427" y="66"/>
      <point x="427" y="163" type="curve" smooth="yes"/>
      <point x="427" y="246"/>
      <point x="378" y="319"/>
      <point x="266" y="331" type="curve"/>
      <point x="256" y="305" type="line"/>
      <point x="397" y="324"/>
      <point x="479" y="398"/>
      <point x="479" y="583" type="curve"/>
      <point x="479" y="603" type="line"/>
      <point x="404" y="589" type="line"/>
      <point x="404" y="563" type="line"/>
      <point x="404" y="464"/>
      <point x="369" y="417"/>
      <point x="320" y="388" type="curve" smooth="yes"/>
      <point x="285" y="367"/>
      <point x="242" y="361"/>
      <point x="184" y="361" type="curve" smooth="yes"/>
      <point x="93" y="361" type="line"/>
      <point x="109" y="293" type="line"/>
      <point x="157" y="293" type="line" smooth="yes"/>
      <point x="227" y="293"/>
      <point x="254" y="287"/>
      <point x="284" y="273" type="curve" smooth="yes"/>
      <point x="326" y="253"/>
      <point x="350" y="217"/>
      <point x="350" y="161" type="curve" smooth="yes"/>
      <point x="350" y="103"/>
      <point x="322" y="69"/>
      <point x="264" y="69" type="curve" smooth="yes"/>
      <point x="192" y="69"/>
      <point x="126" y="120"/>
      <point x="126" y="405" type="curve" smooth="yes"/>
      <point x="126" y="593"/>
      <point x="146" y="692"/>
      <point x="209" y="738" type="curve" smooth="yes"/>
      <point x="243" y="763"/>
      <point x="283" y="775"/>
      <point x="369" y="775" type="curve" smooth="yes"/>
      <point x="468" y="775" type="line"/>
      <point x="471" y="843" type="line"/>
      <point x="367" y="843" type="line" smooth="yes"/>
      <point x="258" y="843"/>
      <point x="205" y="824"/>
      <point x="162" y="792" type="curve" smooth="yes"/>
      <point x="69" y="723"/>
      <point x="51" y="591"/>
      <point x="51" y="405" type="curve" smooth="yes"/>
      <point x="51" y="102"/>
      <point x="135" y="0"/>
    </contour>
    <contour>
      <point x="-7" y="554" type="line"/>
      <point x="522" y="554" type="line"/>
      <point x="522" y="622" type="line"/>
      <point x="-7" y="622" type="line"/>
    </contour>
  </outline>
</glyph>
<glyph name="gaguru" format="2">
  <advance width="571"/>
  <unicode hex="0A17"/>
  <outline>
    <contour>
      <point x="213" y="0" type="curve" smooth="yes"/>
      <point x="301" y="0"/>
      <point x="332" y="66"/>
      <point x="332" y="129" type="curve" smooth="yes"/>
      <point x="332" y="554" type="line"/>
      <point x="395" y="554" type="line"/>
      <point x="395" y="622" type="line"/>
      <point x="-7" y="622" type="line"/>
      <point x="-7" y="554" type="line"/>
      <point x="257" y="554" type="line"/>
      <point x="257" y="405" type="line"/>
      <point x="205" y="405" type="line" smooth="yes"/>
      <point x="135" y="405"/>
      <point x="102" y="396"/>
      <point x="75" y="377" type="curve" smooth="yes"/>
      <point x="45" y="355"/>
      <point x="29" y="319"/>
      <point x="29" y="268" type="curve" smooth="yes"/>
      <point x="29" y="132"/>
      <point x="106" y="0"/>
    </contour>
    <contour>
      <point x="212" y="69" type="curve" smooth="yes"/>
      <point x="150" y="69"/>
      <point x="104" y="178"/>
      <point x="104" y="262" type="curve" smooth="yes"/>
      <point x="104" y="290"/>
      <point x="111" y="308"/>
      <point x="124" y="320" type="curve" smooth="yes"/>
      <point x="139" y="333"/>
      <point x="160" y="337"/>
      <point x="205" y="337" type="curve" smooth="yes"/>
      <point x="257" y="337" type="line"/>
      <point x="257" y="137" type="line" smooth="yes"/>
      <point x="257" y="110"/>
      <point x="254" y="92"/>
      <point x="244" y="81" type="curve" smooth="yes"/>
      <point x="236" y="72"/>
      <point x="227" y="69"/>
    </contour>
    <contour>
      <point x="432" y="0" type="line"/>
      <point x="507" y="0" type="line"/>
      <point x="507" y="554" type="line"/>
      <point x="578" y="554" type="line"/>
      <point x="578" y="622" type="line"/>
      <point x="366" y="622" type="line"/>
      <point x="366" y="554" type="line"/>
      <point x="432" y="554" type="line"/>
    </contour>
  </outline>
</glyph>
<glyph name="ghaguru" format="2">
  <advance width="570"/>
  <unicode hex="0A18"/>
  <outline>
    <contour>
      <point x="183" y="135" type="curve" smooth="yes"/>
      <point x="243" y="135"/>
      <point x="295" y="170"/>
      <point x="311" y="288" type="curve"/>
      <point x="266" y="289" type="line"/>
      <point x="274" y="182"/>
      <point x="305" y="135"/>
      <point x="379" y="135" type="curve" smooth="yes"/>
      <point x="407" y="135"/>
      <point x="429" y="142"/>
      <point x="450" y="162" type="curve"/>
      <point x="442" y="240" type="line"/>
      <point x="429" y="216"/>
      <point x="412" y="204"/>
      <point x="387" y="204" type="curve" smooth="yes"/>
      <point x="359" y="204"/>
      <point x="330" y="220"/>
      <point x="321" y="288" type="curve"/>
      <point x="332" y="365"/>
      <point x="338" y="435"/>
      <point x="338" y="492" type="curve" smooth="yes"/>
      <point x="338" y="575"/>
      <point x="328" y="608"/>
      <point x="288" y="608" type="curve" smooth="yes"/>
      <point x="251" y="608"/>
      <point x="237" y="575"/>
      <point x="237" y="495" type="curve" smooth="yes"/>
      <point x="237" y="435"/>
      <point x="244" y="365"/>
      <point x="254" y="288" type="curve"/>
      <point x="240" y="218"/>
      <point x="211" y="204"/>
      <point x="187" y="204" type="curve" smooth="yes"/>
      <point x="145" y="204"/>
      <point x="123" y="248"/>
      <point x="102" y="360" type="curve"/>
      <point x="98" y="314" type="line"/>
      <point x="132" y="350"/>
      <point x="157" y="391"/>
      <point x="157" y="462" type="curve" smooth="yes"/>
      <point x="157" y="512"/>
      <point x="141" y="569"/>
      <point x="120" y="622" type="curve"/>
      <point x="-7" y="622" type="line"/>
      <point x="-7" y="554" type="line"/>
      <point x="85" y="554" type="line"/>
      <point x="54" y="571" type="line"/>
      <point x="73" y="539"/>
      <point x="82" y="492"/>
      <point x="82" y="461" type="curve" smooth="yes"/>
      <point x="82" y="409"/>
      <point x="57" y="370"/>
      <point x="28" y="333" type="curve"/>
      <point x="60" y="200"/>
      <point x="98" y="135"/>
    </contour>
    <contour>
      <point x="431" y="0" type="line"/>
      <point x="506" y="0" type="line"/>
      <point x="506" y="554" type="line"/>
      <point x="577" y="554" type="line"/>
      <point x="577" y="622" type="line"/>
      <point x="431" y="622" type="line"/>
    </contour>
  </outline>
</glyph>
<glyph name="ngaguru" format="2">
  <advance width="441"/>
  <unicode hex="0A19"/>
  <outline>
    <contour>
      <point x="322" y="-6" type="curve"/>
      <point x="395" y="8" type="line"/>
      <point x="381" y="60"/>
      <point x="362" y="110"/>
      <point x="341" y="148" type="curve"/>
      <point x="302" y="223"/>
      <point x="247" y="268"/>
      <point x="162" y="268" type="curve" smooth="yes"/>
      <point x="78" y="268"/>
      <point x="31" y="219"/>
      <point x="31" y="158" type="curve" smooth="yes"/>
      <point x="31" y="86"/>
      <point x="79" y="37"/>
      <point x="181" y="37" type="curve" smooth="yes"/>
      <point x="317" y="37"/>
      <point x="412" y="144"/>
      <point x="412" y="273" type="curve" smooth="yes"/>
      <point x="412" y="329"/>
      <point x="395" y="367"/>
      <point x="365" y="393" type="curve" smooth="yes"/>
      <point x="333" y="421"/>
      <point x="293" y="432"/>
      <point x="206" y="432" type="curve" smooth="yes"/>
      <point x="143" y="432" type="line"/>
      <point x="143" y="554" type="line"/>
      <point x="448" y="554" type="line"/>
      <point x="448" y="622" type="line"/>
      <point x="-7" y="622" type="line"/>
      <point x="-7" y="554" type="line"/>
      <point x="68" y="554" type="line"/>
      <point x="68" y="393" type="line"/>
      <point x="92" y="364" type="line"/>
      <point x="197" y="364" type="line" smooth="yes"/>
      <point x="262" y="364"/>
      <point x="288" y="358"/>
      <point x="310" y="340" type="curve" smooth="yes"/>
      <point x="328" y="326"/>
      <point x="337" y="303"/>
      <point x="337" y="269" type="curve" smooth="yes"/>
      <point x="337" y="230"/>
      <point x="326" y="190"/>
      <point x="297" y="156" type="curve"/>
      <point x="272" y="126"/>
      <point x="236" y="104"/>
      <point x="180" y="104" type="curve" smooth="yes"/>
      <point x="132" y="104"/>
      <point x="105" y="121"/>
      <point x="105" y="156" type="curve" smooth="yes"/>
      <point x="105" y="185"/>
      <point x="129" y="201"/>
      <point x="166" y="201" type="curve" smooth="yes"/>
      <point x="250" y="201"/>
      <point x="299" y="120"/>
    </contour>
  </outline>
</glyph>
<glyph name="caguru" format="2">
  <advance width="494"/>
  <unicode hex="0A1A"/>
  <outline>
    <contour>
      <point x="301" y="0" type="curve" smooth="yes"/>
      <point x="391" y="0"/>
      <point x="430" y="59"/>
      <point x="430" y="146" type="curve" smooth="yes"/>
      <point x="430" y="559" type="line"/>
      <point x="355" y="559" type="line"/>
      <point x="355" y="159" type="line" smooth="yes"/>
      <point x="355" y="114"/>
      <point x="351" y="96"/>
      <point x="340" y="84" type="curve" smooth="yes"/>
      <point x="331" y="74"/>
      <point x="318" y="69"/>
      <point x="300" y="69" type="curve" smooth="yes"/>
      <point x="228" y="69"/>
      <point x="162" y="156"/>
      <point x="151" y="300" type="curve"/>
      <point x="135" y="293" type="line"/>
      <point x="360" y="293" type="line"/>
      <point x="355" y="361" type="line"/>
      <point x="151" y="361" type="line"/>
      <point x="151" y="397" type="line" smooth="yes"/>
      <point x="151" y="422"/>
      <point x="140" y="439"/>
      <point x="118" y="439" type="curve" smooth="yes"/>
      <point x="73" y="439"/>
      <point x="24" y="372"/>
      <point x="24" y="329" type="curve" smooth="yes"/>
      <point x="24" y="309"/>
      <point x="35" y="292"/>
      <point x="71" y="292" type="curve" smooth="yes"/>
      <point x="88" y="292" type="line"/>
      <point x="75" y="311" type="line"/>
      <point x="81" y="214"/>
      <point x="104" y="150"/>
      <point x="138" y="97" type="curve" smooth="yes"/>
      <point x="172" y="44"/>
      <point x="229" y="0"/>
    </contour>
    <contour>
      <point x="-7" y="554" type="line"/>
      <point x="501" y="554" type="line"/>
      <point x="501" y="622" type="line"/>
      <point x="-7" y="622" type="line"/>
    </contour>
  </outline>
</glyph>
<glyph name="chaguru" format="2">
  <advance width="481"/>
  <unicode hex="0A1B"/>
  <outline>
    <contour>
      <point x="241" y="0" type="curve" smooth="yes"/>
      <point x="385" y="0"/>
      <point x="451" y="55"/>
      <point x="451" y="145" type="curve" smooth="yes"/>
      <point x="451" y="238"/>
      <point x="379" y="284"/>
      <point x="280" y="284" type="curve" smooth="yes"/>
      <point x="197" y="284" type="line" smooth="yes"/>
      <point x="156" y="284"/>
      <point x="117" y="293"/>
      <point x="117" y="338" type="curve" smooth="yes"/>
      <point x="117" y="354"/>
      <point x="124" y="366"/>
      <point x="134" y="374" type="curve" smooth="yes"/>
      <point x="146" y="383"/>
      <point x="159" y="388"/>
      <point x="198" y="388" type="curve" smooth="yes"/>
      <point x="381" y="388" type="line"/>
      <point x="407" y="416" type="line"/>
      <point x="407" y="554" type="line"/>
      <point x="488" y="554" type="line"/>
      <point x="488" y="622" type="line"/>
      <point x="-7" y="622" type="line"/>
      <point x="-7" y="554" type="line"/>
      <point x="332" y="554" type="line"/>
      <point x="332" y="456" type="line"/>
      <point x="221" y="456" type="line" smooth="yes"/>
      <point x="162" y="456"/>
      <point x="125" y="450"/>
      <point x="99" y="436" type="curve" smooth="yes"/>
      <point x="63" y="418"/>
      <point x="41" y="385"/>
      <point x="41" y="340" type="curve" smooth="yes"/>
      <point x="41" y="283"/>
      <point x="78" y="244"/>
      <point x="141" y="230" type="curve"/>
      <point x="142" y="220" type="line"/>
      <point x="272" y="220" type="line" smooth="yes"/>
      <point x="334" y="220"/>
      <point x="376" y="199"/>
      <point x="376" y="145" type="curve" smooth="yes"/>
      <point x="376" y="87"/>
      <point x="322" y="64"/>
      <point x="251" y="64" type="curve" smooth="yes"/>
      <point x="238" y="64" type="line" smooth="yes"/>
      <point x="156" y="64"/>
      <point x="112" y="95"/>
      <point x="112" y="146" type="curve" smooth="yes"/>
      <point x="112" y="198"/>
      <point x="157" y="220"/>
      <point x="207" y="220" type="curve"/>
      <point x="144" y="254" type="line"/>
      <point x="73" y="240"/>
      <point x="37" y="193"/>
      <point x="37" y="141" type="curve" smooth="yes"/>
      <point x="37" y="46"/>
      <point x="120" y="0"/>
    </contour>
    <contour>
      <point x="280" y="47" type="line"/>
      <point x="280" y="234" type="line"/>
      <point x="209" y="234" type="line"/>
      <point x="209" y="47" type="line"/>
    </contour>
  </outline>
</glyph>
<glyph name="jaguru" format="2">
  <advance width="458"/>
  <unicode hex="0A1C"/>
  <outline>
    <contour>
      <point x="80" y="0" type="line"/>
      <point x="155" y="0" type="line"/>
      <point x="155" y="293" type="line"/>
      <point x="319" y="293" type="line"/>
      <point x="319" y="0" type="line"/>
      <point x="394" y="0" type="line"/>
      <point x="394" y="554" type="line"/>
      <point x="465" y="554" type="line"/>
      <point x="465" y="622" type="line"/>
      <point x="-7" y="622" type="line"/>
      <point x="-7" y="554" type="line"/>
      <point x="319" y="554" type="line"/>
      <point x="319" y="361" type="line"/>
      <point x="155" y="361" type="line"/>
      <point x="155" y="397" type="line" smooth="yes"/>
      <point x="155" y="422"/>
      <point x="144" y="439"/>
      <point x="122" y="439" type="curve" smooth="yes"/>
      <point x="77" y="439"/>
      <point x="28" y="372"/>
      <point x="28" y="329" type="curve" smooth="yes"/>
      <point x="28" y="309"/>
      <point x="39" y="292"/>
      <point x="75" y="292" type="curve" smooth="yes"/>
      <point x="80" y="292" type="line"/>
    </contour>
  </outline>
</glyph>
<glyph name="jhaguru" format="2">
  <advance width="435"/>
  <unicode hex="0A1D"/>
  <outline>
    <contour>
      <point x="164" y="76" type="curve" smooth="yes"/>
      <point x="182" y="76"/>
      <point x="199" y="77"/>
      <point x="215" y="79" type="curve"/>
      <point x="244" y="85" type="line"/>
      <point x="333" y="107"/>
      <point x="398" y="158"/>
      <point x="398" y="253" type="curve" smooth="yes"/>
      <point x="398" y="353"/>
      <point x="328" y="410"/>
      <point x="203" y="410" type="curve" smooth="yes"/>
      <point x="153" y="410"/>
      <point x="88" y="400"/>
      <point x="23" y="376" type="curve"/>
      <point x="47" y="313" type="line"/>
      <point x="107" y="336"/>
      <point x="155" y="345"/>
      <point x="210" y="345" type="curve" smooth="yes"/>
      <point x="278" y="345"/>
      <point x="322" y="318"/>
      <point x="322" y="253" type="curve" smooth="yes"/>
      <point x="322" y="195"/>
      <point x="281" y="161"/>
      <point x="215" y="145" type="curve"/>
      <point x="184" y="163"/>
      <point x="158" y="177"/>
      <point x="118" y="177" type="curve" smooth="yes"/>
      <point x="80" y="177"/>
      <point x="59" y="159"/>
      <point x="59" y="132" type="curve" smooth="yes"/>
      <point x="59" y="94"/>
      <point x="105" y="76"/>
    </contour>
    <contour>
      <point x="285" y="-12" type="curve"/>
      <point x="338" y="38" type="line"/>
      <point x="303" y="73"/>
      <point x="257" y="104"/>
      <point x="224" y="123" type="curve"/>
      <point x="157" y="98" type="line"/>
      <point x="205" y="68"/>
      <point x="248" y="28"/>
    </contour>
    <contour>
      <point x="145" y="378" type="curve"/>
      <point x="241" y="405" type="line"/>
      <point x="150" y="411"/>
      <point x="134" y="475"/>
      <point x="134" y="601" type="curve"/>
      <point x="58" y="605" type="line"/>
      <point x="58" y="480"/>
      <point x="88" y="415"/>
    </contour>
    <contour>
      <point x="-7" y="554" type="line"/>
      <point x="442" y="554" type="line"/>
      <point x="442" y="622" type="line"/>
      <point x="-7" y="622" type="line"/>
    </contour>
    <contour>
      <point x="299" y="375" type="line"/>
      <point x="354" y="412"/>
      <point x="383" y="475"/>
      <point x="383" y="605" type="curve"/>
      <point x="307" y="601" type="line"/>
      <point x="307" y="480"/>
      <point x="291" y="413"/>
      <point x="200" y="405" type="curve"/>
    </contour>
  </outline>
</glyph>
<glyph name="nyaguru" format="2">
  <advance width="424"/>
  <unicode hex="0A1E"/>
  <outline>
    <contour>
      <point x="121" y="392" type="curve"/>
      <point x="183" y="427" type="line"/>
      <point x="168" y="479"/>
      <point x="145" y="535"/>
      <point x="115" y="591" type="curve"/>
      <point x="45" y="566" type="line"/>
      <point x="75" y="515"/>
      <point x="100" y="453"/>
    </contour>
    <component base="vaguru"/>
  </outline>
</glyph>
<glyph name="ttaguru" format="2">
  <advance width="431"/>
  <unicode hex="0A1F"/>
  <outline>
    <contour>
      <point x="261" y="0" type="curve" smooth="yes"/>
      <point x="315" y="0"/>
      <point x="367" y="12"/>
      <point x="416" y="36" type="curve"/>
      <point x="390" y="103" type="line"/>
      <point x="348" y="82"/>
      <point x="315" y="70"/>
      <point x="266" y="70" type="curve" smooth="yes"/>
      <point x="171" y="70"/>
      <point x="138" y="142"/>
      <point x="97" y="253" type="curve"/>
      <point x="93" y="199" type="line"/>
      <point x="127" y="253"/>
      <point x="155" y="292"/>
      <point x="184" y="313" type="curve" smooth="yes"/>
      <point x="219" y="339"/>
      <point x="249" y="350"/>
      <point x="336" y="350" type="curve" smooth="yes"/>
      <point x="344" y="350" type="line"/>
      <point x="367" y="378" type="line"/>
      <point x="367" y="554" type="line"/>
      <point x="438" y="554" type="line"/>
      <point x="438" y="622" type="line"/>
      <point x="-7" y="622" type="line"/>
      <point x="-7" y="554" type="line"/>
      <point x="292" y="554" type="line"/>
      <point x="292" y="418" type="line"/>
      <point x="291" y="418" type="line"/>
      <point x="230" y="416"/>
      <point x="186" y="404"/>
      <point x="145" y="375" type="curve" smooth="yes"/>
      <point x="102" y="345"/>
      <point x="60" y="292"/>
      <point x="25" y="233" type="curve"/>
      <point x="68" y="100"/>
      <point x="125" y="0"/>
    </contour>
  </outline>
</glyph>
<glyph name="tthaguru" format="2">
  <advance width="494"/>
  <unicode hex="0A20"/>
  <outline>
    <contour>
      <point x="247" y="0" type="curve" smooth="yes"/>
      <point x="363" y="0"/>
      <point x="463" y="52"/>
      <point x="463" y="199" type="curve" smooth="yes"/>
      <point x="463" y="293"/>
      <point x="404" y="382"/>
      <point x="284" y="437" type="curve"/>
      <point x="284" y="554" type="line"/>
      <point x="501" y="554" type="line"/>
      <point x="501" y="622" type="line"/>
      <point x="-7" y="622" type="line"/>
      <point x="-7" y="554" type="line"/>
      <point x="210" y="554" type="line"/>
      <point x="210" y="437" type="line"/>
      <point x="90" y="381"/>
      <point x="31" y="293"/>
      <point x="31" y="199" type="curve" smooth="yes"/>
      <point x="31" y="52"/>
      <point x="131" y="0"/>
    </contour>
    <contour>
      <point x="247" y="69" type="curve" smooth="yes"/>
      <point x="165" y="69"/>
      <point x="107" y="105"/>
      <point x="107" y="198" type="curve" smooth="yes"/>
      <point x="107" y="282"/>
      <point x="163" y="341"/>
      <point x="247" y="380" type="curve"/>
      <point x="333" y="341"/>
      <point x="387" y="277"/>
      <point x="387" y="198" type="curve" smooth="yes"/>
      <point x="387" y="105"/>
      <point x="329" y="69"/>
    </contour>
  </outline>
</glyph>
<glyph name="ddaguru" format="2">
  <advance width="455"/>
  <unicode hex="0A21"/>
  <outline>
    <contour>
      <point x="196" y="0" type="curve" smooth="yes"/>
      <point x="325" y="0"/>
      <point x="419" y="74"/>
      <point x="419" y="191" type="curve" smooth="yes"/>
      <point x="419" y="284"/>
      <point x="375" y="333"/>
      <point x="324" y="365" type="curve"/>
      <point x="377" y="400"/>
      <point x="402" y="452"/>
      <point x="402" y="514" type="curve" smooth="yes"/>
      <point x="402" y="532"/>
      <point x="399" y="557"/>
      <point x="395" y="578" type="curve"/>
      <point x="374" y="554" type="line"/>
      <point x="462" y="554" type="line"/>
      <point x="462" y="622" type="line"/>
      <point x="-7" y="622" type="line"/>
      <point x="-7" y="554" type="line"/>
      <point x="344" y="554" type="line"/>
      <point x="313" y="580" type="line"/>
      <point x="322" y="555"/>
      <point x="327" y="533"/>
      <point x="327" y="514" type="curve" smooth="yes"/>
      <point x="327" y="452"/>
      <point x="299" y="419"/>
      <point x="261" y="397" type="curve"/>
      <point x="227" y="411"/>
      <point x="198" y="415"/>
      <point x="167" y="415" type="curve" smooth="yes"/>
      <point x="120" y="415"/>
      <point x="86" y="403"/>
      <point x="86" y="366" type="curve" smooth="yes"/>
      <point x="86" y="339"/>
      <point x="105" y="314"/>
      <point x="171" y="314" type="curve" smooth="yes"/>
      <point x="214" y="314"/>
      <point x="240" y="321"/>
      <point x="256" y="328" type="curve"/>
      <point x="306" y="306"/>
      <point x="343" y="265"/>
      <point x="343" y="202" type="curve" smooth="yes"/>
      <point x="343" y="113"/>
      <point x="290" y="67"/>
      <point x="196" y="67" type="curve" smooth="yes"/>
      <point x="141" y="67"/>
      <point x="102" y="82"/>
      <point x="102" y="119" type="curve" smooth="yes"/>
      <point x="102" y="148"/>
      <point x="123" y="165"/>
      <point x="158" y="165" type="curve" smooth="yes"/>
      <point x="214" y="165"/>
      <point x="258" y="128"/>
      <point x="303" y="76" type="curve"/>
      <point x="352" y="116" type="line"/>
      <point x="291" y="191"/>
      <point x="229" y="232"/>
      <point x="155" y="232" type="curve" smooth="yes"/>
      <point x="67" y="232"/>
      <point x="28" y="177"/>
      <point x="28" y="122" type="curve" smooth="yes"/>
      <point x="28" y="46"/>
      <point x="88" y="0"/>
    </contour>
  </outline>
</glyph>
<glyph name="ddhaguru" format="2">
  <advance width="488"/>
  <unicode hex="0A22"/>
  <outline>
    <contour>
      <point x="302" y="0" type="curve" smooth="yes"/>
      <point x="406" y="0"/>
      <point x="455" y="49"/>
      <point x="455" y="120" type="curve" smooth="yes"/>
      <point x="455" y="179"/>
      <point x="416" y="232"/>
      <point x="329" y="232" type="curve" smooth="yes"/>
      <point x="250" y="232"/>
      <point x="185" y="185"/>
      <point x="127" y="114" type="curve"/>
      <point x="176" y="76" type="line"/>
      <point x="221" y="128"/>
      <point x="266" y="165"/>
      <point x="323" y="165" type="curve" smooth="yes"/>
      <point x="360" y="165"/>
      <point x="381" y="148"/>
      <point x="381" y="118" type="curve" smooth="yes"/>
      <point x="381" y="85"/>
      <point x="357" y="67"/>
      <point x="307" y="67" type="curve" smooth="yes"/>
      <point x="187" y="67"/>
      <point x="151" y="172"/>
      <point x="151" y="322" type="curve"/>
      <point x="400" y="322" type="line"/>
      <point x="422" y="350" type="line"/>
      <point x="422" y="554" type="line"/>
      <point x="495" y="554" type="line"/>
      <point x="495" y="622" type="line"/>
      <point x="-7" y="622" type="line"/>
      <point x="-7" y="554" type="line"/>
      <point x="347" y="554" type="line"/>
      <point x="347" y="390" type="line"/>
      <point x="151" y="390" type="line"/>
      <point x="151" y="428" type="line" smooth="yes"/>
      <point x="151" y="451"/>
      <point x="140" y="468"/>
      <point x="118" y="468" type="curve" smooth="yes"/>
      <point x="73" y="468"/>
      <point x="24" y="401"/>
      <point x="24" y="358" type="curve" smooth="yes"/>
      <point x="24" y="338"/>
      <point x="35" y="321"/>
      <point x="71" y="321" type="curve" smooth="yes"/>
      <point x="76" y="321" type="line"/>
      <point x="76" y="302" type="line" smooth="yes"/>
      <point x="76" y="121"/>
      <point x="157" y="0"/>
    </contour>
  </outline>
</glyph>
<glyph name="nnaguru" format="2">
  <advance width="452"/>
  <unicode hex="0A23"/>
  <outline>
    <contour>
      <point x="276" y="0" type="curve" smooth="yes"/>
      <point x="326" y="0"/>
      <point x="382" y="13"/>
      <point x="435" y="39" type="curve"/>
      <point x="409" y="106" type="line"/>
      <point x="356" y="79"/>
      <point x="325" y="70"/>
      <point x="276" y="70" type="curve" smooth="yes"/>
      <point x="195" y="70"/>
      <point x="149" y="117"/>
      <point x="105" y="218" type="curve"/>
      <point x="99" y="189" type="line"/>
      <point x="143" y="264"/>
      <point x="181" y="303"/>
      <point x="234" y="303" type="curve" smooth="yes"/>
      <point x="247" y="303"/>
      <point x="259" y="301"/>
      <point x="270" y="298" type="curve"/>
      <point x="310" y="313" type="line"/>
      <point x="369" y="422" type="line"/>
      <point x="297" y="453" type="line"/>
      <point x="242" y="346" type="line"/>
      <point x="282" y="362" type="line"/>
      <point x="263" y="369"/>
      <point x="247" y="372"/>
      <point x="226" y="372" type="curve" smooth="yes"/>
      <point x="138" y="372"/>
      <point x="88" y="319"/>
      <point x="25" y="219" type="curve"/>
      <point x="79" y="77"/>
      <point x="141" y="0"/>
    </contour>
    <contour>
      <point x="397" y="335" type="curve"/>
      <point x="437" y="396" type="line"/>
      <point x="371" y="439"/>
      <point x="293" y="497"/>
      <point x="228" y="569" type="curve"/>
      <point x="224" y="554" type="line"/>
      <point x="459" y="554" type="line"/>
      <point x="459" y="622" type="line"/>
      <point x="-7" y="622" type="line"/>
      <point x="-7" y="554" type="line"/>
      <point x="187" y="554" type="line"/>
      <point x="137" y="573" type="line"/>
      <point x="218" y="463"/>
      <point x="313" y="389"/>
    </contour>
  </outline>
</glyph>
<glyph name="taguru" format="2">
  <advance width="408"/>
  <unicode hex="0A24"/>
  <outline>
    <contour>
      <point x="174" y="0" type="curve" smooth="yes"/>
      <point x="299" y="0"/>
      <point x="372" y="68"/>
      <point x="372" y="187" type="curve" smooth="yes"/>
      <point x="372" y="275"/>
      <point x="331" y="330"/>
      <point x="277" y="365" type="curve"/>
      <point x="330" y="400"/>
      <point x="355" y="452"/>
      <point x="355" y="514" type="curve" smooth="yes"/>
      <point x="355" y="532"/>
      <point x="352" y="557"/>
      <point x="348" y="578" type="curve"/>
      <point x="331" y="554" type="line"/>
      <point x="415" y="554" type="line"/>
      <point x="415" y="622" type="line"/>
      <point x="-7" y="622" type="line"/>
      <point x="-7" y="554" type="line"/>
      <point x="306" y="554" type="line"/>
      <point x="266" y="580" type="line"/>
      <point x="275" y="555"/>
      <point x="280" y="533"/>
      <point x="280" y="514" type="curve" smooth="yes"/>
      <point x="280" y="452"/>
      <point x="252" y="419"/>
      <point x="214" y="397" type="curve"/>
      <point x="180" y="411"/>
      <point x="151" y="415"/>
      <point x="120" y="415" type="curve" smooth="yes"/>
      <point x="73" y="415"/>
      <point x="39" y="403"/>
      <point x="39" y="366" type="curve" smooth="yes"/>
      <point x="39" y="339"/>
      <point x="58" y="314"/>
      <point x="124" y="314" type="curve" smooth="yes"/>
      <point x="167" y="314"/>
      <point x="193" y="321"/>
      <point x="209" y="328" type="curve"/>
      <point x="272" y="296"/>
      <point x="295" y="240"/>
      <point x="295" y="189" type="curve" smooth="yes"/>
      <point x="295" y="104"/>
      <point x="250" y="70"/>
      <point x="174" y="70" type="curve" smooth="yes"/>
      <point x="128" y="70"/>
      <point x="91" y="83"/>
      <point x="40" y="115" type="curve"/>
      <point x="11" y="49" type="line"/>
      <point x="68" y="15"/>
      <point x="124" y="0"/>
    </contour>
  </outline>
</glyph>
<glyph name="thaguru" format="2">
  <advance width="455"/>
  <unicode hex="0A25"/>
  <outline>
    <contour>
      <point x="316" y="0" type="line"/>
      <point x="391" y="0" type="line"/>
      <point x="391" y="554" type="line"/>
      <point x="462" y="554" type="line"/>
      <point x="462" y="622" type="line"/>
      <point x="105" y="622" type="line"/>
      <point x="121" y="554" type="line"/>
      <point x="316" y="554" type="line"/>
      <point x="316" y="223" type="line"/>
      <point x="317" y="238" type="line"/>
      <point x="289" y="217"/>
      <point x="264" y="204"/>
      <point x="224" y="204" type="curve" smooth="yes"/>
      <point x="162" y="204"/>
      <point x="128" y="257"/>
      <point x="104" y="355" type="curve"/>
      <point x="98" y="314" type="line"/>
      <point x="132" y="351"/>
      <point x="157" y="391"/>
      <point x="157" y="462" type="curve" smooth="yes"/>
      <point x="157" y="512"/>
      <point x="141" y="569"/>
      <point x="120" y="622" type="curve"/>
      <point x="-7" y="622" type="line"/>
      <point x="-7" y="554" type="line"/>
      <point x="63" y="554" type="line"/>
      <point x="74" y="523"/>
      <point x="82" y="492"/>
      <point x="82" y="461" type="curve" smooth="yes"/>
      <point x="82" y="409"/>
      <point x="57" y="370"/>
      <point x="28" y="333" type="curve"/>
      <point x="68" y="191"/>
      <point x="128" y="134"/>
      <point x="221" y="134" type="curve" smooth="yes"/>
      <point x="265" y="134"/>
      <point x="297" y="145"/>
      <point x="324" y="163" type="curve"/>
      <point x="316" y="183" type="line"/>
    </contour>
    <contour>
      <point x="118" y="358" type="line"/>
      <point x="355" y="358" type="line"/>
      <point x="355" y="425" type="line"/>
      <point x="118" y="425" type="line"/>
    </contour>
  </outline>
</glyph>
<glyph name="daguru" format="2">
  <advance width="461"/>
  <unicode hex="0A26"/>
  <outline>
    <contour>
      <point x="298" y="0" type="curve" smooth="yes"/>
      <point x="340" y="0"/>
      <point x="394" y="11"/>
      <point x="438" y="35" type="curve"/>
      <point x="412" y="102" type="line"/>
      <point x="372" y="79"/>
      <point x="337" y="70"/>
      <point x="300" y="70" type="curve" smooth="yes"/>
      <point x="209" y="70"/>
      <point x="151" y="112"/>
      <point x="151" y="293" type="curve"/>
      <point x="375" y="293" type="line"/>
      <point x="397" y="321" type="line"/>
      <point x="397" y="554" type="line"/>
      <point x="468" y="554" type="line"/>
      <point x="468" y="622" type="line"/>
      <point x="-7" y="622" type="line"/>
      <point x="-7" y="554" type="line"/>
      <point x="322" y="554" type="line"/>
      <point x="322" y="361" type="line"/>
      <point x="151" y="361" type="line"/>
      <point x="151" y="397" type="line" smooth="yes"/>
      <point x="151" y="422"/>
      <point x="140" y="439"/>
      <point x="118" y="439" type="curve" smooth="yes"/>
      <point x="73" y="439"/>
      <point x="24" y="372"/>
      <point x="24" y="329" type="curve" smooth="yes"/>
      <point x="24" y="309"/>
      <point x="35" y="292"/>
      <point x="71" y="292" type="curve" smooth="yes"/>
      <point x="76" y="292" type="line"/>
      <point x="76" y="276" type="line" smooth="yes"/>
      <point x="76" y="95"/>
      <point x="148" y="0"/>
    </contour>
  </outline>
</glyph>
<glyph name="dhaguru" format="2">
  <advance width="450"/>
  <unicode hex="0A27"/>
  <outline>
    <contour>
      <point x="311" y="0" type="line"/>
      <point x="386" y="0" type="line"/>
      <point x="386" y="554" type="line"/>
      <point x="457" y="554" type="line"/>
      <point x="457" y="622" type="line"/>
      <point x="105" y="622" type="line"/>
      <point x="121" y="554" type="line"/>
      <point x="311" y="554" type="line"/>
      <point x="311" y="223" type="line"/>
      <point x="317" y="238" type="line"/>
      <point x="289" y="217"/>
      <point x="264" y="204"/>
      <point x="224" y="204" type="curve" smooth="yes"/>
      <point x="162" y="204"/>
      <point x="128" y="257"/>
      <point x="104" y="355" type="curve"/>
      <point x="98" y="314" type="line"/>
      <point x="132" y="350"/>
      <point x="157" y="391"/>
      <point x="157" y="462" type="curve" smooth="yes"/>
      <point x="157" y="512"/>
      <point x="141" y="569"/>
      <point x="120" y="622" type="curve"/>
      <point x="-7" y="622" type="line"/>
      <point x="-7" y="554" type="line"/>
      <point x="63" y="554" type="line"/>
      <point x="74" y="523"/>
      <point x="82" y="492"/>
      <point x="82" y="461" type="curve" smooth="yes"/>
      <point x="82" y="409"/>
      <point x="57" y="370"/>
      <point x="28" y="333" type="curve"/>
      <point x="68" y="191"/>
      <point x="128" y="134"/>
      <point x="221" y="134" type="curve" smooth="yes"/>
      <point x="265" y="134"/>
      <point x="297" y="145"/>
      <point x="324" y="163" type="curve"/>
      <point x="311" y="183" type="line"/>
    </contour>
  </outline>
</glyph>
<glyph name="naguru" format="2">
  <advance width="486"/>
  <unicode hex="0A28"/>
  <outline>
    <contour>
      <point x="184" y="-1" type="curve"/>
      <point x="197" y="68" type="line"/>
      <point x="142" y="79"/>
      <point x="107" y="119"/>
      <point x="107" y="190" type="curve" smooth="yes"/>
      <point x="107" y="283"/>
      <point x="164" y="339"/>
      <point x="243" y="380" type="curve"/>
      <point x="322" y="339"/>
      <point x="379" y="283"/>
      <point x="379" y="190" type="curve" smooth="yes"/>
      <point x="379" y="119"/>
      <point x="344" y="79"/>
      <point x="289" y="68" type="curve"/>
      <point x="302" y="-1" type="line"/>
      <point x="411" y="20"/>
      <point x="455" y="97"/>
      <point x="455" y="190" type="curve" smooth="yes"/>
      <point x="455" y="293"/>
      <point x="395" y="379"/>
      <point x="280" y="438" type="curve"/>
      <point x="280" y="554" type="line"/>
      <point x="493" y="554" type="line"/>
      <point x="493" y="622" type="line"/>
      <point x="-7" y="622" type="line"/>
      <point x="-7" y="554" type="line"/>
      <point x="206" y="554" type="line"/>
      <point x="206" y="438" type="line"/>
      <point x="91" y="379"/>
      <point x="31" y="293"/>
      <point x="31" y="190" type="curve" smooth="yes"/>
      <point x="31" y="97"/>
      <point x="75" y="20"/>
    </contour>
  </outline>
</glyph>
<glyph name="phaguru" format="2">
  <advance width="439"/>
  <unicode hex="0A2B"/>
  <outline>
    <contour>
      <point x="254" y="0" type="curve" smooth="yes"/>
      <point x="357" y="0"/>
      <point x="406" y="48"/>
      <point x="406" y="119" type="curve" smooth="yes"/>
      <point x="406" y="176"/>
      <point x="367" y="232"/>
      <point x="277" y="232" type="curve" smooth="yes"/>
      <point x="201" y="232"/>
      <point x="136" y="185"/>
      <point x="78" y="114" type="curve"/>
      <point x="127" y="76" type="line"/>
      <point x="172" y="128"/>
      <point x="217" y="165"/>
      <point x="274" y="165" type="curve" smooth="yes"/>
      <point x="311" y="165"/>
      <point x="332" y="147"/>
      <point x="332" y="117" type="curve" smooth="yes"/>
      <point x="332" y="84"/>
      <point x="308" y="67"/>
      <point x="255" y="67" type="curve" smooth="yes"/>
      <point x="157" y="67"/>
      <point x="104" y="165"/>
      <point x="104" y="256" type="curve" smooth="yes"/>
      <point x="104" y="289"/>
      <point x="113" y="310"/>
      <point x="128" y="324" type="curve" smooth="yes"/>
      <point x="152" y="346"/>
      <point x="183" y="352"/>
      <point x="257" y="352" type="curve" smooth="yes"/>
      <point x="350" y="352" type="line"/>
      <point x="373" y="380" type="line"/>
      <point x="373" y="554" type="line"/>
      <point x="446" y="554" type="line"/>
      <point x="446" y="622" type="line"/>
      <point x="-7" y="622" type="line"/>
      <point x="-7" y="554" type="line"/>
      <point x="298" y="554" type="line"/>
      <point x="298" y="420" type="line"/>
      <point x="248" y="420" type="line" smooth="yes"/>
      <point x="152" y="420"/>
      <point x="111" y="407"/>
      <point x="75" y="376" type="curve" smooth="yes"/>
      <point x="46" y="351"/>
      <point x="29" y="314"/>
      <point x="29" y="262" type="curve" smooth="yes"/>
      <point x="29" y="133"/>
      <point x="110" y="0"/>
    </contour>
  </outline>
</glyph>
<glyph name="baguru" format="2">
  <advance width="458"/>
  <unicode hex="0A2C"/>
  <outline>
    <contour>
      <point x="30" y="247" type="curve"/>
      <point x="74" y="130"/>
      <point x="125" y="70"/>
      <point x="232" y="70" type="curve" smooth="yes"/>
      <point x="263" y="70"/>
      <point x="298" y="74"/>
      <point x="332" y="93" type="curve"/>
      <point x="334" y="168" type="line"/>
      <point x="304" y="151"/>
      <point x="273" y="141"/>
      <point x="235" y="141" type="curve" smooth="yes"/>
      <point x="171" y="141"/>
      <point x="135" y="174"/>
      <point x="103" y="267" type="curve"/>
      <point x="105" y="225" type="line"/>
      <point x="142" y="295"/>
      <point x="182" y="324"/>
      <point x="260" y="324" type="curve" smooth="yes"/>
      <point x="325" y="324" type="line"/>
      <point x="327" y="391" type="line"/>
      <point x="255" y="391" type="line" smooth="yes"/>
      <point x="204" y="391"/>
      <point x="181" y="395"/>
      <point x="160" y="412" type="curve" smooth="yes"/>
      <point x="133" y="434"/>
      <point x="120" y="481"/>
      <point x="120" y="561" type="curve"/>
      <point x="97" y="554" type="line"/>
      <point x="412" y="554" type="line"/>
      <point x="412" y="622" type="line"/>
      <point x="-7" y="622" type="line"/>
      <point x="-7" y="554" type="line"/>
      <point x="65" y="554" type="line"/>
      <point x="44" y="564" type="line"/>
      <point x="44" y="435"/>
      <point x="79" y="369"/>
      <point x="161" y="341" type="curve"/>
      <point x="164" y="361" type="line"/>
      <point x="104" y="349"/>
      <point x="64" y="309"/>
    </contour>
    <contour>
      <point x="319" y="0" type="line"/>
      <point x="394" y="0" type="line"/>
      <point x="394" y="554" type="line"/>
      <point x="465" y="554" type="line"/>
      <point x="465" y="622" type="line"/>
      <point x="246" y="622" type="line"/>
      <point x="246" y="554" type="line"/>
      <point x="319" y="554" type="line"/>
    </contour>
  </outline>
</glyph>
<glyph name="bhaguru" format="2">
  <advance width="437"/>
  <unicode hex="0A2D"/>
  <outline>
    <contour>
      <point x="177" y="0" type="curve" smooth="yes"/>
      <point x="310" y="0"/>
      <point x="393" y="61"/>
      <point x="393" y="207" type="curve" smooth="yes"/>
      <point x="393" y="261"/>
      <point x="376" y="322"/>
      <point x="342" y="369" type="curve"/>
      <point x="328" y="382" type="line"/>
      <point x="289" y="433"/>
      <point x="239" y="461"/>
      <point x="179" y="461" type="curve" smooth="yes"/>
      <point x="94" y="461"/>
      <point x="48" y="411"/>
      <point x="48" y="343" type="curve" smooth="yes"/>
      <point x="48" y="276"/>
      <point x="98" y="227"/>
      <point x="181" y="227" type="curve" smooth="yes"/>
      <point x="241" y="227"/>
      <point x="280" y="249"/>
      <point x="316" y="292" type="curve"/>
      <point x="336" y="306" type="line"/>
      <point x="367" y="348"/>
      <point x="386" y="403"/>
      <point x="386" y="466" type="curve" smooth="yes"/>
      <point x="386" y="506"/>
      <point x="379" y="543"/>
      <point x="372" y="568" type="curve"/>
      <point x="349" y="554" type="line"/>
      <point x="444" y="554" type="line"/>
      <point x="444" y="622" type="line"/>
      <point x="-7" y="622" type="line"/>
      <point x="-7" y="554" type="line"/>
      <point x="334" y="554" type="line"/>
      <point x="289" y="581" type="line"/>
      <point x="303" y="545"/>
      <point x="312" y="511"/>
      <point x="312" y="464" type="curve" smooth="yes"/>
      <point x="312" y="403"/>
      <point x="287" y="294"/>
      <point x="188" y="294" type="curve" smooth="yes"/>
      <point x="144" y="294"/>
      <point x="122" y="313"/>
      <point x="122" y="345" type="curve" smooth="yes"/>
      <point x="122" y="370"/>
      <point x="136" y="394"/>
      <point x="182" y="394" type="curve" smooth="yes"/>
      <point x="263" y="394"/>
      <point x="318" y="304"/>
      <point x="318" y="204" type="curve" smooth="yes"/>
      <point x="318" y="104"/>
      <point x="264" y="69"/>
      <point x="181" y="69" type="curve" smooth="yes"/>
      <point x="128" y="69"/>
      <point x="90" y="85"/>
      <point x="40" y="116" type="curve"/>
      <point x="11" y="50" type="line"/>
      <point x="67" y="19"/>
      <point x="122" y="0"/>
    </contour>
  </outline>
</glyph>
<glyph name="maguru" format="2">
  <advance width="439"/>
  <unicode hex="0A2E"/>
  <outline>
    <contour>
      <point x="300" y="0" type="line"/>
      <point x="375" y="0" type="line"/>
      <point x="375" y="554" type="line"/>
      <point x="446" y="554" type="line"/>
      <point x="446" y="622" type="line"/>
      <point x="300" y="622" type="line"/>
      <point x="300" y="332" type="line"/>
      <point x="154" y="332" type="line"/>
      <point x="154" y="423"/>
      <point x="137" y="537"/>
      <point x="112" y="622" type="curve"/>
      <point x="-7" y="622" type="line"/>
      <point x="-7" y="554" type="line"/>
      <point x="51" y="554" type="line"/>
      <point x="71" y="473"/>
      <point x="82" y="375"/>
      <point x="85" y="289" type="curve"/>
      <point x="53" y="234"/>
      <point x="39" y="178"/>
      <point x="39" y="143" type="curve" smooth="yes"/>
      <point x="39" y="96"/>
      <point x="64" y="84"/>
      <point x="85" y="84" type="curve" smooth="yes"/>
      <point x="131" y="84"/>
      <point x="150" y="154"/>
      <point x="154" y="264" type="curve"/>
      <point x="300" y="264" type="line"/>
    </contour>
  </outline>
</glyph>
<glyph name="yaguru" format="2">
  <advance width="526"/>
  <unicode hex="0A2F"/>
  <outline>
    <contour>
      <point x="387" y="0" type="line"/>
      <point x="462" y="0" type="line"/>
      <point x="462" y="554" type="line"/>
      <point x="533" y="554" type="line"/>
      <point x="533" y="622" type="line"/>
      <point x="-7" y="622" type="line"/>
      <point x="-7" y="554" type="line"/>
      <point x="63" y="554" type="line"/>
      <point x="74" y="523"/>
      <point x="82" y="492"/>
      <point x="82" y="459" type="curve" smooth="yes"/>
      <point x="82" y="403"/>
      <point x="57" y="364"/>
      <point x="28" y="327" type="curve"/>
      <point x="70" y="181"/>
      <point x="130" y="126"/>
      <point x="222" y="126" type="curve" smooth="yes"/>
      <point x="247" y="126"/>
      <point x="277" y="129"/>
      <point x="305" y="139" type="curve"/>
      <point x="305" y="302" type="line"/>
      <point x="387" y="302" type="line"/>
    </contour>
    <contour>
      <point x="230" y="370" type="line"/>
      <point x="230" y="195" type="line"/>
      <point x="225" y="194"/>
      <point x="222" y="194"/>
      <point x="221" y="194" type="curve" smooth="yes"/>
      <point x="162" y="194"/>
      <point x="128" y="251"/>
      <point x="104" y="349" type="curve"/>
      <point x="98" y="308" type="line"/>
      <point x="132" y="344"/>
      <point x="157" y="385"/>
      <point x="157" y="460" type="curve" smooth="yes"/>
      <point x="157" y="495"/>
      <point x="151" y="522"/>
      <point x="143" y="554" type="curve"/>
      <point x="387" y="554" type="line"/>
      <point x="387" y="370" type="line"/>
    </contour>
  </outline>
</glyph>
<glyph name="raguru" format="2">
  <advance width="433"/>
  <unicode hex="0A30"/>
  <outline>
    <contour>
      <point x="240" y="0" type="curve" smooth="yes"/>
      <point x="330" y="0"/>
      <point x="369" y="59"/>
      <point x="369" y="146" type="curve" smooth="yes"/>
      <point x="369" y="554" type="line"/>
      <point x="440" y="554" type="line"/>
      <point x="440" y="622" type="line"/>
      <point x="-7" y="622" type="line"/>
      <point x="-7" y="554" type="line"/>
      <point x="294" y="554" type="line"/>
      <point x="294" y="405" type="line"/>
      <point x="212" y="405" type="line" smooth="yes"/>
      <point x="141" y="405"/>
      <point x="103" y="395"/>
      <point x="76" y="375" type="curve" smooth="yes"/>
      <point x="48" y="354"/>
      <point x="29" y="321"/>
      <point x="29" y="268" type="curve" smooth="yes"/>
      <point x="29" y="132"/>
      <point x="115" y="0"/>
    </contour>
    <contour>
      <point x="239" y="69" type="curve" smooth="yes"/>
      <point x="165" y="69"/>
      <point x="104" y="160"/>
      <point x="104" y="262" type="curve" smooth="yes"/>
      <point x="104" y="291"/>
      <point x="112" y="307"/>
      <point x="125" y="318" type="curve" smooth="yes"/>
      <point x="141" y="331"/>
      <point x="163" y="337"/>
      <point x="216" y="337" type="curve" smooth="yes"/>
      <point x="294" y="337" type="line"/>
      <point x="294" y="159" type="line" smooth="yes"/>
      <point x="294" y="114"/>
      <point x="290" y="96"/>
      <point x="279" y="84" type="curve" smooth="yes"/>
      <point x="270" y="74"/>
      <point x="257" y="69"/>
    </contour>
  </outline>
</glyph>
<glyph name="laguru" format="2">
  <advance width="506"/>
  <unicode hex="0A32"/>
  <outline>
    <contour>
      <point x="252" y="250" type="curve"/>
      <point x="354" y="325"/>
      <point x="405" y="426"/>
      <point x="420" y="554" type="curve"/>
      <point x="513" y="554" type="line"/>
      <point x="513" y="622" type="line"/>
      <point x="-7" y="622" type="line"/>
      <point x="-7" y="554" type="line"/>
      <point x="86" y="554" type="line"/>
      <point x="101" y="426"/>
      <point x="152" y="325"/>
    </contour>
    <contour>
      <point x="344" y="554" type="line"/>
      <point x="335" y="441"/>
      <point x="292" y="373"/>
      <point x="242" y="329" type="curve"/>
      <point x="267" y="328" type="line"/>
      <point x="213" y="374"/>
      <point x="171" y="441"/>
      <point x="162" y="554" type="curve"/>
    </contour>
    <contour>
      <point x="31" y="190" type="curve" smooth="yes"/>
      <point x="31" y="97"/>
      <point x="73" y="22"/>
      <point x="190" y="-1" type="curve"/>
      <point x="191" y="-1" type="line"/>
      <point x="204" y="68" type="line"/>
      <point x="202" y="68" type="line"/>
      <point x="143" y="80"/>
      <point x="107" y="119"/>
      <point x="107" y="190" type="curve" smooth="yes"/>
      <point x="107" y="262"/>
      <point x="139" y="310"/>
      <point x="198" y="356" type="curve"/>
      <point x="161" y="411" type="line"/>
      <point x="83" y="359"/>
      <point x="31" y="286"/>
    </contour>
    <contour>
      <point x="475" y="190" type="curve" smooth="yes"/>
      <point x="475" y="286"/>
      <point x="423" y="359"/>
      <point x="345" y="411" type="curve"/>
      <point x="308" y="356" type="line"/>
      <point x="367" y="310"/>
      <point x="399" y="262"/>
      <point x="399" y="190" type="curve" smooth="yes"/>
      <point x="399" y="119"/>
      <point x="363" y="80"/>
      <point x="304" y="68" type="curve"/>
      <point x="302" y="68" type="line"/>
      <point x="315" y="-1" type="line"/>
      <point x="316" y="-1" type="line"/>
      <point x="433" y="22"/>
      <point x="475" y="97"/>
    </contour>
  </outline>
</glyph>
<glyph name="vaguru" format="2">
  <advance width="424"/>
  <unicode hex="0A35"/>
  <outline>
    <contour>
      <point x="366" y="198" type="line"/>
      <point x="366" y="266" type="line"/>
      <point x="231" y="266" type="line" smooth="yes"/>
      <point x="188" y="266"/>
      <point x="156" y="269"/>
      <point x="134" y="281" type="curve" smooth="yes"/>
      <point x="116" y="291"/>
      <point x="105" y="307"/>
      <point x="105" y="332" type="curve" smooth="yes"/>
      <point x="105" y="355"/>
      <point x="115" y="369"/>
      <point x="131" y="378" type="curve" smooth="yes"/>
      <point x="145" y="385"/>
      <point x="162" y="388"/>
      <point x="193" y="388" type="curve" smooth="yes"/>
      <point x="334" y="388" type="line"/>
      <point x="360" y="416" type="line"/>
      <point x="360" y="554" type="line"/>
      <point x="431" y="554" type="line"/>
      <point x="431" y="622" type="line"/>
      <point x="-7" y="622" type="line"/>
      <point x="-7" y="554" type="line"/>
      <point x="285" y="554" type="line"/>
      <point x="285" y="456" type="line"/>
      <point x="217" y="456" type="line" smooth="yes"/>
      <point x="153" y="456"/>
      <point x="119" y="451"/>
      <point x="88" y="435" type="curve" smooth="yes"/>
      <point x="52" y="416"/>
      <point x="29" y="386"/>
      <point x="29" y="333" type="curve" smooth="yes"/>
      <point x="29" y="288"/>
      <point x="48" y="256"/>
      <point x="81" y="233" type="curve" smooth="yes"/>
      <point x="116" y="209"/>
      <point x="168" y="198"/>
      <point x="235" y="198" type="curve" smooth="yes"/>
    </contour>
    <contour>
      <point x="254" y="0" type="curve" smooth="yes"/>
      <point x="302" y="0"/>
      <point x="336" y="7"/>
      <point x="375" y="18" type="curve"/>
      <point x="357" y="88" type="line"/>
      <point x="317" y="74"/>
      <point x="297" y="69"/>
      <point x="257" y="69" type="curve" smooth="yes"/>
      <point x="201" y="69"/>
      <point x="162" y="94"/>
      <point x="162" y="141" type="curve" smooth="yes"/>
      <point x="162" y="164"/>
      <point x="171" y="178"/>
      <point x="184" y="186" type="curve" smooth="yes"/>
      <point x="199" y="195"/>
      <point x="212" y="198"/>
      <point x="243" y="198" type="curve" smooth="yes"/>
      <point x="292" y="198" type="line"/>
      <point x="166" y="235" type="line"/>
      <point x="112" y="222"/>
      <point x="85" y="180"/>
      <point x="85" y="133" type="curve" smooth="yes"/>
      <point x="85" y="62"/>
      <point x="134" y="0"/>
    </contour>
  </outline>
</glyph>
<glyph name="sanuktaguru" format="2">
  <advance width="449"/>
  <unicode hex="0A36"/>
  <outline>
    <contour>
      <point x="310" y="0" type="line"/>
      <point x="385" y="0" type="line"/>
      <point x="385" y="554" type="line"/>
      <point x="456" y="554" type="line"/>
      <point x="456" y="622" type="line"/>
      <point x="-7" y="622" type="line"/>
      <point x="-7" y="554" type="line"/>
      <point x="51" y="554" type="line"/>
      <point x="71" y="473"/>
      <point x="82" y="375"/>
      <point x="85" y="289" type="curve"/>
      <point x="53" y="234"/>
      <point x="39" y="178"/>
      <point x="39" y="143" type="curve" smooth="yes"/>
      <point x="39" y="96"/>
      <point x="64" y="84"/>
      <point x="84" y="84" type="curve" smooth="yes"/>
      <point x="131" y="84"/>
      <point x="150" y="154"/>
      <point x="154" y="264" type="curve"/>
      <point x="310" y="264" type="line"/>
    </contour>
    <contour>
      <point x="154" y="332" type="line"/>
      <point x="154" y="394"/>
      <point x="145" y="473"/>
      <point x="128" y="554" type="curve"/>
      <point x="310" y="554" type="line"/>
      <point x="310" y="332" type="line"/>
    </contour>
    <contour>
      <point x="206" y="-9" type="curve" smooth="yes"/>
      <point x="238" y="-9"/>
      <point x="255" y="13"/>
      <point x="255" y="46" type="curve" smooth="yes"/>
      <point x="255" y="78"/>
      <point x="238" y="101"/>
      <point x="206" y="101" type="curve" smooth="yes"/>
      <point x="175" y="101"/>
      <point x="157" y="78"/>
      <point x="157" y="46" type="curve" smooth="yes"/>
      <point x="157" y="13"/>
      <point x="175" y="-9"/>
    </contour>
  </outline>
</glyph>
<glyph name="saguru" format="2">
  <advance width="443"/>
  <unicode hex="0A38"/>
  <outline>
    <contour>
      <point x="304" y="0" type="line"/>
      <point x="379" y="0" type="line"/>
      <point x="379" y="554" type="line"/>
      <point x="450" y="554" type="line"/>
      <point x="450" y="622" type="line"/>
      <point x="-7" y="622" type="line"/>
      <point x="-7" y="554" type="line"/>
      <point x="51" y="554" type="line"/>
      <point x="71" y="473"/>
      <point x="82" y="375"/>
      <point x="85" y="289" type="curve"/>
      <point x="53" y="234"/>
      <point x="39" y="178"/>
      <point x="39" y="143" type="curve" smooth="yes"/>
      <point x="39" y="96"/>
      <point x="64" y="84"/>
      <point x="84" y="84" type="curve" smooth="yes"/>
      <point x="131" y="84"/>
      <point x="150" y="154"/>
      <point x="154" y="264" type="curve"/>
      <point x="304" y="264" type="line"/>
    </contour>
    <contour>
      <point x="154" y="332" type="line"/>
      <point x="154" y="394"/>
      <point x="145" y="473"/>
      <point x="128" y="554" type="curve"/>
      <point x="304" y="554" type="line"/>
      <point x="304" y="332" type="line"/>
    </contour>
  </outline>
</glyph>
<glyph name="haguru" format="2">
  <advance width="433"/>
  <unicode hex="0A39"/>
  <outline>
    <contour>
      <point x="240" y="0" type="curve" smooth="yes"/>
      <point x="330" y="0"/>
      <point x="369" y="59"/>
      <point x="369" y="146" type="curve" smooth="yes"/>
      <point x="369" y="554" type="line"/>
      <point x="440" y="554" type="line"/>
      <point x="440" y="622" type="line"/>
      <point x="-7" y="622" type="line"/>
      <point x="-7" y="554" type="line"/>
      <point x="294" y="554" type="line"/>
      <point x="294" y="159" type="line" smooth="yes"/>
      <point x="294" y="114"/>
      <point x="290" y="97"/>
      <point x="279" y="84" type="curve" smooth="yes"/>
      <point x="270" y="74"/>
      <point x="257" y="69"/>
      <point x="239" y="69" type="curve" smooth="yes"/>
      <point x="165" y="69"/>
      <point x="104" y="160"/>
      <point x="104" y="260" type="curve" smooth="yes"/>
      <point x="104" y="316"/>
      <point x="131" y="337"/>
      <point x="174" y="337" type="curve" smooth="yes"/>
      <point x="185" y="337"/>
      <point x="198" y="336"/>
      <point x="205" y="335" type="curve"/>
      <point x="209" y="403" type="line"/>
      <point x="200" y="405"/>
      <point x="179" y="407"/>
      <point x="166" y="407" type="curve" smooth="yes"/>
      <point x="81" y="407"/>
      <point x="29" y="359"/>
      <point x="29" y="268" type="curve" smooth="yes"/>
      <point x="29" y="132"/>
      <point x="113" y="0"/>
    </contour>
  </outline>
</glyph>
<glyph name="nuktaguru" format="2">
  <unicode hex="0A3C"/>
  <outline>
    <contour>
      <point x="-283" y="-188" type="curve" smooth="yes"/>
      <point x="-251" y="-188"/>
      <point x="-234" y="-166"/>
      <point x="-234" y="-133" type="curve" smooth="yes"/>
      <point x="-234" y="-101"/>
      <point x="-251" y="-78"/>
      <point x="-283" y="-78" type="curve" smooth="yes"/>
      <point x="-314" y="-78"/>
      <point x="-332" y="-101"/>
      <point x="-332" y="-133" type="curve" smooth="yes"/>
      <point x="-332" y="-166"/>
      <point x="-314" y="-188"/>
    </contour>
  </outline>
</glyph>
<glyph name="aamatraguru" format="2">
  <advance width="183"/>
  <unicode hex="0A3E"/>
  <outline>
    <contour>
      <point x="52" y="261" type="line"/>
      <point x="127" y="261" type="line"/>
      <point x="127" y="554" type="line"/>
      <point x="190" y="554" type="line"/>
      <point x="190" y="622" type="line"/>
      <point x="-7" y="622" type="line"/>
      <point x="-7" y="554" type="line"/>
      <point x="52" y="554" type="line"/>
    </contour>
  </outline>
</glyph>
<glyph name="imatraguru" format="2">
  <advance width="203"/>
  <unicode hex="0A3F"/>
  <outline>
    <contour>
      <point x="64" y="0" type="line"/>
      <point x="139" y="0" type="line"/>
      <point x="139" y="554" type="line"/>
      <point x="210" y="554" type="line"/>
      <point x="210" y="622" type="line"/>
      <point x="139" y="622" type="line"/>
      <point x="139" y="665" type="line" smooth="yes"/>
      <point x="139" y="784"/>
      <point x="158" y="829"/>
      <point x="214" y="829" type="curve" smooth="yes"/>
      <point x="256" y="829"/>
      <point x="275" y="797"/>
      <point x="275" y="729" type="curve" smooth="yes"/>
      <point x="275" y="697"/>
      <point x="273" y="678"/>
      <point x="271" y="663" type="curve"/>
      <point x="344" y="656" type="line"/>
      <point x="347" y="678"/>
      <point x="350" y="701"/>
      <point x="350" y="736" type="curve" smooth="yes"/>
      <point x="350" y="853"/>
      <point x="287" y="896"/>
      <point x="214" y="896" type="curve" smooth="yes"/>
      <point x="108" y="896"/>
      <point x="64" y="822"/>
      <point x="64" y="685" type="curve" smooth="yes"/>
      <point x="64" y="622" type="line"/>
      <point x="-7" y="622" type="line"/>
      <point x="-7" y="554" type="line"/>
      <point x="64" y="554" type="line"/>
    </contour>
  </outline>
</glyph>
<glyph name="iimatraguru" format="2">
  <advance width="203"/>
  <unicode hex="0A40"/>
  <outline>
    <contour>
      <point x="64" y="0" type="line"/>
      <point x="139" y="0" type="line"/>
      <point x="139" y="554" type="line"/>
      <point x="210" y="554" type="line"/>
      <point x="210" y="622" type="line"/>
      <point x="139" y="622" type="line"/>
      <point x="139" y="690" type="line" smooth="yes"/>
      <point x="139" y="819"/>
      <point x="104" y="896"/>
      <point x="-5" y="896" type="curve" smooth="yes"/>
      <point x="-86" y="896"/>
      <point x="-147" y="843"/>
      <point x="-147" y="729" type="curve" smooth="yes"/>
      <point x="-147" y="701"/>
      <point x="-144" y="677"/>
      <point x="-141" y="656" type="curve"/>
      <point x="-68" y="663" type="line"/>
      <point x="-70" y="678"/>
      <point x="-72" y="697"/>
      <point x="-72" y="729" type="curve" smooth="yes"/>
      <point x="-72" y="800"/>
      <point x="-49" y="829"/>
      <point x="-6" y="829" type="curve" smooth="yes"/>
      <point x="58" y="829"/>
      <point x="64" y="756"/>
      <point x="64" y="665" type="curve" smooth="yes"/>
      <point x="64" y="622" type="line"/>
      <point x="-7" y="622" type="line"/>
      <point x="-7" y="554" type="line"/>
      <point x="64" y="554" type="line"/>
    </contour>
  </outline>
</glyph>
<glyph name="umatraguru" format="2">
  <unicode hex="0A41"/>
  <guideline x="-373" y="-54" angle="90"/>
  <outline>
    <contour>
      <point x="-231" y="-176" type="curve" smooth="yes"/>
      <point x="-163" y="-176"/>
      <point x="-111" y="-161"/>
      <point x="-78" y="-143" type="curve"/>
      <point x="-93" y="-77" type="line"/>
      <point x="-126" y="-95"/>
      <point x="-173" y="-108"/>
      <point x="-231" y="-108" type="curve" smooth="yes"/>
      <point x="-289" y="-108"/>
      <point x="-335" y="-95"/>
      <point x="-368" y="-77" type="curve"/>
      <point x="-383" y="-143" type="line"/>
      <point x="-349" y="-161"/>
      <point x="-299" y="-176"/>
    </contour>
  </outline>
</glyph>
<glyph name="uumatraguru" format="2">
  <unicode hex="0A42"/>
  <outline>
    <contour>
      <point x="-231" y="-151" type="curve" smooth="yes"/>
      <point x="-163" y="-151"/>
      <point x="-111" y="-136"/>
      <point x="-78" y="-118" type="curve"/>
      <point x="-93" y="-57" type="line"/>
      <point x="-126" y="-75"/>
      <point x="-173" y="-88"/>
      <point x="-231" y="-88" type="curve" smooth="yes"/>
      <point x="-289" y="-88"/>
      <point x="-335" y="-75"/>
      <point x="-368" y="-57" type="curve"/>
      <point x="-383" y="-118" type="line"/>
      <point x="-349" y="-136"/>
      <point x="-299" y="-151"/>
    </contour>
    <contour>
      <point x="-231" y="-278" type="curve" smooth="yes"/>
      <point x="-163" y="-278"/>
      <point x="-111" y="-263"/>
      <point x="-78" y="-245" type="curve"/>
      <point x="-93" y="-184" type="line"/>
      <point x="-126" y="-202"/>
      <point x="-173" y="-215"/>
      <point x="-231" y="-215" type="curve" smooth="yes"/>
      <point x="-289" y="-215"/>
      <point x="-335" y="-202"/>
      <point x="-368" y="-184" type="curve"/>
      <point x="-383" y="-245" type="line"/>
      <point x="-349" y="-263"/>
      <point x="-299" y="-278"/>
    </contour>
  </outline>
</glyph>
<glyph name="eematraguru" format="2">
  <unicode hex="0A47"/>
  <outline>
    <contour>
      <point x="-138" y="615" type="curve"/>
      <point x="-67" y="615" type="line"/>
      <point x="-96" y="816"/>
      <point x="-170" y="896"/>
      <point x="-284" y="896" type="curve" smooth="yes"/>
      <point x="-289" y="896"/>
      <point x="-294" y="896"/>
      <point x="-299" y="896" type="curve"/>
      <point x="-295" y="821" type="line"/>
      <point x="-292" y="821"/>
      <point x="-287" y="821"/>
      <point x="-276" y="821" type="curve" smooth="yes"/>
      <point x="-213" y="821"/>
      <point x="-166" y="773"/>
    </contour>
  </outline>
</glyph>
<glyph name="aimatraguru" format="2">
  <unicode hex="0A48"/>
  <outline>
    <contour>
      <point x="-114" y="610" type="curve"/>
      <point x="-60" y="615" type="line"/>
      <point x="-83" y="813"/>
      <point x="-159" y="896"/>
      <point x="-270" y="896" type="curve" smooth="yes"/>
      <point x="-274" y="896"/>
      <point x="-277" y="896"/>
      <point x="-281" y="896" type="curve"/>
      <point x="-278" y="823" type="line"/>
      <point x="-276" y="823"/>
      <point x="-272" y="823"/>
      <point x="-267" y="823" type="curve" smooth="yes"/>
      <point x="-196" y="823"/>
      <point x="-141" y="770"/>
    </contour>
    <contour>
      <point x="-126" y="578" type="curve"/>
      <point x="-95" y="604" type="line"/>
      <point x="-142" y="710"/>
      <point x="-191" y="760"/>
      <point x="-285" y="760" type="curve" smooth="yes"/>
      <point x="-289" y="760"/>
      <point x="-294" y="760"/>
      <point x="-299" y="760" type="curve"/>
      <point x="-296" y="687" type="line"/>
      <point x="-292" y="687"/>
      <point x="-285" y="687"/>
      <point x="-280" y="687" type="curve" smooth="yes"/>
      <point x="-210" y="687"/>
      <point x="-167" y="656"/>
    </contour>
  </outline>
</glyph>
<glyph name="oomatraguru" format="2">
  <unicode hex="0A4B"/>
  <outline>
    <contour>
      <point x="-136" y="615" type="curve"/>
      <point x="-67" y="615" type="line"/>
      <point x="-73" y="761"/>
      <point x="-120" y="799"/>
      <point x="-183" y="799" type="curve" smooth="yes"/>
      <point x="-194" y="799"/>
      <point x="-213" y="797"/>
      <point x="-226" y="797" type="curve" smooth="yes"/>
      <point x="-263" y="797"/>
      <point x="-278" y="827"/>
      <point x="-294" y="895" type="curve"/>
      <point x="-361" y="880" type="line"/>
      <point x="-336" y="763"/>
      <point x="-295" y="730"/>
      <point x="-236" y="730" type="curve" smooth="yes"/>
      <point x="-223" y="730"/>
      <point x="-206" y="732"/>
      <point x="-197" y="732" type="curve" smooth="yes"/>
      <point x="-158" y="732"/>
      <point x="-146" y="703"/>
    </contour>
  </outline>
</glyph>
<glyph name="aumatraguru" format="2">
  <unicode hex="0A4C"/>
  <outline>
    <contour>
      <point x="-197" y="679" type="curve"/>
      <point x="-134" y="690" type="line"/>
      <point x="-140" y="710"/>
      <point x="-144" y="727"/>
      <point x="-144" y="753" type="curve" smooth="yes"/>
      <point x="-144" y="786"/>
      <point x="-132" y="813"/>
      <point x="-100" y="813" type="curve" smooth="yes"/>
      <point x="-68" y="813"/>
      <point x="-56" y="786"/>
      <point x="-56" y="753" type="curve" smooth="yes"/>
      <point x="-56" y="727"/>
      <point x="-60" y="710"/>
      <point x="-66" y="690" type="curve"/>
      <point x="-3" y="679" type="line"/>
      <point x="5" y="703"/>
      <point x="10" y="732"/>
      <point x="10" y="756" type="curve" smooth="yes"/>
      <point x="10" y="830"/>
      <point x="-32" y="874"/>
      <point x="-100" y="874" type="curve" smooth="yes"/>
      <point x="-168" y="874"/>
      <point x="-210" y="830"/>
      <point x="-210" y="757" type="curve" smooth="yes"/>
      <point x="-210" y="732"/>
      <point x="-205" y="703"/>
    </contour>
    <contour>
      <point x="-225" y="768" type="curve" smooth="yes"/>
      <point x="-198" y="768"/>
      <point x="-171" y="782"/>
      <point x="-156" y="800" type="curve"/>
      <point x="-175" y="848" type="line"/>
      <point x="-189" y="833"/>
      <point x="-201" y="830"/>
      <point x="-216" y="830" type="curve" smooth="yes"/>
      <point x="-241" y="830"/>
      <point x="-257" y="854"/>
      <point x="-268" y="895" type="curve"/>
      <point x="-333" y="874" type="line"/>
      <point x="-315" y="795"/>
      <point x="-275" y="768"/>
    </contour>
  </outline>
</glyph>
<glyph name="halantguru" format="2">
  <unicode hex="0A4D"/>
  <outline>
    <contour>
      <point x="2" y="-246" type="curve"/>
      <point x="70" y="-229" type="line"/>
      <point x="32" y="-85"/>
      <point x="-43" y="-36"/>
      <point x="-130" y="-36" type="curve" smooth="yes"/>
      <point x="-136" y="-36"/>
      <point x="-143" y="-36"/>
      <point x="-150" y="-37" type="curve"/>
      <point x="-145" y="-108" type="line"/>
      <point x="-139" y="-108"/>
      <point x="-135" y="-108"/>
      <point x="-132" y="-108" type="curve" smooth="yes"/>
      <point x="-83" y="-108"/>
      <point x="-30" y="-134"/>
    </contour>
  </outline>
</glyph>
<glyph name="udaatguru" format="2">
  <unicode hex="0A51"/>
  <outline>
    <contour>
      <point x="77" y="-311" type="curve"/>
      <point x="82" y="-238" type="line"/>
      <point x="80" y="-238"/>
      <point x="77" y="-238"/>
      <point x="73" y="-238" type="curve" smooth="yes"/>
      <point x="6" y="-238"/>
      <point x="-38" y="-191"/>
      <point x="-68" y="-32" type="curve"/>
      <point x="-137" y="-48" type="line"/>
      <point x="-103" y="-222"/>
      <point x="-43" y="-312"/>
      <point x="66" y="-312" type="curve" smooth="yes"/>
      <point x="69" y="-312"/>
      <point x="72" y="-312"/>
    </contour>
  </outline>
</glyph>
<glyph name="januktaguru" format="2">
  <advance width="474"/>
  <unicode hex="0A5B"/>
  <outline>
    <contour>
      <point x="80" y="0" type="line"/>
      <point x="155" y="0" type="line"/>
      <point x="155" y="293" type="line"/>
      <point x="335" y="293" type="line"/>
      <point x="335" y="0" type="line"/>
      <point x="410" y="0" type="line"/>
      <point x="410" y="554" type="line"/>
      <point x="481" y="554" type="line"/>
      <point x="481" y="622" type="line"/>
      <point x="-7" y="622" type="line"/>
      <point x="-7" y="554" type="line"/>
      <point x="335" y="554" type="line"/>
      <point x="335" y="361" type="line"/>
      <point x="155" y="361" type="line"/>
      <point x="155" y="397" type="line" smooth="yes"/>
      <point x="155" y="422"/>
      <point x="144" y="439"/>
      <point x="122" y="439" type="curve" smooth="yes"/>
      <point x="77" y="439"/>
      <point x="28" y="372"/>
      <point x="28" y="329" type="curve" smooth="yes"/>
      <point x="28" y="309"/>
      <point x="39" y="292"/>
      <point x="75" y="292" type="curve" smooth="yes"/>
      <point x="80" y="292" type="line"/>
    </contour>
    <contour>
      <point x="245" y="-9" type="curve" smooth="yes"/>
      <point x="277" y="-9"/>
      <point x="294" y="13"/>
      <point x="294" y="46" type="curve" smooth="yes"/>
      <point x="294" y="78"/>
      <point x="277" y="101"/>
      <point x="245" y="101" type="curve" smooth="yes"/>
      <point x="214" y="101"/>
      <point x="196" y="78"/>
      <point x="196" y="46" type="curve" smooth="yes"/>
      <point x="196" y="13"/>
      <point x="214" y="-9"/>
    </contour>
  </outline>
</glyph>
<glyph name="rraguru" format="2">
  <advance width="428"/>
  <unicode hex="0A5C"/>
  <outline>
    <contour>
      <point x="205" y="81" type="curve" smooth="yes"/>
      <point x="310" y="81"/>
      <point x="392" y="134"/>
      <point x="392" y="232" type="curve" smooth="yes"/>
      <point x="392" y="299"/>
      <point x="349" y="347"/>
      <point x="297" y="376" type="curve"/>
      <point x="350" y="411"/>
      <point x="375" y="463"/>
      <point x="375" y="525" type="curve" smooth="yes"/>
      <point x="375" y="543"/>
      <point x="372" y="568"/>
      <point x="368" y="589" type="curve"/>
      <point x="355" y="554" type="line"/>
      <point x="435" y="554" type="line"/>
      <point x="435" y="622" type="line"/>
      <point x="-7" y="622" type="line"/>
      <point x="-7" y="554" type="line"/>
      <point x="313" y="554" type="line"/>
      <point x="286" y="591" type="line"/>
      <point x="295" y="566"/>
      <point x="300" y="544"/>
      <point x="300" y="522" type="curve" smooth="yes"/>
      <point x="300" y="463"/>
      <point x="272" y="430"/>
      <point x="234" y="408" type="curve"/>
      <point x="200" y="422"/>
      <point x="172" y="426"/>
      <point x="140" y="426" type="curve" smooth="yes"/>
      <point x="93" y="426"/>
      <point x="59" y="414"/>
      <point x="59" y="377" type="curve" smooth="yes"/>
      <point x="59" y="350"/>
      <point x="78" y="325"/>
      <point x="144" y="325" type="curve" smooth="yes"/>
      <point x="187" y="325"/>
      <point x="213" y="332"/>
      <point x="229" y="339" type="curve"/>
      <point x="285" y="315"/>
      <point x="315" y="276"/>
      <point x="315" y="232" type="curve" smooth="yes"/>
      <point x="315" y="175"/>
      <point x="275" y="149"/>
      <point x="205" y="149" type="curve" smooth="yes"/>
      <point x="157" y="149"/>
      <point x="106" y="163"/>
      <point x="55" y="192" type="curve"/>
      <point x="19" y="138" type="line"/>
      <point x="85" y="115" type="line"/>
      <point x="116" y="94"/>
      <point x="158" y="81"/>
    </contour>
    <contour>
      <point x="97" y="-18" type="curve"/>
      <point x="167" y="13" type="line"/>
      <point x="134" y="76"/>
      <point x="104" y="114"/>
      <point x="71" y="152" type="curve"/>
      <point x="19" y="138" type="line"/>
      <point x="44" y="98"/>
      <point x="74" y="38"/>
    </contour>
    <contour>
      <point x="316" y="-19" type="curve"/>
      <point x="386" y="12" type="line"/>
      <point x="360" y="58"/>
      <point x="328" y="104"/>
      <point x="295" y="143" type="curve"/>
      <point x="268" y="137" type="line"/>
      <point x="222" y="131" type="line"/>
      <point x="261" y="81"/>
      <point x="286" y="42"/>
    </contour>
  </outline>
</glyph>
<glyph name="zeroguru" format="2">
  <advance width="411"/>
  <unicode hex="0A66"/>
  <outline>
    <contour>
      <point x="206" y="80" type="curve" smooth="yes"/>
      <point x="319" y="80"/>
      <point x="381" y="171"/>
      <point x="381" y="315" type="curve" smooth="yes"/>
      <point x="381" y="460"/>
      <point x="319" y="551"/>
      <point x="205" y="551" type="curve" smooth="yes"/>
      <point x="93" y="551"/>
      <point x="30" y="460"/>
      <point x="30" y="316" type="curve" smooth="yes"/>
      <point x="30" y="172"/>
      <point x="92" y="80"/>
    </contour>
    <contour>
      <point x="205" y="150" type="curve" smooth="yes"/>
      <point x="136" y="150"/>
      <point x="106" y="213"/>
      <point x="106" y="313" type="curve" smooth="yes"/>
      <point x="106" y="413"/>
      <point x="134" y="481"/>
      <point x="207" y="481" type="curve" smooth="yes"/>
      <point x="275" y="481"/>
      <point x="305" y="418"/>
      <point x="305" y="317" type="curve" smooth="yes"/>
      <point x="305" y="218"/>
      <point x="278" y="150"/>
    </contour>
  </outline>
</glyph>
<glyph name="oneguru" format="2">
  <advance width="411"/>
  <unicode hex="0A67"/>
  <outline>
    <contour>
      <point x="379" y="0" type="curve"/>
      <point x="389" y="70" type="line"/>
      <point x="342" y="72"/>
      <point x="329" y="97"/>
      <point x="329" y="151" type="curve"/>
      <point x="329" y="470" type="line" smooth="yes"/>
      <point x="329" y="530"/>
      <point x="315" y="573"/>
      <point x="284" y="600" type="curve" smooth="yes"/>
      <point x="260" y="621"/>
      <point x="231" y="631"/>
      <point x="188" y="631" type="curve" smooth="yes"/>
      <point x="94" y="631"/>
      <point x="43" y="561"/>
      <point x="43" y="464" type="curve" smooth="yes"/>
      <point x="43" y="358"/>
      <point x="96" y="299"/>
      <point x="181" y="299" type="curve" smooth="yes"/>
      <point x="217" y="299"/>
      <point x="249" y="308"/>
      <point x="281" y="333" type="curve"/>
      <point x="265" y="401" type="line"/>
      <point x="246" y="383"/>
      <point x="223" y="368"/>
      <point x="186" y="368" type="curve" smooth="yes"/>
      <point x="141" y="368"/>
      <point x="118" y="398"/>
      <point x="118" y="464" type="curve" smooth="yes"/>
      <point x="118" y="528"/>
      <point x="144" y="562"/>
      <point x="188" y="562" type="curve" smooth="yes"/>
      <point x="209" y="562"/>
      <point x="222" y="556"/>
      <point x="233" y="545" type="curve" smooth="yes"/>
      <point x="249" y="529"/>
      <point x="254" y="499"/>
      <point x="254" y="459" type="curve" smooth="yes"/>
      <point x="254" y="157" type="line" smooth="yes"/>
      <point x="254" y="103"/>
      <point x="262" y="67"/>
      <point x="288" y="39" type="curve" smooth="yes"/>
      <point x="309" y="16"/>
      <point x="337" y="3"/>
    </contour>
  </outline>
</glyph>
<glyph name="twoguru" format="2">
  <advance width="411"/>
  <unicode hex="0A68"/>
  <outline>
    <contour>
      <point x="144" y="153" type="curve" smooth="yes"/>
      <point x="257" y="153"/>
      <point x="356" y="249"/>
      <point x="356" y="407" type="curve" smooth="yes"/>
      <point x="356" y="541"/>
      <point x="293" y="630"/>
      <point x="165" y="630" type="curve" smooth="yes"/>
      <point x="117" y="630"/>
      <point x="78" y="622"/>
      <point x="31" y="604" type="curve"/>
      <point x="55" y="539" type="line"/>
      <point x="91" y="553"/>
      <point x="123" y="560"/>
      <point x="160" y="560" type="curve" smooth="yes"/>
      <point x="238" y="560"/>
      <point x="280" y="508"/>
      <point x="280" y="407" type="curve" smooth="yes"/>
      <point x="280" y="300"/>
      <point x="219" y="221"/>
      <point x="125" y="218" type="curve"/>
      <point x="169" y="201" type="line"/>
      <point x="211" y="217" type="line"/>
      <point x="175" y="249"/>
      <point x="142" y="263"/>
      <point x="106" y="263" type="curve" smooth="yes"/>
      <point x="66" y="263"/>
      <point x="43" y="245"/>
      <point x="43" y="216" type="curve" smooth="yes"/>
      <point x="43" y="167"/>
      <point x="92" y="153"/>
    </contour>
    <contour>
      <point x="329" y="-17" type="curve"/>
      <point x="389" y="31" type="line"/>
      <point x="332" y="103"/>
      <point x="263" y="171"/>
      <point x="215" y="204" type="curve"/>
      <point x="188" y="192" type="line"/>
      <point x="137" y="186" type="line"/>
      <point x="199" y="137"/>
      <point x="266" y="66"/>
    </contour>
  </outline>
</glyph>
<glyph name="threeguru" format="2">
  <advance width="411"/>
  <unicode hex="0A69"/>
  <guideline x="265" y="-64" angle="0"/>
  <outline>
    <contour>
      <point x="323" y="-60" type="curve"/>
      <point x="381" y="-13" type="line"/>
      <point x="327" y="45"/>
      <point x="272" y="91"/>
      <point x="229" y="118" type="curve"/>
      <point x="144" y="108" type="line"/>
      <point x="201" y="67"/>
      <point x="279" y="-9"/>
    </contour>
    <contour>
      <point x="266" y="348" type="line"/>
      <point x="327" y="378"/>
      <point x="361" y="423"/>
      <point x="361" y="487" type="curve" smooth="yes"/>
      <point x="361" y="573"/>
      <point x="297" y="631"/>
      <point x="193" y="631" type="curve" smooth="yes"/>
      <point x="134" y="631"/>
      <point x="82" y="621"/>
      <point x="35" y="603" type="curve"/>
      <point x="58" y="538" type="line"/>
      <point x="94" y="552"/>
      <point x="139" y="560"/>
      <point x="186" y="560" type="curve" smooth="yes"/>
      <point x="254" y="560"/>
      <point x="285" y="536"/>
      <point x="285" y="484" type="curve" smooth="yes"/>
      <point x="285" y="440"/>
      <point x="252" y="400"/>
      <point x="190" y="386" type="curve"/>
      <point x="254" y="383" type="line"/>
      <point x="211" y="407"/>
      <point x="174" y="417"/>
      <point x="139" y="417" type="curve" smooth="yes"/>
      <point x="102" y="417"/>
      <point x="69" y="405"/>
      <point x="69" y="371" type="curve" smooth="yes"/>
      <point x="69" y="345"/>
      <point x="85" y="318"/>
      <point x="150" y="318" type="curve" smooth="yes"/>
      <point x="182" y="318"/>
      <point x="217" y="322"/>
      <point x="248" y="338" type="curve"/>
      <point x="188" y="336" type="line"/>
      <point x="254" y="326"/>
      <point x="289" y="287"/>
      <point x="289" y="237" type="curve" smooth="yes"/>
      <point x="289" y="185"/>
      <point x="249" y="143"/>
      <point x="157" y="142" type="curve"/>
      <point x="230" y="130" type="line"/>
      <point x="189" y="158"/>
      <point x="145" y="178"/>
      <point x="105" y="178" type="curve" smooth="yes"/>
      <point x="60" y="178"/>
      <point x="40" y="160"/>
      <point x="40" y="134" type="curve" smooth="yes"/>
      <point x="40" y="88"/>
      <point x="92" y="76"/>
      <point x="153" y="76" type="curve" smooth="yes"/>
      <point x="266" y="76"/>
      <point x="364" y="125"/>
      <point x="364" y="236" type="curve" smooth="yes"/>
      <point x="364" y="310"/>
      <point x="322" y="350"/>
      <point x="263" y="375" type="curve"/>
    </contour>
  </outline>
</glyph>
<glyph name="fourguru" format="2">
  <advance width="411"/>
  <unicode hex="0A6A"/>
  <outline>
    <contour>
      <point x="205" y="278" type="curve" smooth="yes"/>
      <point x="318" y="278"/>
      <point x="377" y="349"/>
      <point x="377" y="455" type="curve" smooth="yes"/>
      <point x="377" y="524"/>
      <point x="343" y="603"/>
      <point x="252" y="627" type="curve"/>
      <point x="235" y="561" type="line"/>
      <point x="272" y="549"/>
      <point x="302" y="509"/>
      <point x="302" y="450" type="curve" smooth="yes"/>
      <point x="302" y="375"/>
      <point x="274" y="337"/>
      <point x="204" y="337" type="curve" smooth="yes"/>
      <point x="133" y="337"/>
      <point x="109" y="383"/>
      <point x="109" y="450" type="curve" smooth="yes"/>
      <point x="109" y="506"/>
      <point x="136" y="547"/>
      <point x="177" y="561" type="curve"/>
      <point x="159" y="627" type="line"/>
      <point x="69" y="603"/>
      <point x="34" y="523"/>
      <point x="34" y="455" type="curve" smooth="yes"/>
      <point x="34" y="349"/>
      <point x="94" y="278"/>
    </contour>
    <contour>
      <point x="206" y="-7" type="curve" smooth="yes"/>
      <point x="309" y="-7"/>
      <point x="364" y="61"/>
      <point x="364" y="163" type="curve" smooth="yes"/>
      <point x="364" y="265"/>
      <point x="297" y="321"/>
      <point x="205" y="321" type="curve" smooth="yes"/>
      <point x="115" y="321"/>
      <point x="47" y="268"/>
      <point x="47" y="167" type="curve" smooth="yes"/>
      <point x="47" y="63"/>
      <point x="103" y="-7"/>
    </contour>
    <contour>
      <point x="205" y="61" type="curve" smooth="yes"/>
      <point x="149" y="61"/>
      <point x="123" y="100"/>
      <point x="123" y="165" type="curve" smooth="yes"/>
      <point x="123" y="229"/>
      <point x="148" y="268"/>
      <point x="207" y="268" type="curve" smooth="yes"/>
      <point x="259" y="268"/>
      <point x="288" y="232"/>
      <point x="288" y="167" type="curve" smooth="yes"/>
      <point x="288" y="102"/>
      <point x="265" y="61"/>
    </contour>
  </outline>
</glyph>
<glyph name="fiveguru" format="2">
  <advance width="411"/>
  <unicode hex="0A6B"/>
  <outline>
    <contour>
      <point x="277" y="0" type="line"/>
      <point x="352" y="0" type="line"/>
      <point x="352" y="622" type="line"/>
      <point x="277" y="622" type="line"/>
      <point x="277" y="237" type="line"/>
      <point x="301" y="255" type="line"/>
      <point x="273" y="234"/>
      <point x="251" y="228"/>
      <point x="219" y="228" type="curve" smooth="yes"/>
      <point x="158" y="228"/>
      <point x="126" y="277"/>
      <point x="101" y="369" type="curve"/>
      <point x="95" y="329" type="line"/>
      <point x="129" y="365"/>
      <point x="154" y="406"/>
      <point x="154" y="478" type="curve" smooth="yes"/>
      <point x="154" y="531"/>
      <point x="140" y="582"/>
      <point x="117" y="631" type="curve"/>
      <point x="44" y="607" type="line"/>
      <point x="71" y="555"/>
      <point x="79" y="512"/>
      <point x="79" y="478" type="curve" smooth="yes"/>
      <point x="79" y="424"/>
      <point x="54" y="385"/>
      <point x="25" y="349" type="curve"/>
      <point x="64" y="217"/>
      <point x="123" y="158"/>
      <point x="216" y="158" type="curve" smooth="yes"/>
      <point x="253" y="158"/>
      <point x="288" y="167"/>
      <point x="315" y="185" type="curve"/>
      <point x="277" y="196" type="line"/>
    </contour>
  </outline>
</glyph>
<glyph name="sixguru" format="2">
  <advance width="411"/>
  <unicode hex="0A6C"/>
  <outline>
    <contour>
      <point x="255" y="511" type="curve"/>
      <point x="326" y="521" type="line"/>
      <point x="296" y="561"/>
      <point x="274" y="601"/>
      <point x="274" y="653" type="curve" smooth="yes"/>
      <point x="274" y="690"/>
      <point x="297" y="718"/>
      <point x="339" y="718" type="curve" smooth="yes"/>
      <point x="347" y="718"/>
      <point x="359" y="717"/>
      <point x="371" y="715" type="curve"/>
      <point x="379" y="781" type="line"/>
      <point x="363" y="784"/>
      <point x="347" y="785"/>
      <point x="335" y="785" type="curve" smooth="yes"/>
      <point x="244" y="785"/>
      <point x="199" y="727"/>
      <point x="199" y="660" type="curve" smooth="yes"/>
      <point x="199" y="601"/>
      <point x="223" y="555"/>
    </contour>
    <contour>
      <point x="357" y="89" type="line"/>
      <point x="322" y="70"/>
      <point x="282" y="61"/>
      <point x="238" y="61" type="curve" smooth="yes"/>
      <point x="175" y="61"/>
      <point x="129" y="86"/>
      <point x="129" y="157" type="curve" smooth="yes"/>
      <point x="129" y="206"/>
      <point x="162" y="245"/>
      <point x="218" y="262" type="curve"/>
      <point x="158" y="264" type="line"/>
      <point x="201" y="240"/>
      <point x="245" y="229"/>
      <point x="276" y="229" type="curve" smooth="yes"/>
      <point x="310" y="229"/>
      <point x="342" y="239"/>
      <point x="342" y="278" type="curve" smooth="yes"/>
      <point x="342" y="302"/>
      <point x="325" y="330"/>
      <point x="262" y="330" type="curve" smooth="yes"/>
      <point x="228" y="330"/>
      <point x="196" y="324"/>
      <point x="163" y="311" type="curve"/>
      <point x="228" y="310" type="line"/>
      <point x="155" y="329"/>
      <point x="130" y="359"/>
      <point x="130" y="408" type="curve" smooth="yes"/>
      <point x="130" y="461"/>
      <point x="171" y="495"/>
      <point x="268" y="495" type="curve" smooth="yes"/>
      <point x="273" y="495"/>
      <point x="280" y="494"/>
      <point x="291" y="491" type="curve"/>
      <point x="239" y="517" type="line"/>
      <point x="252" y="478"/>
      <point x="287" y="449"/>
      <point x="325" y="449" type="curve" smooth="yes"/>
      <point x="354" y="449"/>
      <point x="375" y="463"/>
      <point x="375" y="495" type="curve" smooth="yes"/>
      <point x="375" y="537"/>
      <point x="335" y="562"/>
      <point x="258" y="562" type="curve" smooth="yes"/>
      <point x="145" y="562"/>
      <point x="53" y="510"/>
      <point x="53" y="409" type="curve" smooth="yes"/>
      <point x="53" y="337"/>
      <point x="95" y="293"/>
      <point x="155" y="269" type="curve"/>
      <point x="150" y="298" type="line"/>
      <point x="88" y="269"/>
      <point x="53" y="214"/>
      <point x="53" y="155" type="curve" smooth="yes"/>
      <point x="53" y="55"/>
      <point x="118" y="-8"/>
      <point x="229" y="-8" type="curve" smooth="yes"/>
      <point x="286" y="-8"/>
      <point x="337" y="1"/>
      <point x="382" y="25" type="curve"/>
    </contour>
  </outline>
</glyph>
<glyph name="sevenguru" format="2">
  <advance width="411"/>
  <unicode hex="0A6D"/>
  <outline>
    <contour>
      <point x="23" y="-8" type="line"/>
      <point x="222" y="10"/>
      <point x="368" y="143"/>
      <point x="368" y="370" type="curve" smooth="yes"/>
      <point x="368" y="527"/>
      <point x="307" y="631"/>
      <point x="196" y="631" type="curve" smooth="yes"/>
      <point x="98" y="631"/>
      <point x="47" y="561"/>
      <point x="47" y="475" type="curve" smooth="yes"/>
      <point x="47" y="419"/>
      <point x="72" y="363"/>
      <point x="98" y="320" type="curve"/>
      <point x="163" y="354" type="line"/>
      <point x="138" y="391"/>
      <point x="121" y="427"/>
      <point x="121" y="472" type="curve" smooth="yes"/>
      <point x="121" y="531"/>
      <point x="153" y="562"/>
      <point x="193" y="562" type="curve" smooth="yes"/>
      <point x="260" y="562"/>
      <point x="291" y="486"/>
      <point x="291" y="369" type="curve" smooth="yes"/>
      <point x="291" y="186"/>
      <point x="176" y="81"/>
      <point x="18" y="63" type="curve"/>
    </contour>
  </outline>
</glyph>
<glyph name="eightguru" format="2">
  <advance width="411"/>
  <unicode hex="0A6E"/>
  <outline>
    <contour>
      <point x="312" y="0" type="curve" smooth="yes"/>
      <point x="335" y="0"/>
      <point x="361" y="2"/>
      <point x="385" y="6" type="curve"/>
      <point x="378" y="75" type="line"/>
      <point x="359" y="71"/>
      <point x="341" y="69"/>
      <point x="317" y="69" type="curve" smooth="yes"/>
      <point x="258" y="69"/>
      <point x="228" y="85"/>
      <point x="205" y="111" type="curve" smooth="yes"/>
      <point x="171" y="149"/>
      <point x="163" y="206"/>
      <point x="163" y="314" type="curve" smooth="yes"/>
      <point x="163" y="478" type="line"/>
      <point x="382" y="478" type="line"/>
      <point x="382" y="546" type="line"/>
      <point x="163" y="546" type="line"/>
      <point x="163" y="586" type="line" smooth="yes"/>
      <point x="163" y="611"/>
      <point x="152" y="628"/>
      <point x="129" y="628" type="curve" smooth="yes"/>
      <point x="83" y="628"/>
      <point x="32" y="557"/>
      <point x="32" y="515" type="curve" smooth="yes"/>
      <point x="32" y="494"/>
      <point x="43" y="477"/>
      <point x="79" y="477" type="curve" smooth="yes"/>
      <point x="88" y="477" type="line"/>
      <point x="88" y="301" type="line" smooth="yes"/>
      <point x="88" y="167"/>
      <point x="105" y="117"/>
      <point x="141" y="71" type="curve" smooth="yes"/>
      <point x="178" y="24"/>
      <point x="239" y="0"/>
    </contour>
  </outline>
</glyph>
<glyph name="nineguru" format="2">
  <advance width="411"/>
  <unicode hex="0A6F"/>
  <outline>
    <contour>
      <point x="312" y="0" type="curve" smooth="yes"/>
      <point x="335" y="0"/>
      <point x="361" y="2"/>
      <point x="385" y="6" type="curve"/>
      <point x="378" y="75" type="line"/>
      <point x="359" y="71"/>
      <point x="341" y="69"/>
      <point x="317" y="69" type="curve" smooth="yes"/>
      <point x="258" y="69"/>
      <point x="228" y="85"/>
      <point x="205" y="111" type="curve" smooth="yes"/>
      <point x="171" y="149"/>
      <point x="163" y="206"/>
      <point x="163" y="314" type="curve" smooth="yes"/>
      <point x="163" y="478" type="line"/>
      <point x="382" y="478" type="line"/>
      <point x="382" y="546" type="line"/>
      <point x="163" y="546" type="line"/>
      <point x="163" y="586" type="line" smooth="yes"/>
      <point x="163" y="611"/>
      <point x="152" y="628"/>
      <point x="129" y="628" type="curve" smooth="yes"/>
      <point x="83" y="628"/>
      <point x="32" y="557"/>
      <point x="32" y="515" type="curve" smooth="yes"/>
      <point x="32" y="494"/>
      <point x="43" y="477"/>
      <point x="79" y="477" type="curve" smooth="yes"/>
      <point x="88" y="477" type="line"/>
      <point x="88" y="301" type="line" smooth="yes"/>
      <point x="88" y="167"/>
      <point x="105" y="117"/>
      <point x="141" y="71" type="curve" smooth="yes"/>
      <point x="178" y="24"/>
      <point x="239" y="0"/>
    </contour>
    <contour>
      <point x="307" y="511" type="curve"/>
      <point x="378" y="521" type="line"/>
      <point x="348" y="561"/>
      <point x="326" y="601"/>
      <point x="326" y="653" type="curve" smooth="yes"/>
      <point x="326" y="690"/>
      <point x="349" y="718"/>
      <point x="391" y="718" type="curve" smooth="yes"/>
      <point x="399" y="718"/>
      <point x="406" y="718"/>
      <point x="418" y="716" type="curve"/>
      <point x="426" y="782" type="line"/>
      <point x="412" y="784"/>
      <point x="399" y="785"/>
      <point x="387" y="785" type="curve" smooth="yes"/>
      <point x="296" y="785"/>
      <point x="251" y="727"/>
      <point x="251" y="660" type="curve" smooth="yes"/>
      <point x="251" y="601"/>
      <point x="275" y="555"/>
    </contour>
  </outline>
</glyph>
<glyph name="tippiguru" format="2">
  <unicode hex="0A70"/>
  <outline>
    <contour>
      <point x="-202" y="679" type="curve"/>
      <point x="-139" y="690" type="line"/>
      <point x="-145" y="710"/>
      <point x="-149" y="727"/>
      <point x="-149" y="753" type="curve" smooth="yes"/>
      <point x="-149" y="786"/>
      <point x="-137" y="813"/>
      <point x="-101" y="813" type="curve" smooth="yes"/>
      <point x="-65" y="813"/>
      <point x="-53" y="786"/>
      <point x="-53" y="753" type="curve" smooth="yes"/>
      <point x="-53" y="727"/>
      <point x="-57" y="710"/>
      <point x="-63" y="690" type="curve"/>
      <point x="0" y="679" type="line"/>
      <point x="8" y="703"/>
      <point x="13" y="732"/>
      <point x="13" y="756" type="curve" smooth="yes"/>
      <point x="13" y="830"/>
      <point x="-29" y="874"/>
      <point x="-101" y="874" type="curve" smooth="yes"/>
      <point x="-173" y="874"/>
      <point x="-215" y="830"/>
      <point x="-215" y="756" type="curve" smooth="yes"/>
      <point x="-215" y="732"/>
      <point x="-210" y="703"/>
    </contour>
  </outline>
</glyph>
<glyph name="addakguru" format="2">
  <unicode hex="0A71"/>
  <outline>
    <contour>
      <point x="-102" y="686" type="curve" smooth="yes"/>
      <point x="-21" y="686"/>
      <point x="16" y="743"/>
      <point x="18" y="863" type="curve"/>
      <point x="-50" y="868" type="line"/>
      <point x="-52" y="778"/>
      <point x="-69" y="750"/>
      <point x="-102" y="750" type="curve" smooth="yes"/>
      <point x="-135" y="750"/>
      <point x="-152" y="778"/>
      <point x="-154" y="868" type="curve"/>
      <point x="-222" y="863" type="line"/>
      <point x="-220" y="743"/>
      <point x="-184" y="686"/>
    </contour>
  </outline>
</glyph>
<glyph name="iriguru" format="2">
  <advance width="419"/>
  <unicode hex="0A72"/>
  <outline>
    <contour>
      <point x="30" y="199" type="curve"/>
      <point x="71" y="83"/>
      <point x="130" y="0"/>
      <point x="256" y="0" type="curve" smooth="yes"/>
      <point x="305" y="0"/>
      <point x="358" y="13"/>
      <point x="398" y="34" type="curve"/>
      <point x="372" y="101" type="line"/>
      <point x="334" y="80"/>
      <point x="302" y="70"/>
      <point x="258" y="70" type="curve" smooth="yes"/>
      <point x="176" y="70"/>
      <point x="137" y="128"/>
      <point x="103" y="218" type="curve"/>
      <point x="104" y="174" type="line"/>
      <point x="132" y="225"/>
      <point x="158" y="257"/>
      <point x="194" y="276" type="curve" smooth="yes"/>
      <point x="213" y="286"/>
      <point x="235" y="292"/>
      <point x="277" y="292" type="curve" smooth="yes"/>
      <point x="334" y="292" type="line"/>
      <point x="362" y="320" type="line"/>
      <point x="362" y="554" type="line"/>
      <point x="426" y="554" type="line"/>
      <point x="426" y="622" type="line"/>
      <point x="-7" y="622" type="line"/>
      <point x="-7" y="554" type="line"/>
      <point x="43" y="554" type="line"/>
      <point x="43" y="429"/>
      <point x="70" y="349"/>
      <point x="158" y="313" type="curve"/>
      <point x="161" y="328" type="line"/>
      <point x="98" y="305"/>
      <point x="61" y="258"/>
    </contour>
    <contour>
      <point x="251" y="360" type="line" smooth="yes"/>
      <point x="207" y="360"/>
      <point x="189" y="364"/>
      <point x="171" y="376" type="curve" smooth="yes"/>
      <point x="133" y="401"/>
      <point x="118" y="461"/>
      <point x="118" y="554" type="curve"/>
      <point x="287" y="554" type="line"/>
      <point x="287" y="360" type="line"/>
    </contour>
  </outline>
</glyph>
<glyph name="ekonkarguru" format="2">
  <advance width="1103"/>
  <unicode hex="0A74"/>
  <outline>
    <contour>
      <point x="641" y="0" type="curve" smooth="yes"/>
      <point x="746" y="0"/>
      <point x="798" y="66"/>
      <point x="798" y="163" type="curve" smooth="yes"/>
      <point x="798" y="246"/>
      <point x="749" y="319"/>
      <point x="637" y="331" type="curve"/>
      <point x="627" y="305" type="line"/>
      <point x="768" y="324"/>
      <point x="850" y="398"/>
      <point x="850" y="583" type="curve"/>
      <point x="850" y="601" type="line"/>
      <point x="775" y="600" type="line"/>
      <point x="775" y="563" type="line" smooth="yes"/>
      <point x="775" y="464"/>
      <point x="740" y="417"/>
      <point x="691" y="388" type="curve" smooth="yes"/>
      <point x="656" y="367"/>
      <point x="613" y="361"/>
      <point x="555" y="361" type="curve" smooth="yes"/>
      <point x="473" y="361" type="line"/>
      <point x="480" y="293" type="line"/>
      <point x="528" y="293" type="line" smooth="yes"/>
      <point x="598" y="293"/>
      <point x="626" y="287"/>
      <point x="655" y="273" type="curve" smooth="yes"/>
      <point x="697" y="253"/>
      <point x="721" y="217"/>
      <point x="721" y="161" type="curve" smooth="yes"/>
      <point x="721" y="103"/>
      <point x="694" y="69"/>
      <point x="635" y="69" type="curve" smooth="yes"/>
      <point x="564" y="69"/>
      <point x="497" y="120"/>
      <point x="497" y="405" type="curve" smooth="yes"/>
      <point x="497" y="464"/>
      <point x="499" y="522"/>
      <point x="507" y="573" type="curve"/>
      <point x="510" y="593" type="line"/>
      <point x="527" y="700"/>
      <point x="569" y="786"/>
      <point x="659" y="786" type="curve" smooth="yes"/>
      <point x="724" y="786"/>
      <point x="758" y="745"/>
      <point x="774" y="667" type="curve"/>
      <point x="837" y="673" type="line"/>
      <point x="857" y="760"/>
      <point x="898" y="811"/>
      <point x="960" y="811" type="curve" smooth="yes"/>
      <point x="1024" y="811"/>
      <point x="1062" y="763"/>
      <point x="1078" y="669" type="curve"/>
      <point x="1153" y="678" type="line"/>
      <point x="1135" y="795"/>
      <point x="1078" y="880"/>
      <point x="964" y="880" type="curve" smooth="yes"/>
      <point x="879" y="880"/>
      <point x="822" y="831"/>
      <point x="786" y="729" type="curve"/>
      <point x="835" y="693" type="line"/>
      <point x="813" y="802"/>
      <point x="756" y="855"/>
      <point x="663" y="855" type="curve" smooth="yes"/>
      <point x="527" y="855"/>
      <point x="458" y="744"/>
      <point x="433" y="600" type="curve"/>
      <point x="432" y="583" type="line"/>
      <point x="425" y="532"/>
      <point x="422" y="478"/>
      <point x="422" y="405" type="curve" smooth="yes"/>
      <point x="422" y="102"/>
      <point x="507" y="0"/>
    </contour>
    <contour>
      <point x="395" y="554" type="line"/>
      <point x="888" y="554" type="line"/>
      <point x="888" y="622" type="line"/>
      <point x="395" y="622" type="line"/>
    </contour>
    <component base="oneguru" xOffset="-4"/>
  </outline>
</glyph>
<glyph name="yakashguru" format="2">
  <unicode hex="0A75"/>
  <outline>
    <contour>
      <point x="-105" y="-311" type="curve" smooth="yes"/>
      <point x="-44" y="-311"/>
      <point x="-14" y="-269"/>
      <point x="5" y="-211" type="curve"/>
      <point x="-52" y="-191" type="line"/>
      <point x="-63" y="-231"/>
      <point x="-77" y="-245"/>
      <point x="-99" y="-245" type="curve" smooth="yes"/>
      <point x="-127" y="-245"/>
      <point x="-139" y="-224"/>
      <point x="-139" y="-151" type="curve" smooth="yes"/>
      <point x="-139" y="-116"/>
      <point x="-136" y="-83"/>
      <point x="-132" y="-49" type="curve"/>
      <point x="-200" y="-41" type="line"/>
      <point x="-205" y="-79"/>
      <point x="-208" y="-106"/>
      <point x="-208" y="-150" type="curve" smooth="yes"/>
      <point x="-208" y="-278"/>
      <point x="-155" y="-311"/>
    </contour>
  </outline>
</glyph>
<glyph name="uni0A76" format="2">
  <advance width="262"/>
  <unicode hex="0A76"/>
  <outline>
    <contour>
      <point x="72" y="336" type="curve" smooth="yes"/>
      <point x="72" y="290"/>
      <point x="94" y="266"/>
      <point x="131" y="266" type="curve" smooth="yes"/>
      <point x="166" y="266"/>
      <point x="190" y="288"/>
      <point x="190" y="336" type="curve" smooth="yes"/>
      <point x="190" y="385"/>
      <point x="167" y="406"/>
      <point x="131" y="406" type="curve" smooth="yes"/>
      <point x="93" y="406"/>
      <point x="72" y="382"/>
    </contour>
  </outline>
</glyph>
<glyph name="endash.guru" format="2">
  <advance width="500"/>
  <unicode hex="2013"/>
  <outline>
    <contour>
      <point x="35" y="341" type="line"/>
      <point x="35" y="263" type="line"/>
      <point x="465" y="263" type="line"/>
      <point x="465" y="341" type="line"/>
    </contour>
  </outline>
</glyph>
<glyph name="emdash.guru" format="2">
  <advance width="1000"/>
  <unicode hex="2014"/>
  <outline>
    <contour>
      <point x="35" y="341" type="line"/>
      <point x="35" y="263" type="line"/>
      <point x="965" y="263" type="line"/>
      <point x="965" y="341" type="line"/>
    </contour>
  </outline>
</glyph>
<glyph name="quoteleft.guru" format="2">
  <advance width="290"/>
  <unicode hex="2018"/>
  <outline>
    <contour>
      <point x="85" y="484" type="line"/>
      <point x="172" y="484" type="line"/>
      <point x="179" y="555"/>
      <point x="195" y="646"/>
      <point x="217" y="729" type="curve"/>
      <point x="156" y="729" type="line"/>
      <point x="124" y="657"/>
      <point x="98" y="579"/>
      <point x="79" y="495" type="curve"/>
    </contour>
  </outline>
</glyph>
<glyph name="quoteright.guru" format="2">
  <advance width="290"/>
  <unicode hex="2019"/>
  <outline>
    <contour>
      <point x="211" y="729" type="line"/>
      <point x="124" y="729" type="line"/>
      <point x="117" y="658"/>
      <point x="101" y="567"/>
      <point x="79" y="484" type="curve"/>
      <point x="140" y="484" type="line"/>
      <point x="172" y="556"/>
      <point x="198" y="634"/>
      <point x="217" y="718" type="curve"/>
    </contour>
  </outline>
</glyph>
<glyph name="quotedblleft.guru" format="2">
  <advance width="440"/>
  <unicode hex="201C"/>
  <outline>
    <contour>
      <point x="85" y="484" type="line"/>
      <point x="172" y="484" type="line"/>
      <point x="179" y="555"/>
      <point x="195" y="646"/>
      <point x="217" y="729" type="curve"/>
      <point x="156" y="729" type="line"/>
      <point x="124" y="657"/>
      <point x="98" y="579"/>
      <point x="79" y="495" type="curve"/>
    </contour>
    <contour>
      <point x="235" y="484" type="line"/>
      <point x="322" y="484" type="line"/>
      <point x="329" y="555"/>
      <point x="345" y="646"/>
      <point x="367" y="729" type="curve"/>
      <point x="306" y="729" type="line"/>
      <point x="274" y="657"/>
      <point x="248" y="579"/>
      <point x="229" y="495" type="curve"/>
    </contour>
  </outline>
</glyph>
<glyph name="quotedblright.guru" format="2">
  <advance width="440"/>
  <unicode hex="201D"/>
  <outline>
    <contour>
      <point x="361" y="729" type="line"/>
      <point x="274" y="729" type="line"/>
      <point x="267" y="658"/>
      <point x="251" y="567"/>
      <point x="229" y="484" type="curve"/>
      <point x="290" y="484" type="line"/>
      <point x="322" y="556"/>
      <point x="348" y="634"/>
      <point x="367" y="718" type="curve"/>
    </contour>
    <contour>
      <point x="211" y="729" type="line"/>
      <point x="124" y="729" type="line"/>
      <point x="117" y="658"/>
      <point x="101" y="567"/>
      <point x="79" y="484" type="curve"/>
      <point x="140" y="484" type="line"/>
      <point x="172" y="556"/>
      <point x="198" y="634"/>
      <point x="217" y="718" type="curve"/>
    </contour>
  </outline>
</glyph>
<glyph name="ellipsis.guru" format="2">
  <advance width="648"/>
  <unicode hex="2026"/>
  <outline>
    <contour>
      <point x="324" y="-14" type="curve" smooth="yes"/>
      <point x="356" y="-14"/>
      <point x="378" y="6"/>
      <point x="378" y="50" type="curve" smooth="yes"/>
      <point x="378" y="95"/>
      <point x="357" y="114"/>
      <point x="324" y="114" type="curve" smooth="yes"/>
      <point x="289" y="114"/>
      <point x="270" y="92"/>
      <point x="270" y="50" type="curve" smooth="yes"/>
      <point x="270" y="8"/>
      <point x="290" y="-14"/>
    </contour>
    <contour>
      <point x="126" y="-14" type="curve" smooth="yes"/>
      <point x="158" y="-14"/>
      <point x="180" y="6"/>
      <point x="180" y="50" type="curve" smooth="yes"/>
      <point x="180" y="95"/>
      <point x="159" y="114"/>
      <point x="126" y="114" type="curve" smooth="yes"/>
      <point x="91" y="114"/>
      <point x="72" y="92"/>
      <point x="72" y="50" type="curve" smooth="yes"/>
      <point x="72" y="8"/>
      <point x="92" y="-14"/>
    </contour>
    <contour>
      <point x="522" y="-14" type="curve" smooth="yes"/>
      <point x="554" y="-14"/>
      <point x="576" y="6"/>
      <point x="576" y="50" type="curve" smooth="yes"/>
      <point x="576" y="95"/>
      <point x="555" y="114"/>
      <point x="522" y="114" type="curve" smooth="yes"/>
      <point x="487" y="114"/>
      <point x="468" y="92"/>
      <point x="468" y="50" type="curve" smooth="yes"/>
      <point x="468" y="8"/>
      <point x="488" y="-14"/>
    </contour>
  </outline>
</glyph>
<glyph name="uni20B9.guru" format="2">
  <advance width="411"/>
  <unicode hex="20B9"/>
  <outline>
    <contour>
      <point x="371" y="554" type="line"/>
      <point x="371" y="622" type="line"/>
      <point x="49" y="622" type="line"/>
      <point x="49" y="554" type="line"/>
      <point x="90" y="554" type="line" smooth="yes"/>
      <point x="132" y="554"/>
      <point x="152" y="545"/>
      <point x="167" y="529" type="curve" smooth="yes"/>
      <point x="185" y="510"/>
      <point x="191" y="480"/>
      <point x="191" y="439" type="curve" smooth="yes"/>
      <point x="191" y="396"/>
      <point x="186" y="365"/>
      <point x="170" y="345" type="curve" smooth="yes"/>
      <point x="155" y="327"/>
      <point x="134" y="318"/>
      <point x="87" y="318" type="curve" smooth="yes"/>
      <point x="63" y="318" type="line"/>
      <point x="50" y="255" type="line"/>
      <point x="195" y="0" type="line"/>
      <point x="288" y="0" type="line"/>
      <point x="123" y="279" type="line"/>
      <point x="125" y="252" type="line"/>
      <point x="218" y="267"/>
      <point x="266" y="320"/>
      <point x="266" y="438" type="curve" smooth="yes"/>
      <point x="266" y="503"/>
      <point x="247" y="538"/>
      <point x="226" y="554" type="curve"/>
    </contour>
    <contour>
      <point x="49" y="474" type="line"/>
      <point x="49" y="406" type="line"/>
      <point x="371" y="406" type="line"/>
      <point x="371" y="474" type="line"/>
    </contour>
  </outline>
</glyph>
<glyph name="minus.guru" format="2">
  <advance width="411"/>
  <unicode hex="2212"/>
  <outline>
    <contour>
      <point x="35" y="357" type="line"/>
      <point x="35" y="288" type="line"/>
      <point x="376" y="288" type="line"/>
      <point x="376" y="357" type="line"/>
    </contour>
  </outline>
</glyph>
<glyph name="uni262C" format="2">
  <advance width="948"/>
  <unicode hex="262C"/>
  <outline>
    <contour>
      <point x="474" y="-198" type="curve" smooth="yes"/>
      <point x="513" y="-198"/>
      <point x="546" y="-164"/>
      <point x="546" y="-120" type="curve" smooth="yes"/>
      <point x="546" y="-56"/>
      <point x="509" y="-42"/>
      <point x="509" y="25" type="curve" smooth="yes"/>
      <point x="509" y="61"/>
      <point x="542" y="84"/>
      <point x="542" y="84" type="curve"/>
      <point x="575" y="50"/>
      <point x="618" y="-4"/>
      <point x="618" y="-38" type="curve" smooth="yes"/>
      <point x="618" y="-49"/>
      <point x="606" y="-51"/>
      <point x="606" y="-79" type="curve" smooth="yes"/>
      <point x="606" y="-105"/>
      <point x="624" y="-130"/>
      <point x="658" y="-130" type="curve" smooth="yes"/>
      <point x="691" y="-130"/>
      <point x="707" y="-107"/>
      <point x="707" y="-76" type="curve" smooth="yes"/>
      <point x="707" y="-36"/>
      <point x="654" y="42"/>
      <point x="579" y="103" type="curve"/>
      <point x="597" y="109"/>
      <point x="617" y="114"/>
      <point x="638" y="114" type="curve" smooth="yes"/>
      <point x="722" y="114"/>
      <point x="763" y="48"/>
      <point x="766" y="-13" type="curve"/>
      <point x="789" y="20"/>
      <point x="888" y="155"/>
      <point x="888" y="396" type="curve" smooth="yes"/>
      <point x="888" y="578"/>
      <point x="779" y="686"/>
      <point x="728" y="718" type="curve"/>
      <point x="766" y="651"/>
      <point x="789" y="583"/>
      <point x="789" y="468" type="curve" smooth="yes"/>
      <point x="789" y="317"/>
      <point x="696" y="172"/>
      <point x="509" y="158" type="curve"/>
      <point x="509" y="236" type="line"/>
      <point x="542" y="240"/>
      <point x="577" y="250"/>
      <point x="592" y="256" type="curve"/>
      <point x="584" y="268"/>
      <point x="577" y="280"/>
      <point x="571" y="292" type="curve"/>
      <point x="655" y="333"/>
      <point x="714" y="417"/>
      <point x="714" y="517" type="curve" smooth="yes"/>
      <point x="714" y="628"/>
      <point x="640" y="721"/>
      <point x="538" y="750" type="curve"/>
      <point x="545" y="789"/>
      <point x="557" y="802"/>
      <point x="587" y="802" type="curve"/>
      <point x="587" y="830" type="line"/>
      <point x="532" y="830"/>
      <point x="511" y="880"/>
      <point x="470" y="880" type="curve" smooth="yes"/>
      <point x="427" y="880"/>
      <point x="416" y="830"/>
      <point x="360" y="830" type="curve"/>
      <point x="360" y="802" type="line"/>
      <point x="391" y="802"/>
      <point x="403" y="789"/>
      <point x="410" y="750" type="curve"/>
      <point x="309" y="721"/>
      <point x="234" y="628"/>
      <point x="234" y="517" type="curve" smooth="yes"/>
      <point x="234" y="417"/>
      <point x="292" y="333"/>
      <point x="377" y="292" type="curve"/>
      <point x="371" y="280"/>
      <point x="363" y="268"/>
      <point x="356" y="256" type="curve"/>
      <point x="371" y="250"/>
      <point x="406" y="240"/>
      <point x="439" y="236" type="curve"/>
      <point x="439" y="158" type="line"/>
      <point x="252" y="172"/>
      <point x="159" y="317"/>
      <point x="159" y="468" type="curve" smooth="yes"/>
      <point x="159" y="583"/>
      <point x="182" y="651"/>
      <point x="220" y="718" type="curve"/>
      <point x="169" y="686"/>
      <point x="60" y="578"/>
      <point x="60" y="396" type="curve" smooth="yes"/>
      <point x="60" y="155"/>
      <point x="159" y="20"/>
      <point x="182" y="-13" type="curve"/>
      <point x="186" y="48"/>
      <point x="226" y="114"/>
      <point x="310" y="114" type="curve" smooth="yes"/>
      <point x="331" y="114"/>
      <point x="351" y="109"/>
      <point x="370" y="103" type="curve"/>
      <point x="294" y="42"/>
      <point x="241" y="-36"/>
      <point x="241" y="-76" type="curve" smooth="yes"/>
      <point x="241" y="-107"/>
      <point x="256" y="-130"/>
      <point x="290" y="-130" type="curve" smooth="yes"/>
      <point x="324" y="-130"/>
      <point x="342" y="-105"/>
      <point x="342" y="-79" type="curve" smooth="yes"/>
      <point x="342" y="-51"/>
      <point x="330" y="-49"/>
      <point x="330" y="-38" type="curve" smooth="yes"/>
      <point x="330" y="-4"/>
      <point x="373" y="50"/>
      <point x="406" y="84" type="curve"/>
      <point x="406" y="84"/>
      <point x="439" y="61"/>
      <point x="439" y="25" type="curve" smooth="yes"/>
      <point x="439" y="-42"/>
      <point x="402" y="-56"/>
      <point x="402" y="-120" type="curve" smooth="yes"/>
      <point x="402" y="-164"/>
      <point x="435" y="-198"/>
    </contour>
    <contour>
      <point x="402" y="351" type="curve"/>
      <point x="339" y="378"/>
      <point x="296" y="442"/>
      <point x="296" y="517" type="curve" smooth="yes"/>
      <point x="296" y="598"/>
      <point x="348" y="665"/>
      <point x="421" y="688" type="curve"/>
      <point x="426" y="654"/>
      <point x="431" y="607"/>
      <point x="431" y="544" type="curve" smooth="yes"/>
      <point x="431" y="460"/>
      <point x="418" y="399"/>
    </contour>
    <contour>
      <point x="546" y="351" type="curve"/>
      <point x="529" y="399"/>
      <point x="518" y="460"/>
      <point x="518" y="544" type="curve" smooth="yes"/>
      <point x="518" y="607"/>
      <point x="522" y="654"/>
      <point x="526" y="688" type="curve"/>
      <point x="600" y="665"/>
      <point x="651" y="598"/>
      <point x="651" y="517" type="curve" smooth="yes"/>
      <point x="651" y="442"/>
      <point x="609" y="378"/>
    </contour>
  </outline>
</glyph>
<glyph name="uniA832" format="2">
  <advance width="504"/>
  <unicode hex="A832"/>
  <outline>
    <contour>
      <point x="362" y="0" type="line"/>
      <point x="437" y="0" type="line"/>
      <point x="437" y="622" type="line"/>
      <point x="362" y="622" type="line"/>
    </contour>
    <contour>
      <point x="215" y="0" type="line"/>
      <point x="290" y="0" type="line"/>
      <point x="290" y="622" type="line"/>
      <point x="215" y="622" type="line"/>
    </contour>
    <contour>
      <point x="69" y="0" type="line"/>
      <point x="144" y="0" type="line"/>
      <point x="144" y="622" type="line"/>
      <point x="69" y="622" type="line"/>
    </contour>
  </outline>
</glyph>
<glyph name="uniA833" format="2">
  <advance width="463"/>
  <unicode hex="A833"/>
  <outline>
    <contour>
      <point x="57" y="416" type="line"/>
      <point x="431" y="547" type="line"/>
      <point x="407" y="621" type="line"/>
      <point x="33" y="490" type="line"/>
    </contour>
  </outline>
</glyph>
<glyph name="uniA834" format="2">
  <advance width="463"/>
  <unicode hex="A834"/>
  <outline>
    <contour>
      <point x="57" y="416" type="line"/>
      <point x="431" y="547" type="line"/>
      <point x="407" y="621" type="line"/>
      <point x="33" y="490" type="line"/>
    </contour>
    <contour>
      <point x="57" y="218" type="line"/>
      <point x="431" y="349" type="line"/>
      <point x="407" y="423" type="line"/>
      <point x="33" y="292" type="line"/>
    </contour>
  </outline>
</glyph>
<glyph name="uniA836" format="2">
  <advance width="345"/>
  <unicode hex="A836"/>
  <outline>
    <contour>
      <point x="172" y="167" type="curve" smooth="yes"/>
      <point x="248" y="167"/>
      <point x="296" y="226"/>
      <point x="296" y="321" type="curve" smooth="yes"/>
      <point x="296" y="413"/>
      <point x="246" y="473"/>
      <point x="172" y="473" type="curve" smooth="yes"/>
      <point x="96" y="473"/>
      <point x="49" y="411"/>
      <point x="49" y="321" type="curve" smooth="yes"/>
      <point x="49" y="223"/>
      <point x="102" y="167"/>
    </contour>
    <contour>
      <point x="173" y="231" type="curve" smooth="yes"/>
      <point x="137" y="231"/>
      <point x="115" y="260"/>
      <point x="115" y="321" type="curve" smooth="yes"/>
      <point x="115" y="377"/>
      <point x="135" y="409"/>
      <point x="173" y="409" type="curve" smooth="yes"/>
      <point x="208" y="409"/>
      <point x="230" y="379"/>
      <point x="230" y="321" type="curve" smooth="yes"/>
      <point x="230" y="260"/>
      <point x="209" y="231"/>
    </contour>
  </outline>
</glyph>
<glyph name="uniA838" format="2">
  <advance width="238"/>
  <unicode hex="A838"/>
  <outline>
    <contour>
      <point x="-100" y="-106" type="curve"/>
      <point x="-105" y="-176" type="line"/>
      <point x="-86" y="-181"/>
      <point x="-57" y="-185"/>
      <point x="-36" y="-185" type="curve" smooth="yes"/>
      <point x="160" y="-185"/>
      <point x="193" y="-17"/>
      <point x="193" y="177" type="curve" smooth="yes"/>
      <point x="193" y="321"/>
      <point x="172" y="509"/>
      <point x="148" y="633" type="curve"/>
      <point x="73" y="619" type="line"/>
      <point x="94" y="506"/>
      <point x="118" y="335"/>
      <point x="118" y="180" type="curve" smooth="yes"/>
      <point x="118" y="-10"/>
      <point x="86" y="-115"/>
      <point x="-37" y="-115" type="curve" smooth="yes"/>
      <point x="-57" y="-115"/>
      <point x="-79" y="-112"/>
    </contour>
  </outline>
</glyph>
<glyph name="uniA839" format="2">
  <advance width="254"/>
  <unicode hex="A839"/>
  <outline>
    <contour>
      <point x="-104" y="-164" type="curve"/>
      <point x="-105" y="-236" type="line"/>
      <point x="-96" y="-237"/>
      <point x="-77" y="-239"/>
      <point x="-62" y="-239" type="curve" smooth="yes"/>
      <point x="153" y="-239"/>
      <point x="200" y="-83"/>
      <point x="200" y="30" type="curve" smooth="yes"/>
      <point x="200" y="192"/>
      <point x="122" y="315"/>
      <point x="122" y="422" type="curve" smooth="yes"/>
      <point x="122" y="501"/>
      <point x="170" y="539"/>
      <point x="251" y="562" type="curve"/>
      <point x="228" y="633" type="line"/>
      <point x="120" y="601"/>
      <point x="47" y="538"/>
      <point x="47" y="422" type="curve" smooth="yes"/>
      <point x="47" y="285"/>
      <point x="125" y="182"/>
      <point x="125" y="28" type="curve" smooth="yes"/>
      <point x="125" y="-75"/>
      <point x="80" y="-167"/>
      <point x="-67" y="-167" type="curve" smooth="yes"/>
      <point x="-82" y="-167"/>
      <point x="-95" y="-166"/>
    </contour>
  </outline>
</glyph>
<glyph name="addakbaraltguru" format="2">
  <advance width="204"/>
  <outline>
    <contour>
      <point x="161" y="686" type="curve" smooth="yes"/>
      <point x="242" y="686"/>
      <point x="279" y="743"/>
      <point x="281" y="863" type="curve"/>
      <point x="213" y="868" type="line"/>
      <point x="211" y="778"/>
      <point x="194" y="750"/>
      <point x="161" y="750" type="curve" smooth="yes"/>
      <point x="128" y="750"/>
      <point x="111" y="778"/>
      <point x="109" y="868" type="curve"/>
      <point x="41" y="863" type="line"/>
      <point x="43" y="743"/>
      <point x="79" y="686"/>
    </contour>
    <contour>
      <point x="-6" y="554" type="line"/>
      <point x="202" y="554" type="line"/>
      <point x="202" y="622" type="line"/>
      <point x="-6" y="622" type="line"/>
    </contour>
  </outline>
</glyph>
<glyph name="aimatraaddakguru" format="2">
  <outline>
    <contour>
      <point x="-116" y="610" type="curve"/>
      <point x="-62" y="615" type="line"/>
      <point x="-108" y="830"/>
      <point x="-167" y="896"/>
      <point x="-280" y="896" type="curve" smooth="yes"/>
      <point x="-284" y="896"/>
      <point x="-287" y="896"/>
      <point x="-291" y="896" type="curve"/>
      <point x="-288" y="823" type="line"/>
      <point x="-286" y="823"/>
      <point x="-282" y="823"/>
      <point x="-277" y="823" type="curve" smooth="yes"/>
      <point x="-206" y="823"/>
      <point x="-154" y="779"/>
    </contour>
    <contour>
      <point x="-128" y="578" type="curve"/>
      <point x="-97" y="604" type="line"/>
      <point x="-144" y="710"/>
      <point x="-201" y="760"/>
      <point x="-295" y="760" type="curve" smooth="yes"/>
      <point x="-299" y="760"/>
      <point x="-304" y="760"/>
      <point x="-309" y="760" type="curve"/>
      <point x="-306" y="687" type="line"/>
      <point x="-302" y="687"/>
      <point x="-295" y="687"/>
      <point x="-290" y="687" type="curve" smooth="yes"/>
      <point x="-220" y="687"/>
      <point x="-169" y="656"/>
    </contour>
    <contour>
      <point x="1" y="686" type="curve" smooth="yes"/>
      <point x="76" y="686"/>
      <point x="113" y="743"/>
      <point x="115" y="863" type="curve"/>
      <point x="47" y="868" type="line"/>
      <point x="45" y="778"/>
      <point x="30" y="750"/>
      <point x="1" y="750" type="curve" smooth="yes"/>
      <point x="-30" y="750"/>
      <point x="-45" y="778"/>
      <point x="-47" y="868" type="curve"/>
      <point x="-115" y="863" type="line"/>
      <point x="-115" y="756"/>
      <point x="-77" y="686"/>
    </contour>
  </outline>
</glyph>
<glyph name="aimatrabindiguru" format="2">
  <outline>
    <contour>
      <point x="-114" y="610" type="curve"/>
      <point x="-60" y="615" type="line"/>
      <point x="-83" y="813"/>
      <point x="-159" y="896"/>
      <point x="-270" y="896" type="curve" smooth="yes"/>
      <point x="-274" y="896"/>
      <point x="-277" y="896"/>
      <point x="-281" y="896" type="curve"/>
      <point x="-278" y="823" type="line"/>
      <point x="-276" y="823"/>
      <point x="-272" y="823"/>
      <point x="-267" y="823" type="curve" smooth="yes"/>
      <point x="-196" y="823"/>
      <point x="-141" y="770"/>
    </contour>
    <contour>
      <point x="-126" y="578" type="curve"/>
      <point x="-95" y="604" type="line"/>
      <point x="-142" y="710"/>
      <point x="-191" y="760"/>
      <point x="-285" y="760" type="curve" smooth="yes"/>
      <point x="-289" y="760"/>
      <point x="-294" y="760"/>
      <point x="-299" y="760" type="curve"/>
      <point x="-296" y="687" type="line"/>
      <point x="-292" y="687"/>
      <point x="-285" y="687"/>
      <point x="-280" y="687" type="curve" smooth="yes"/>
      <point x="-210" y="687"/>
      <point x="-167" y="656"/>
    </contour>
    <contour>
      <point x="-42" y="786" type="curve" smooth="yes"/>
      <point x="-10" y="786"/>
      <point x="7" y="808"/>
      <point x="7" y="841" type="curve" smooth="yes"/>
      <point x="7" y="873"/>
      <point x="-10" y="896"/>
      <point x="-42" y="896" type="curve" smooth="yes"/>
      <point x="-73" y="896"/>
      <point x="-91" y="873"/>
      <point x="-91" y="841" type="curve" smooth="yes"/>
      <point x="-91" y="808"/>
      <point x="-73" y="786"/>
    </contour>
  </outline>
</glyph>
<glyph name="aumatraaddakguru" format="2">
  <outline>
    <contour>
      <point x="-270" y="679" type="curve"/>
      <point x="-207" y="690" type="line"/>
      <point x="-213" y="710"/>
      <point x="-217" y="727"/>
      <point x="-217" y="752" type="curve" smooth="yes"/>
      <point x="-217" y="786"/>
      <point x="-205" y="813"/>
      <point x="-176" y="813" type="curve" smooth="yes"/>
      <point x="-147" y="813"/>
      <point x="-135" y="786"/>
      <point x="-135" y="752" type="curve" smooth="yes"/>
      <point x="-135" y="727"/>
      <point x="-139" y="710"/>
      <point x="-145" y="690" type="curve"/>
      <point x="-82" y="679" type="line"/>
      <point x="-74" y="703"/>
      <point x="-70" y="732"/>
      <point x="-70" y="756" type="curve" smooth="yes"/>
      <point x="-70" y="830"/>
      <point x="-111" y="874"/>
      <point x="-176" y="874" type="curve" smooth="yes"/>
      <point x="-241" y="874"/>
      <point x="-283" y="830"/>
      <point x="-283" y="757" type="curve" smooth="yes"/>
      <point x="-283" y="732"/>
      <point x="-278" y="703"/>
    </contour>
    <contour>
      <point x="-296" y="768" type="curve" smooth="yes"/>
      <point x="-271" y="768"/>
      <point x="-244" y="782"/>
      <point x="-229" y="800" type="curve"/>
      <point x="-248" y="848" type="line"/>
      <point x="-262" y="833"/>
      <point x="-274" y="830"/>
      <point x="-285" y="830" type="curve" smooth="yes"/>
      <point x="-309" y="830"/>
      <point x="-322" y="854"/>
      <point x="-333" y="895" type="curve"/>
      <point x="-398" y="874" type="line"/>
      <point x="-380" y="795"/>
      <point x="-339" y="768"/>
    </contour>
    <contour>
      <point x="15" y="714" type="curve" smooth="yes"/>
      <point x="90" y="714"/>
      <point x="127" y="771"/>
      <point x="129" y="891" type="curve"/>
      <point x="61" y="896" type="line"/>
      <point x="59" y="806"/>
      <point x="44" y="778"/>
      <point x="15" y="778" type="curve" smooth="yes"/>
      <point x="-16" y="778"/>
      <point x="-31" y="806"/>
      <point x="-33" y="896" type="curve"/>
      <point x="-101" y="891" type="line"/>
      <point x="-101" y="787"/>
      <point x="-63" y="714"/>
    </contour>
  </outline>
</glyph>
<glyph name="aumatrabindiguru" format="2">
  <outline>
    <contour>
      <point x="-253" y="679" type="curve"/>
      <point x="-190" y="690" type="line"/>
      <point x="-196" y="710"/>
      <point x="-200" y="727"/>
      <point x="-200" y="753" type="curve" smooth="yes"/>
      <point x="-200" y="786"/>
      <point x="-188" y="813"/>
      <point x="-156" y="813" type="curve" smooth="yes"/>
      <point x="-124" y="813"/>
      <point x="-112" y="786"/>
      <point x="-112" y="753" type="curve" smooth="yes"/>
      <point x="-112" y="727"/>
      <point x="-116" y="710"/>
      <point x="-122" y="690" type="curve"/>
      <point x="-59" y="679" type="line"/>
      <point x="-51" y="703"/>
      <point x="-46" y="732"/>
      <point x="-46" y="756" type="curve" smooth="yes"/>
      <point x="-46" y="830"/>
      <point x="-88" y="874"/>
      <point x="-156" y="874" type="curve" smooth="yes"/>
      <point x="-224" y="874"/>
      <point x="-266" y="830"/>
      <point x="-266" y="757" type="curve" smooth="yes"/>
      <point x="-266" y="732"/>
      <point x="-261" y="703"/>
    </contour>
    <contour>
      <point x="-281" y="768" type="curve" smooth="yes"/>
      <point x="-254" y="768"/>
      <point x="-227" y="782"/>
      <point x="-212" y="800" type="curve"/>
      <point x="-231" y="848" type="line"/>
      <point x="-245" y="833"/>
      <point x="-257" y="830"/>
      <point x="-272" y="830" type="curve" smooth="yes"/>
      <point x="-297" y="830"/>
      <point x="-313" y="854"/>
      <point x="-324" y="895" type="curve"/>
      <point x="-389" y="874" type="line"/>
      <point x="-371" y="795"/>
      <point x="-331" y="768"/>
    </contour>
    <contour>
      <point x="17" y="786" type="curve" smooth="yes"/>
      <point x="49" y="786"/>
      <point x="66" y="808"/>
      <point x="66" y="841" type="curve" smooth="yes"/>
      <point x="66" y="873"/>
      <point x="49" y="896"/>
      <point x="17" y="896" type="curve" smooth="yes"/>
      <point x="-14" y="896"/>
      <point x="-32" y="873"/>
      <point x="-32" y="841" type="curve" smooth="yes"/>
      <point x="-32" y="808"/>
      <point x="-14" y="786"/>
    </contour>
  </outline>
</glyph>
<glyph name="baUIguru" format="2">
  <advance width="458"/>
  <outline>
    <contour>
      <point x="30" y="257" type="curve"/>
      <point x="74" y="143"/>
      <point x="125" y="84"/>
      <point x="232" y="84" type="curve" smooth="yes"/>
      <point x="263" y="84"/>
      <point x="298" y="88"/>
      <point x="332" y="106" type="curve"/>
      <point x="334" y="181" type="line"/>
      <point x="304" y="165"/>
      <point x="273" y="155"/>
      <point x="235" y="155" type="curve" smooth="yes"/>
      <point x="171" y="155"/>
      <point x="135" y="187"/>
      <point x="103" y="276" type="curve"/>
      <point x="105" y="236" type="line"/>
      <point x="142" y="303"/>
      <point x="182" y="331"/>
      <point x="260" y="331" type="curve" smooth="yes"/>
      <point x="325" y="331" type="line"/>
      <point x="327" y="398" type="line"/>
      <point x="255" y="398" type="line" smooth="yes"/>
      <point x="204" y="398"/>
      <point x="181" y="402"/>
      <point x="160" y="419" type="curve" smooth="yes"/>
      <point x="133" y="441"/>
      <point x="120" y="488"/>
      <point x="120" y="568" type="curve"/>
      <point x="97" y="554" type="line"/>
      <point x="412" y="554" type="line"/>
      <point x="412" y="622" type="line"/>
      <point x="-7" y="622" type="line"/>
      <point x="-7" y="554" type="line"/>
      <point x="65" y="554" type="line"/>
      <point x="44" y="571" type="line"/>
      <point x="44" y="442"/>
      <point x="79" y="376"/>
      <point x="161" y="348" type="curve"/>
      <point x="164" y="368" type="line"/>
      <point x="104" y="356"/>
      <point x="64" y="317"/>
    </contour>
    <contour>
      <point x="319" y="76" type="line"/>
      <point x="394" y="76" type="line"/>
      <point x="394" y="554" type="line"/>
      <point x="465" y="554" type="line"/>
      <point x="465" y="622" type="line"/>
      <point x="246" y="622" type="line"/>
      <point x="246" y="554" type="line"/>
      <point x="319" y="554" type="line"/>
    </contour>
  </outline>
</glyph>
<glyph name="eematraaddakaltguru" format="2">
  <advance width="63"/>
  <outline>
    <contour>
      <point x="70" y="554" type="line"/>
      <point x="70" y="622" type="line"/>
      <point x="-7" y="622" type="line"/>
      <point x="-7" y="554" type="line"/>
    </contour>
    <component base="eematraaddakguru"/>
  </outline>
</glyph>
<glyph name="eematraaddakguru" format="2">
  <outline>
    <contour>
      <point x="-138" y="615" type="curve"/>
      <point x="-67" y="615" type="line"/>
      <point x="-103" y="816"/>
      <point x="-170" y="896"/>
      <point x="-284" y="896" type="curve" smooth="yes"/>
      <point x="-289" y="896"/>
      <point x="-294" y="896"/>
      <point x="-299" y="896" type="curve"/>
      <point x="-295" y="821" type="line"/>
      <point x="-292" y="821"/>
      <point x="-287" y="821"/>
      <point x="-276" y="821" type="curve" smooth="yes"/>
      <point x="-213" y="821"/>
      <point x="-173" y="773"/>
    </contour>
    <contour>
      <point x="1" y="686" type="curve" smooth="yes"/>
      <point x="76" y="686"/>
      <point x="113" y="743"/>
      <point x="115" y="863" type="curve"/>
      <point x="47" y="868" type="line"/>
      <point x="45" y="778"/>
      <point x="30" y="750"/>
      <point x="1" y="750" type="curve" smooth="yes"/>
      <point x="-30" y="750"/>
      <point x="-45" y="778"/>
      <point x="-47" y="868" type="curve"/>
      <point x="-115" y="863" type="line"/>
      <point x="-113" y="743"/>
      <point x="-77" y="686"/>
    </contour>
  </outline>
</glyph>
<glyph name="eematrabindiguru" format="2">
  <outline>
    <contour>
      <point x="-138" y="615" type="curve"/>
      <point x="-67" y="615" type="line"/>
      <point x="-96" y="816"/>
      <point x="-170" y="896"/>
      <point x="-284" y="896" type="curve" smooth="yes"/>
      <point x="-289" y="896"/>
      <point x="-294" y="896"/>
      <point x="-299" y="896" type="curve"/>
      <point x="-295" y="821" type="line"/>
      <point x="-292" y="821"/>
      <point x="-287" y="821"/>
      <point x="-276" y="821" type="curve" smooth="yes"/>
      <point x="-213" y="821"/>
      <point x="-166" y="773"/>
    </contour>
    <contour>
      <point x="-51" y="786" type="curve" smooth="yes"/>
      <point x="-19" y="786"/>
      <point x="-2" y="808"/>
      <point x="-2" y="841" type="curve" smooth="yes"/>
      <point x="-2" y="873"/>
      <point x="-19" y="896"/>
      <point x="-51" y="896" type="curve" smooth="yes"/>
      <point x="-82" y="896"/>
      <point x="-100" y="873"/>
      <point x="-100" y="841" type="curve" smooth="yes"/>
      <point x="-100" y="808"/>
      <point x="-82" y="786"/>
    </contour>
  </outline>
</glyph>
<glyph name="gaUIguru" format="2">
  <advance width="571"/>
  <outline>
    <contour>
      <point x="213" y="27" type="curve" smooth="yes"/>
      <point x="301" y="27"/>
      <point x="332" y="93"/>
      <point x="332" y="156" type="curve" smooth="yes"/>
      <point x="332" y="554" type="line"/>
      <point x="395" y="554" type="line"/>
      <point x="395" y="622" type="line"/>
      <point x="-7" y="622" type="line"/>
      <point x="-7" y="554" type="line"/>
      <point x="257" y="554" type="line"/>
      <point x="257" y="432" type="line"/>
      <point x="205" y="432" type="line" smooth="yes"/>
      <point x="135" y="432"/>
      <point x="102" y="423"/>
      <point x="75" y="404" type="curve" smooth="yes"/>
      <point x="45" y="383"/>
      <point x="29" y="346"/>
      <point x="29" y="295" type="curve" smooth="yes"/>
      <point x="29" y="159"/>
      <point x="106" y="27"/>
    </contour>
    <contour>
      <point x="212" y="96" type="curve" smooth="yes"/>
      <point x="150" y="96"/>
      <point x="104" y="205"/>
      <point x="104" y="289" type="curve" smooth="yes"/>
      <point x="104" y="317"/>
      <point x="111" y="335"/>
      <point x="124" y="347" type="curve" smooth="yes"/>
      <point x="139" y="360"/>
      <point x="160" y="364"/>
      <point x="205" y="364" type="curve" smooth="yes"/>
      <point x="257" y="364" type="line"/>
      <point x="257" y="164" type="line" smooth="yes"/>
      <point x="257" y="137"/>
      <point x="254" y="119"/>
      <point x="244" y="108" type="curve" smooth="yes"/>
      <point x="236" y="99"/>
      <point x="227" y="96"/>
    </contour>
    <contour>
      <point x="432" y="76" type="line"/>
      <point x="507" y="76" type="line"/>
      <point x="507" y="554" type="line"/>
      <point x="578" y="554" type="line"/>
      <point x="578" y="622" type="line"/>
      <point x="366" y="622" type="line"/>
      <point x="366" y="554" type="line"/>
      <point x="432" y="554" type="line"/>
    </contour>
  </outline>
</glyph>
<glyph name="hasubscript1UIguru" format="2">
  <outline>
    <contour>
      <point x="-171" y="-271" type="curve" smooth="yes"/>
      <point x="-128" y="-271"/>
      <point x="-106" y="-261"/>
      <point x="-91" y="-244" type="curve" smooth="yes"/>
      <point x="-74" y="-226"/>
      <point x="-66" y="-200"/>
      <point x="-66" y="-156" type="curve" smooth="yes"/>
      <point x="-66" y="63" type="line"/>
      <point x="-139" y="43" type="line"/>
      <point x="-139" y="-166" type="line" smooth="yes"/>
      <point x="-139" y="-200"/>
      <point x="-145" y="-212"/>
      <point x="-173" y="-212" type="curve" smooth="yes"/>
      <point x="-216" y="-212"/>
      <point x="-248" y="-168"/>
      <point x="-248" y="-134" type="curve" smooth="yes"/>
      <point x="-248" y="-107"/>
      <point x="-223" y="-101"/>
      <point x="-192" y="-101" type="curve"/>
      <point x="-188" y="-39" type="line"/>
      <point x="-196" y="-39" type="line" smooth="yes"/>
      <point x="-240" y="-39"/>
      <point x="-265" y="-45"/>
      <point x="-287" y="-63" type="curve" smooth="yes"/>
      <point x="-302" y="-76"/>
      <point x="-315" y="-96"/>
      <point x="-315" y="-126" type="curve" smooth="yes"/>
      <point x="-315" y="-202"/>
      <point x="-256" y="-271"/>
    </contour>
  </outline>
</glyph>
<glyph name="hasubscript1guru" format="2">
  <outline>
    <contour>
      <point x="-171" y="-311" type="curve" smooth="yes"/>
      <point x="-128" y="-311"/>
      <point x="-106" y="-301"/>
      <point x="-91" y="-284" type="curve" smooth="yes"/>
      <point x="-74" y="-266"/>
      <point x="-66" y="-240"/>
      <point x="-66" y="-196" type="curve" smooth="yes"/>
      <point x="-66" y="63" type="line"/>
      <point x="-139" y="43" type="line"/>
      <point x="-139" y="-206" type="line" smooth="yes"/>
      <point x="-139" y="-240"/>
      <point x="-145" y="-252"/>
      <point x="-173" y="-252" type="curve" smooth="yes"/>
      <point x="-216" y="-252"/>
      <point x="-248" y="-209"/>
      <point x="-248" y="-170" type="curve" smooth="yes"/>
      <point x="-248" y="-142"/>
      <point x="-223" y="-137"/>
      <point x="-192" y="-137" type="curve"/>
      <point x="-188" y="-75" type="line"/>
      <point x="-196" y="-75" type="line" smooth="yes"/>
      <point x="-239" y="-75"/>
      <point x="-266" y="-82"/>
      <point x="-287" y="-100" type="curve" smooth="yes"/>
      <point x="-302" y="-113"/>
      <point x="-315" y="-133"/>
      <point x="-315" y="-163" type="curve" smooth="yes"/>
      <point x="-315" y="-242"/>
      <point x="-256" y="-311"/>
    </contour>
  </outline>
</glyph>
<glyph name="hasubscriptUIguru" format="2">
  <outline>
    <contour>
      <point x="-171" y="-271" type="curve" smooth="yes"/>
      <point x="-127" y="-271"/>
      <point x="-105" y="-261"/>
      <point x="-89" y="-244" type="curve" smooth="yes"/>
      <point x="-72" y="-226"/>
      <point x="-64" y="-200"/>
      <point x="-64" y="-156" type="curve" smooth="yes"/>
      <point x="-64" y="0" type="line"/>
      <point x="-139" y="0" type="line"/>
      <point x="-139" y="-166" type="line" smooth="yes"/>
      <point x="-139" y="-200"/>
      <point x="-145" y="-212"/>
      <point x="-173" y="-212" type="curve" smooth="yes"/>
      <point x="-216" y="-212"/>
      <point x="-248" y="-168"/>
      <point x="-248" y="-134" type="curve" smooth="yes"/>
      <point x="-248" y="-107"/>
      <point x="-223" y="-101"/>
      <point x="-192" y="-101" type="curve"/>
      <point x="-188" y="-39" type="line"/>
      <point x="-196" y="-39" type="line" smooth="yes"/>
      <point x="-240" y="-39"/>
      <point x="-265" y="-45"/>
      <point x="-287" y="-63" type="curve" smooth="yes"/>
      <point x="-302" y="-76"/>
      <point x="-315" y="-96"/>
      <point x="-315" y="-126" type="curve" smooth="yes"/>
      <point x="-315" y="-202"/>
      <point x="-256" y="-271"/>
    </contour>
  </outline>
</glyph>
<glyph name="hasubscriptguru" format="2">
  <outline>
    <contour>
      <point x="-171" y="-311" type="curve" smooth="yes"/>
      <point x="-127" y="-311"/>
      <point x="-105" y="-301"/>
      <point x="-89" y="-284" type="curve" smooth="yes"/>
      <point x="-72" y="-266"/>
      <point x="-64" y="-240"/>
      <point x="-64" y="-196" type="curve" smooth="yes"/>
      <point x="-64" y="0" type="line"/>
      <point x="-139" y="0" type="line"/>
      <point x="-139" y="-206" type="line" smooth="yes"/>
      <point x="-139" y="-240"/>
      <point x="-145" y="-252"/>
      <point x="-173" y="-252" type="curve" smooth="yes"/>
      <point x="-216" y="-252"/>
      <point x="-248" y="-209"/>
      <point x="-248" y="-170" type="curve" smooth="yes"/>
      <point x="-248" y="-142"/>
      <point x="-223" y="-137"/>
      <point x="-192" y="-137" type="curve"/>
      <point x="-188" y="-75" type="line"/>
      <point x="-196" y="-75" type="line" smooth="yes"/>
      <point x="-239" y="-75"/>
      <point x="-266" y="-82"/>
      <point x="-287" y="-100" type="curve" smooth="yes"/>
      <point x="-302" y="-113"/>
      <point x="-315" y="-133"/>
      <point x="-315" y="-163" type="curve" smooth="yes"/>
      <point x="-315" y="-242"/>
      <point x="-256" y="-311"/>
    </contour>
  </outline>
</glyph>
<glyph name="hasubscripthalantguru" format="2">
  <outline>
    <contour>
      <point x="-171" y="-286" type="curve" smooth="yes"/>
      <point x="-127" y="-286"/>
      <point x="-105" y="-276"/>
      <point x="-89" y="-259" type="curve" smooth="yes"/>
      <point x="-72" y="-241"/>
      <point x="-64" y="-215"/>
      <point x="-64" y="-171" type="curve" smooth="yes"/>
      <point x="-64" y="0" type="line"/>
      <point x="-139" y="0" type="line"/>
      <point x="-139" y="-181" type="line" smooth="yes"/>
      <point x="-139" y="-215"/>
      <point x="-145" y="-227"/>
      <point x="-173" y="-227" type="curve" smooth="yes"/>
      <point x="-216" y="-227"/>
      <point x="-248" y="-184"/>
      <point x="-248" y="-145" type="curve" smooth="yes"/>
      <point x="-248" y="-117"/>
      <point x="-223" y="-112"/>
      <point x="-192" y="-112" type="curve"/>
      <point x="-188" y="-50" type="line"/>
      <point x="-196" y="-50" type="line" smooth="yes"/>
      <point x="-239" y="-50"/>
      <point x="-266" y="-57"/>
      <point x="-287" y="-75" type="curve" smooth="yes"/>
      <point x="-302" y="-88"/>
      <point x="-315" y="-108"/>
      <point x="-315" y="-138" type="curve" smooth="yes"/>
      <point x="-315" y="-217"/>
      <point x="-256" y="-286"/>
    </contour>
    <contour>
      <point x="87" y="-399" type="curve"/>
      <point x="154" y="-382" type="line"/>
      <point x="115" y="-258"/>
      <point x="41" y="-217"/>
      <point x="-37" y="-217" type="curve" smooth="yes"/>
      <point x="-43" y="-217"/>
      <point x="-50" y="-217"/>
      <point x="-57" y="-218" type="curve"/>
      <point x="-52" y="-288" type="line"/>
      <point x="-46" y="-288"/>
      <point x="-42" y="-288"/>
      <point x="-39" y="-288" type="curve" smooth="yes"/>
      <point x="5" y="-288"/>
      <point x="52" y="-307"/>
    </contour>
  </outline>
</glyph>
<glyph name="hasubscriptuUIguru" format="2">
  <outline>
    <contour>
      <point x="-171" y="-188" type="curve" smooth="yes"/>
      <point x="-127" y="-188"/>
      <point x="-105" y="-180"/>
      <point x="-89" y="-163" type="curve" smooth="yes"/>
      <point x="-72" y="-145"/>
      <point x="-64" y="-119"/>
      <point x="-64" y="-75" type="curve" smooth="yes"/>
      <point x="-64" y="81" type="line"/>
      <point x="-139" y="81" type="line"/>
      <point x="-139" y="-85" type="line" smooth="yes"/>
      <point x="-139" y="-119"/>
      <point x="-145" y="-131"/>
      <point x="-173" y="-131" type="curve" smooth="yes"/>
      <point x="-216" y="-131"/>
      <point x="-248" y="-87"/>
      <point x="-248" y="-53" type="curve" smooth="yes"/>
      <point x="-248" y="-26"/>
      <point x="-223" y="-20"/>
      <point x="-192" y="-20" type="curve"/>
      <point x="-188" y="42" type="line"/>
      <point x="-196" y="42" type="line" smooth="yes"/>
      <point x="-240" y="42"/>
      <point x="-266" y="37"/>
      <point x="-287" y="18" type="curve" smooth="yes"/>
      <point x="-302" y="5"/>
      <point x="-315" y="-15"/>
      <point x="-315" y="-45" type="curve" smooth="yes"/>
      <point x="-315" y="-121"/>
      <point x="-256" y="-188"/>
    </contour>
    <contour>
      <point x="-261" y="-265" type="curve" smooth="yes"/>
      <point x="-193" y="-265"/>
      <point x="-141" y="-250"/>
      <point x="-108" y="-232" type="curve"/>
      <point x="-123" y="-167" type="line"/>
      <point x="-156" y="-185"/>
      <point x="-203" y="-197"/>
      <point x="-261" y="-197" type="curve" smooth="yes"/>
      <point x="-319" y="-197"/>
      <point x="-365" y="-184"/>
      <point x="-398" y="-166" type="curve"/>
      <point x="-413" y="-232" type="line"/>
      <point x="-379" y="-250"/>
      <point x="-329" y="-265"/>
    </contour>
  </outline>
</glyph>
<glyph name="hasubscriptuguru" format="2">
  <outline>
    <contour>
      <point x="-171" y="-286" type="curve" smooth="yes"/>
      <point x="-127" y="-286"/>
      <point x="-105" y="-276"/>
      <point x="-89" y="-259" type="curve" smooth="yes"/>
      <point x="-72" y="-241"/>
      <point x="-64" y="-215"/>
      <point x="-64" y="-171" type="curve" smooth="yes"/>
      <point x="-64" y="0" type="line"/>
      <point x="-139" y="0" type="line"/>
      <point x="-139" y="-181" type="line" smooth="yes"/>
      <point x="-139" y="-215"/>
      <point x="-145" y="-227"/>
      <point x="-173" y="-227" type="curve" smooth="yes"/>
      <point x="-216" y="-227"/>
      <point x="-248" y="-184"/>
      <point x="-248" y="-145" type="curve" smooth="yes"/>
      <point x="-248" y="-117"/>
      <point x="-223" y="-112"/>
      <point x="-192" y="-112" type="curve"/>
      <point x="-188" y="-50" type="line"/>
      <point x="-196" y="-50" type="line" smooth="yes"/>
      <point x="-239" y="-50"/>
      <point x="-266" y="-57"/>
      <point x="-287" y="-75" type="curve" smooth="yes"/>
      <point x="-302" y="-88"/>
      <point x="-315" y="-108"/>
      <point x="-315" y="-138" type="curve" smooth="yes"/>
      <point x="-315" y="-217"/>
      <point x="-256" y="-286"/>
    </contour>
    <contour>
      <point x="-231" y="-390" type="curve" smooth="yes"/>
      <point x="-163" y="-390"/>
      <point x="-111" y="-375"/>
      <point x="-78" y="-357" type="curve"/>
      <point x="-93" y="-291" type="line"/>
      <point x="-126" y="-309"/>
      <point x="-173" y="-322"/>
      <point x="-231" y="-322" type="curve" smooth="yes"/>
      <point x="-289" y="-322"/>
      <point x="-335" y="-309"/>
      <point x="-368" y="-291" type="curve"/>
      <point x="-383" y="-357" type="line"/>
      <point x="-349" y="-375"/>
      <point x="-299" y="-390"/>
    </contour>
  </outline>
</glyph>
<glyph name="hasubscriptuuUIguru" format="2">
  <outline>
    <contour>
      <point x="-171" y="-188" type="curve" smooth="yes"/>
      <point x="-127" y="-188"/>
      <point x="-105" y="-180"/>
      <point x="-89" y="-163" type="curve" smooth="yes"/>
      <point x="-72" y="-145"/>
      <point x="-64" y="-119"/>
      <point x="-64" y="-75" type="curve" smooth="yes"/>
      <point x="-64" y="81" type="line"/>
      <point x="-139" y="81" type="line"/>
      <point x="-139" y="-85" type="line" smooth="yes"/>
      <point x="-139" y="-119"/>
      <point x="-145" y="-131"/>
      <point x="-173" y="-131" type="curve" smooth="yes"/>
      <point x="-216" y="-131"/>
      <point x="-248" y="-87"/>
      <point x="-248" y="-53" type="curve" smooth="yes"/>
      <point x="-248" y="-26"/>
      <point x="-223" y="-20"/>
      <point x="-192" y="-20" type="curve"/>
      <point x="-188" y="42" type="line"/>
      <point x="-196" y="42" type="line" smooth="yes"/>
      <point x="-240" y="42"/>
      <point x="-266" y="37"/>
      <point x="-287" y="18" type="curve" smooth="yes"/>
      <point x="-302" y="5"/>
      <point x="-315" y="-15"/>
      <point x="-315" y="-45" type="curve" smooth="yes"/>
      <point x="-315" y="-121"/>
      <point x="-256" y="-188"/>
    </contour>
    <contour>
      <point x="-293" y="-157" type="curve" smooth="yes"/>
      <point x="-265" y="-157"/>
      <point x="-240" y="-154"/>
      <point x="-218" y="-150" type="curve"/>
      <point x="-250" y="-92" type="line"/>
      <point x="-264" y="-94"/>
      <point x="-278" y="-95"/>
      <point x="-293" y="-95" type="curve" smooth="yes"/>
      <point x="-349" y="-95"/>
      <point x="-393" y="-82"/>
      <point x="-426" y="-64" type="curve"/>
      <point x="-441" y="-124" type="line"/>
      <point x="-407" y="-142"/>
      <point x="-359" y="-157"/>
    </contour>
    <contour>
      <point x="-293" y="-271" type="curve" smooth="yes"/>
      <point x="-227" y="-271"/>
      <point x="-177" y="-256"/>
      <point x="-144" y="-238" type="curve"/>
      <point x="-159" y="-178" type="line"/>
      <point x="-192" y="-196"/>
      <point x="-237" y="-209"/>
      <point x="-293" y="-209" type="curve" smooth="yes"/>
      <point x="-349" y="-209"/>
      <point x="-393" y="-196"/>
      <point x="-426" y="-178" type="curve"/>
      <point x="-441" y="-238" type="line"/>
      <point x="-407" y="-256"/>
      <point x="-359" y="-271"/>
    </contour>
  </outline>
</glyph>
<glyph name="hasubscriptuuguru" format="2">
  <outline>
    <contour>
      <point x="-171" y="-262" type="curve" smooth="yes"/>
      <point x="-127" y="-262"/>
      <point x="-105" y="-252"/>
      <point x="-89" y="-235" type="curve" smooth="yes"/>
      <point x="-72" y="-217"/>
      <point x="-64" y="-191"/>
      <point x="-64" y="-147" type="curve" smooth="yes"/>
      <point x="-64" y="0" type="line"/>
      <point x="-139" y="0" type="line"/>
      <point x="-139" y="-157" type="line" smooth="yes"/>
      <point x="-139" y="-191"/>
      <point x="-145" y="-203"/>
      <point x="-173" y="-203" type="curve" smooth="yes"/>
      <point x="-216" y="-203"/>
      <point x="-248" y="-160"/>
      <point x="-248" y="-121" type="curve" smooth="yes"/>
      <point x="-248" y="-93"/>
      <point x="-223" y="-88"/>
      <point x="-192" y="-88" type="curve"/>
      <point x="-188" y="-26" type="line"/>
      <point x="-196" y="-26" type="line" smooth="yes"/>
      <point x="-239" y="-26"/>
      <point x="-266" y="-33"/>
      <point x="-287" y="-51" type="curve" smooth="yes"/>
      <point x="-302" y="-64"/>
      <point x="-315" y="-84"/>
      <point x="-315" y="-114" type="curve" smooth="yes"/>
      <point x="-315" y="-193"/>
      <point x="-244" y="-262"/>
    </contour>
    <contour>
      <point x="-269" y="-275" type="curve" smooth="yes"/>
      <point x="-201" y="-275"/>
      <point x="-149" y="-260"/>
      <point x="-116" y="-242" type="curve"/>
      <point x="-203" y="-206" type="line"/>
      <point x="-223" y="-210"/>
      <point x="-245" y="-212"/>
      <point x="-269" y="-212" type="curve" smooth="yes"/>
      <point x="-327" y="-212"/>
      <point x="-373" y="-199"/>
      <point x="-406" y="-181" type="curve"/>
      <point x="-421" y="-242" type="line"/>
      <point x="-387" y="-260"/>
      <point x="-337" y="-275"/>
    </contour>
    <contour>
      <point x="-269" y="-392" type="curve" smooth="yes"/>
      <point x="-201" y="-392"/>
      <point x="-149" y="-377"/>
      <point x="-116" y="-359" type="curve"/>
      <point x="-131" y="-298" type="line"/>
      <point x="-164" y="-316"/>
      <point x="-211" y="-329"/>
      <point x="-269" y="-329" type="curve" smooth="yes"/>
      <point x="-327" y="-329"/>
      <point x="-373" y="-316"/>
      <point x="-406" y="-298" type="curve"/>
      <point x="-421" y="-359" type="line"/>
      <point x="-387" y="-377"/>
      <point x="-337" y="-392"/>
    </contour>
  </outline>
</glyph>
<glyph name="iimatraaddakguru" format="2">
  <advance width="203"/>
  <outline>
    <contour>
      <point x="64" y="0" type="line"/>
      <point x="139" y="0" type="line"/>
      <point x="139" y="554" type="line"/>
      <point x="210" y="554" type="line"/>
      <point x="210" y="622" type="line"/>
      <point x="139" y="622" type="line"/>
      <point x="139" y="683" type="line" smooth="yes"/>
      <point x="139" y="797"/>
      <point x="104" y="896"/>
      <point x="-5" y="896" type="curve" smooth="yes"/>
      <point x="-86" y="896"/>
      <point x="-147" y="843"/>
      <point x="-147" y="729" type="curve" smooth="yes"/>
      <point x="-147" y="701"/>
      <point x="-144" y="677"/>
      <point x="-141" y="656" type="curve"/>
      <point x="-68" y="663" type="line"/>
      <point x="-70" y="678"/>
      <point x="-72" y="697"/>
      <point x="-72" y="729" type="curve" smooth="yes"/>
      <point x="-72" y="800"/>
      <point x="-49" y="829"/>
      <point x="-6" y="829" type="curve" smooth="yes"/>
      <point x="58" y="829"/>
      <point x="64" y="756"/>
      <point x="64" y="665" type="curve" smooth="yes"/>
      <point x="64" y="622" type="line"/>
      <point x="-7" y="622" type="line"/>
      <point x="-7" y="554" type="line"/>
      <point x="64" y="554" type="line"/>
    </contour>
    <contour>
      <point x="205" y="714" type="curve" smooth="yes"/>
      <point x="280" y="714"/>
      <point x="317" y="771"/>
      <point x="319" y="891" type="curve"/>
      <point x="251" y="896" type="line"/>
      <point x="249" y="806"/>
      <point x="234" y="778"/>
      <point x="205" y="778" type="curve" smooth="yes"/>
      <point x="174" y="778"/>
      <point x="159" y="806"/>
      <point x="157" y="896" type="curve"/>
      <point x="89" y="891" type="line"/>
      <point x="89" y="854"/>
      <point x="97" y="824"/>
      <point x="106" y="797" type="curve" smooth="yes"/>
      <point x="123" y="747"/>
      <point x="154" y="714"/>
    </contour>
  </outline>
</glyph>
<glyph name="kaUIguru" format="2">
  <advance width="465"/>
  <outline>
    <contour>
      <point x="351" y="81" type="curve"/>
      <point x="426" y="81" type="line"/>
      <point x="416" y="166"/>
      <point x="381" y="264"/>
      <point x="354" y="314" type="curve"/>
      <point x="337" y="333" type="line"/>
      <point x="297" y="405"/>
      <point x="249" y="441"/>
      <point x="178" y="441" type="curve" smooth="yes"/>
      <point x="92" y="441"/>
      <point x="26" y="378"/>
      <point x="26" y="270" type="curve" smooth="yes"/>
      <point x="26" y="150"/>
      <point x="94" y="95"/>
      <point x="181" y="95" type="curve" smooth="yes"/>
      <point x="256" y="95"/>
      <point x="312" y="139"/>
      <point x="344" y="214" type="curve"/>
      <point x="358" y="235" type="line"/>
      <point x="390" y="302"/>
      <point x="402" y="382"/>
      <point x="402" y="458" type="curve" smooth="yes"/>
      <point x="402" y="487"/>
      <point x="397" y="532"/>
      <point x="393" y="554" type="curve"/>
      <point x="472" y="554" type="line"/>
      <point x="472" y="622" type="line"/>
      <point x="-7" y="622" type="line"/>
      <point x="-7" y="554" type="line"/>
      <point x="318" y="554" type="line"/>
      <point x="324" y="523"/>
      <point x="327" y="489"/>
      <point x="327" y="452" type="curve" smooth="yes"/>
      <point x="327" y="407"/>
      <point x="324" y="363"/>
      <point x="316" y="324" type="curve"/>
      <point x="310" y="296" type="line"/>
      <point x="290" y="217"/>
      <point x="250" y="164"/>
      <point x="183" y="164" type="curve" smooth="yes"/>
      <point x="139" y="164"/>
      <point x="101" y="188"/>
      <point x="101" y="269" type="curve" smooth="yes"/>
      <point x="101" y="341"/>
      <point x="141" y="372"/>
      <point x="186" y="372" type="curve" smooth="yes"/>
      <point x="246" y="372"/>
      <point x="286" y="319"/>
      <point x="311" y="246" type="curve"/>
      <point x="318" y="226" type="line"/>
      <point x="330" y="184"/>
      <point x="343" y="140"/>
    </contour>
  </outline>
</glyph>
<glyph name="karaguru" format="2">
  <advance width="465"/>
  <outline>
    <contour>
      <point x="308" y="-246" type="curve"/>
      <point x="363" y="-208" type="line"/>
      <point x="318" y="-146"/>
      <point x="269" y="-116"/>
      <point x="231" y="-97" type="curve"/>
      <point x="236" y="-78"/>
      <point x="239" y="-59"/>
      <point x="239" y="-21" type="curve" smooth="yes"/>
      <point x="239" y="140" type="line"/>
      <point x="166" y="140" type="line"/>
      <point x="166" y="-57" type="line" smooth="yes"/>
      <point x="166" y="-63"/>
      <point x="165" y="-72"/>
      <point x="164" y="-77" type="curve"/>
      <point x="153" y="-75"/>
      <point x="143" y="-73"/>
      <point x="128" y="-73" type="curve" smooth="yes"/>
      <point x="92" y="-73"/>
      <point x="57" y="-89"/>
      <point x="57" y="-131" type="curve" smooth="yes"/>
      <point x="57" y="-175"/>
      <point x="93" y="-191"/>
      <point x="129" y="-191" type="curve" smooth="yes"/>
      <point x="163" y="-191"/>
      <point x="186" y="-177"/>
      <point x="205" y="-153" type="curve"/>
      <point x="241" y="-175"/>
      <point x="271" y="-200"/>
    </contour>
    <component base="kaguru"/>
  </outline>
</glyph>
<glyph name="laUIguru" format="2">
  <advance width="506"/>
  <outline>
    <contour>
      <point x="252" y="265" type="curve"/>
      <point x="354" y="336"/>
      <point x="405" y="432"/>
      <point x="420" y="554" type="curve"/>
      <point x="513" y="554" type="line"/>
      <point x="513" y="622" type="line"/>
      <point x="-7" y="622" type="line"/>
      <point x="-7" y="554" type="line"/>
      <point x="86" y="554" type="line"/>
      <point x="101" y="432"/>
      <point x="152" y="336"/>
    </contour>
    <contour>
      <point x="344" y="554" type="line"/>
      <point x="335" y="449"/>
      <point x="292" y="385"/>
      <point x="242" y="344" type="curve"/>
      <point x="267" y="343" type="line"/>
      <point x="213" y="386"/>
      <point x="171" y="449"/>
      <point x="162" y="554" type="curve"/>
    </contour>
    <contour>
      <point x="31" y="241" type="curve" smooth="yes"/>
      <point x="31" y="157"/>
      <point x="73" y="89"/>
      <point x="190" y="68" type="curve"/>
      <point x="191" y="68" type="line"/>
      <point x="204" y="137" type="line"/>
      <point x="202" y="137" type="line"/>
      <point x="143" y="147"/>
      <point x="107" y="182"/>
      <point x="107" y="244" type="curve" smooth="yes"/>
      <point x="107" y="306"/>
      <point x="139" y="349"/>
      <point x="198" y="388" type="curve"/>
      <point x="161" y="441" type="line"/>
      <point x="83" y="394"/>
      <point x="31" y="328"/>
    </contour>
    <contour>
      <point x="475" y="241" type="curve" smooth="yes"/>
      <point x="475" y="328"/>
      <point x="423" y="394"/>
      <point x="345" y="441" type="curve"/>
      <point x="308" y="388" type="line"/>
      <point x="367" y="349"/>
      <point x="399" y="306"/>
      <point x="399" y="244" type="curve" smooth="yes"/>
      <point x="399" y="182"/>
      <point x="363" y="147"/>
      <point x="304" y="137" type="curve"/>
      <point x="302" y="137" type="line"/>
      <point x="315" y="68" type="line"/>
      <point x="316" y="68" type="line"/>
      <point x="433" y="89"/>
      <point x="475" y="157"/>
    </contour>
  </outline>
</glyph>
<glyph name="oobindiguru" format="2">
  <advance width="501"/>
  <outline>
    <contour>
      <point x="270" y="0" type="curve" smooth="yes"/>
      <point x="375" y="0"/>
      <point x="427" y="66"/>
      <point x="427" y="163" type="curve" smooth="yes"/>
      <point x="427" y="246"/>
      <point x="378" y="319"/>
      <point x="266" y="331" type="curve"/>
      <point x="256" y="305" type="line"/>
      <point x="397" y="324"/>
      <point x="479" y="398"/>
      <point x="479" y="583" type="curve"/>
      <point x="479" y="603" type="line"/>
      <point x="404" y="589" type="line"/>
      <point x="404" y="563" type="line"/>
      <point x="404" y="464"/>
      <point x="369" y="417"/>
      <point x="320" y="388" type="curve" smooth="yes"/>
      <point x="285" y="367"/>
      <point x="242" y="361"/>
      <point x="184" y="361" type="curve" smooth="yes"/>
      <point x="93" y="361" type="line"/>
      <point x="109" y="293" type="line"/>
      <point x="157" y="293" type="line" smooth="yes"/>
      <point x="227" y="293"/>
      <point x="254" y="287"/>
      <point x="284" y="273" type="curve" smooth="yes"/>
      <point x="326" y="253"/>
      <point x="350" y="217"/>
      <point x="350" y="161" type="curve" smooth="yes"/>
      <point x="350" y="103"/>
      <point x="322" y="69"/>
      <point x="264" y="69" type="curve" smooth="yes"/>
      <point x="192" y="69"/>
      <point x="126" y="120"/>
      <point x="126" y="405" type="curve" smooth="yes"/>
      <point x="126" y="593"/>
      <point x="146" y="692"/>
      <point x="209" y="738" type="curve" smooth="yes"/>
      <point x="243" y="763"/>
      <point x="283" y="775"/>
      <point x="369" y="775" type="curve" smooth="yes"/>
      <point x="382" y="775" type="line"/>
      <point x="389" y="843" type="line"/>
      <point x="367" y="843" type="line" smooth="yes"/>
      <point x="258" y="843"/>
      <point x="205" y="824"/>
      <point x="162" y="792" type="curve" smooth="yes"/>
      <point x="69" y="723"/>
      <point x="51" y="591"/>
      <point x="51" y="405" type="curve" smooth="yes"/>
      <point x="51" y="102"/>
      <point x="135" y="0"/>
    </contour>
    <contour>
      <point x="-7" y="554" type="line"/>
      <point x="522" y="554" type="line"/>
      <point x="522" y="622" type="line"/>
      <point x="-7" y="622" type="line"/>
    </contour>
    <contour>
      <point x="451" y="675" type="curve" smooth="yes"/>
      <point x="483" y="675"/>
      <point x="500" y="697"/>
      <point x="500" y="730" type="curve" smooth="yes"/>
      <point x="500" y="762"/>
      <point x="483" y="785"/>
      <point x="451" y="785" type="curve" smooth="yes"/>
      <point x="420" y="785"/>
      <point x="402" y="762"/>
      <point x="402" y="730" type="curve" smooth="yes"/>
      <point x="402" y="697"/>
      <point x="420" y="675"/>
    </contour>
  </outline>
</glyph>
<glyph name="oomatra1guru" format="2">
  <outline>
    <contour>
      <point x="-136" y="615" type="curve"/>
      <point x="-67" y="615" type="line"/>
      <point x="-73" y="761"/>
      <point x="-113" y="799"/>
      <point x="-163" y="799" type="curve" smooth="yes"/>
      <point x="-172" y="799"/>
      <point x="-184" y="798"/>
      <point x="-195" y="798" type="curve" smooth="yes"/>
      <point x="-231" y="798"/>
      <point x="-238" y="824"/>
      <point x="-255" y="895" type="curve"/>
      <point x="-322" y="880" type="line"/>
      <point x="-297" y="765"/>
      <point x="-262" y="731"/>
      <point x="-216" y="731" type="curve" smooth="yes"/>
      <point x="-205" y="731"/>
      <point x="-196" y="732"/>
      <point x="-186" y="732" type="curve" smooth="yes"/>
      <point x="-151" y="732"/>
      <point x="-144" y="703"/>
    </contour>
  </outline>
</glyph>
<glyph name="oomatraaddakaltguru" format="2">
  <advance width="63"/>
  <outline>
    <contour>
      <point x="70" y="554" type="line"/>
      <point x="70" y="622" type="line"/>
      <point x="-7" y="622" type="line"/>
      <point x="-7" y="554" type="line"/>
    </contour>
    <component base="oomatraaddakguru"/>
  </outline>
</glyph>
<glyph name="oomatraaddakguru" format="2">
  <outline>
    <contour>
      <point x="-136" y="615" type="curve"/>
      <point x="-67" y="615" type="line"/>
      <point x="-72" y="743"/>
      <point x="-120" y="799"/>
      <point x="-183" y="799" type="curve" smooth="yes"/>
      <point x="-194" y="799"/>
      <point x="-213" y="797"/>
      <point x="-226" y="797" type="curve" smooth="yes"/>
      <point x="-263" y="797"/>
      <point x="-278" y="827"/>
      <point x="-294" y="895" type="curve"/>
      <point x="-361" y="880" type="line"/>
      <point x="-336" y="763"/>
      <point x="-295" y="730"/>
      <point x="-236" y="730" type="curve" smooth="yes"/>
      <point x="-223" y="730"/>
      <point x="-206" y="732"/>
      <point x="-197" y="732" type="curve" smooth="yes"/>
      <point x="-158" y="732"/>
      <point x="-148" y="695"/>
    </contour>
    <contour>
      <point x="1" y="686" type="curve" smooth="yes"/>
      <point x="76" y="686"/>
      <point x="113" y="743"/>
      <point x="115" y="863" type="curve"/>
      <point x="47" y="868" type="line"/>
      <point x="45" y="778"/>
      <point x="30" y="750"/>
      <point x="1" y="750" type="curve" smooth="yes"/>
      <point x="-30" y="750"/>
      <point x="-45" y="778"/>
      <point x="-47" y="868" type="curve"/>
      <point x="-115" y="863" type="line"/>
      <point x="-115" y="756"/>
      <point x="-77" y="686"/>
    </contour>
  </outline>
</glyph>
<glyph name="oomatrabindi1guru" format="2">
  <outline>
    <contour>
      <point x="-136" y="615" type="curve"/>
      <point x="-67" y="615" type="line"/>
      <point x="-73" y="761"/>
      <point x="-113" y="799"/>
      <point x="-163" y="799" type="curve" smooth="yes"/>
      <point x="-172" y="799"/>
      <point x="-184" y="798"/>
      <point x="-195" y="798" type="curve" smooth="yes"/>
      <point x="-231" y="798"/>
      <point x="-238" y="824"/>
      <point x="-255" y="895" type="curve"/>
      <point x="-322" y="880" type="line"/>
      <point x="-297" y="765"/>
      <point x="-262" y="731"/>
      <point x="-216" y="731" type="curve" smooth="yes"/>
      <point x="-205" y="731"/>
      <point x="-196" y="732"/>
      <point x="-186" y="732" type="curve" smooth="yes"/>
      <point x="-151" y="732"/>
      <point x="-144" y="703"/>
    </contour>
    <contour>
      <point x="-64" y="786" type="curve" smooth="yes"/>
      <point x="-32" y="786"/>
      <point x="-15" y="808"/>
      <point x="-15" y="841" type="curve" smooth="yes"/>
      <point x="-15" y="873"/>
      <point x="-32" y="896"/>
      <point x="-64" y="896" type="curve" smooth="yes"/>
      <point x="-95" y="896"/>
      <point x="-113" y="873"/>
      <point x="-113" y="841" type="curve" smooth="yes"/>
      <point x="-113" y="808"/>
      <point x="-95" y="786"/>
    </contour>
  </outline>
</glyph>
<glyph name="phuunuktaUIguru" format="2">
  <advance width="439"/>
  <outline>
    <contour>
      <point x="259" y="-157" type="curve" smooth="yes"/>
      <point x="317" y="-157"/>
      <point x="367" y="-142"/>
      <point x="400" y="-124" type="curve"/>
      <point x="385" y="-64" type="line"/>
      <point x="352" y="-82"/>
      <point x="307" y="-95"/>
      <point x="259" y="-95" type="curve" smooth="yes"/>
      <point x="211" y="-95"/>
      <point x="167" y="-82"/>
      <point x="134" y="-64" type="curve"/>
      <point x="119" y="-124" type="line"/>
      <point x="153" y="-142"/>
      <point x="201" y="-157"/>
    </contour>
    <contour>
      <point x="259" y="-271" type="curve" smooth="yes"/>
      <point x="317" y="-271"/>
      <point x="367" y="-256"/>
      <point x="400" y="-238" type="curve"/>
      <point x="385" y="-178" type="line"/>
      <point x="352" y="-196"/>
      <point x="307" y="-209"/>
      <point x="259" y="-209" type="curve" smooth="yes"/>
      <point x="211" y="-209"/>
      <point x="167" y="-196"/>
      <point x="134" y="-178" type="curve"/>
      <point x="119" y="-238" type="line"/>
      <point x="153" y="-256"/>
      <point x="201" y="-271"/>
    </contour>
    <component base="phaguru"/>
    <component base="nuktaguru" xOffset="363" yOffset="109"/>
  </outline>
</glyph>
<glyph name="raUIguru" format="2">
  <advance width="433"/>
  <outline>
    <contour>
      <point x="240" y="73" type="curve" smooth="yes"/>
      <point x="330" y="73"/>
      <point x="369" y="132"/>
      <point x="369" y="219" type="curve" smooth="yes"/>
      <point x="369" y="554" type="line"/>
      <point x="440" y="554" type="line"/>
      <point x="440" y="622" type="line"/>
      <point x="-7" y="622" type="line"/>
      <point x="-7" y="554" type="line"/>
      <point x="294" y="554" type="line"/>
      <point x="294" y="435" type="line"/>
      <point x="205" y="435" type="line" smooth="yes"/>
      <point x="137" y="435"/>
      <point x="101" y="426"/>
      <point x="75" y="408" type="curve" smooth="yes"/>
      <point x="47" y="388"/>
      <point x="29" y="360"/>
      <point x="29" y="312" type="curve" smooth="yes"/>
      <point x="29" y="191"/>
      <point x="115" y="73"/>
    </contour>
    <contour>
      <point x="239" y="142" type="curve" smooth="yes"/>
      <point x="165" y="142"/>
      <point x="104" y="218"/>
      <point x="104" y="304" type="curve" smooth="yes"/>
      <point x="104" y="328"/>
      <point x="110" y="340"/>
      <point x="124" y="351" type="curve" smooth="yes"/>
      <point x="140" y="364"/>
      <point x="163" y="367"/>
      <point x="212" y="367" type="curve" smooth="yes"/>
      <point x="294" y="367" type="line"/>
      <point x="294" y="232" type="line" smooth="yes"/>
      <point x="294" y="187"/>
      <point x="290" y="169"/>
      <point x="279" y="157" type="curve" smooth="yes"/>
      <point x="270" y="147"/>
      <point x="257" y="142"/>
    </contour>
  </outline>
</glyph>
<glyph name="rasubscript1guru" format="2">
  <outline>
    <contour>
      <point x="3" y="-246" type="curve"/>
      <point x="58" y="-208" type="line"/>
      <point x="13" y="-146"/>
      <point x="-36" y="-116"/>
      <point x="-74" y="-97" type="curve"/>
      <point x="-68" y="-78"/>
      <point x="-66" y="-59"/>
      <point x="-66" y="-21" type="curve" smooth="yes"/>
      <point x="-66" y="63" type="line"/>
      <point x="-139" y="43" type="line"/>
      <point x="-139" y="-57" type="line" smooth="yes"/>
      <point x="-139" y="-63"/>
      <point x="-140" y="-72"/>
      <point x="-141" y="-77" type="curve"/>
      <point x="-154" y="-74"/>
      <point x="-164" y="-73"/>
      <point x="-177" y="-73" type="curve" smooth="yes"/>
      <point x="-213" y="-73"/>
      <point x="-248" y="-89"/>
      <point x="-248" y="-131" type="curve" smooth="yes"/>
      <point x="-248" y="-175"/>
      <point x="-212" y="-191"/>
      <point x="-176" y="-191" type="curve" smooth="yes"/>
      <point x="-142" y="-191"/>
      <point x="-119" y="-177"/>
      <point x="-100" y="-153" type="curve"/>
      <point x="-64" y="-175"/>
      <point x="-34" y="-200"/>
    </contour>
  </outline>
</glyph>
<glyph name="rasubscripthalantguru" format="2">
  <outline>
    <contour>
      <point x="3" y="-216" type="curve"/>
      <point x="58" y="-178" type="line"/>
      <point x="13" y="-116"/>
      <point x="-36" y="-86"/>
      <point x="-74" y="-67" type="curve"/>
      <point x="-67" y="-47"/>
      <point x="-64" y="-22"/>
      <point x="-64" y="-3" type="curve" smooth="yes"/>
      <point x="-64" y="0" type="line"/>
      <point x="-139" y="0" type="line"/>
      <point x="-139" y="-27" type="line" smooth="yes"/>
      <point x="-139" y="-33"/>
      <point x="-140" y="-42"/>
      <point x="-141" y="-47" type="curve"/>
      <point x="-154" y="-44"/>
      <point x="-164" y="-43"/>
      <point x="-177" y="-43" type="curve" smooth="yes"/>
      <point x="-213" y="-43"/>
      <point x="-248" y="-59"/>
      <point x="-248" y="-101" type="curve" smooth="yes"/>
      <point x="-248" y="-145"/>
      <point x="-212" y="-161"/>
      <point x="-176" y="-161" type="curve" smooth="yes"/>
      <point x="-142" y="-161"/>
      <point x="-119" y="-147"/>
      <point x="-100" y="-123" type="curve"/>
      <point x="-64" y="-145"/>
      <point x="-34" y="-170"/>
    </contour>
    <contour>
      <point x="10" y="-393" type="curve"/>
      <point x="77" y="-372" type="line"/>
      <point x="24" y="-235"/>
      <point x="-53" y="-206"/>
      <point x="-144" y="-206" type="curve" smooth="yes"/>
      <point x="-150" y="-206"/>
      <point x="-157" y="-206"/>
      <point x="-164" y="-207" type="curve"/>
      <point x="-159" y="-278" type="line"/>
      <point x="-153" y="-278"/>
      <point x="-149" y="-278"/>
      <point x="-146" y="-278" type="curve" smooth="yes"/>
      <point x="-97" y="-278"/>
      <point x="-35" y="-286"/>
    </contour>
  </outline>
</glyph>
<glyph name="rasubscriptuUIguru" format="2">
  <outline>
    <contour>
      <point x="3" y="-212" type="curve"/>
      <point x="58" y="-174" type="line"/>
      <point x="13" y="-112"/>
      <point x="-36" y="-82"/>
      <point x="-74" y="-63" type="curve"/>
      <point x="-67" y="-44"/>
      <point x="-64" y="-25"/>
      <point x="-64" y="0" type="curve"/>
      <point x="-140" y="0" type="line"/>
      <point x="-139" y="-23" type="line" smooth="yes"/>
      <point x="-139" y="-29"/>
      <point x="-140" y="-38"/>
      <point x="-141" y="-43" type="curve"/>
      <point x="-154" y="-40"/>
      <point x="-164" y="-39"/>
      <point x="-177" y="-39" type="curve" smooth="yes"/>
      <point x="-213" y="-39"/>
      <point x="-248" y="-55"/>
      <point x="-248" y="-97" type="curve" smooth="yes"/>
      <point x="-248" y="-141"/>
      <point x="-212" y="-157"/>
      <point x="-176" y="-157" type="curve" smooth="yes"/>
      <point x="-142" y="-157"/>
      <point x="-119" y="-143"/>
      <point x="-100" y="-119" type="curve"/>
      <point x="-64" y="-141"/>
      <point x="-34" y="-166"/>
    </contour>
    <contour>
      <point x="-231" y="-265" type="curve" smooth="yes"/>
      <point x="-163" y="-265"/>
      <point x="-111" y="-250"/>
      <point x="-78" y="-232" type="curve"/>
      <point x="-93" y="-166" type="line"/>
      <point x="-126" y="-184"/>
      <point x="-173" y="-197"/>
      <point x="-231" y="-197" type="curve" smooth="yes"/>
      <point x="-289" y="-197"/>
      <point x="-335" y="-184"/>
      <point x="-368" y="-166" type="curve"/>
      <point x="-383" y="-232" type="line"/>
      <point x="-349" y="-250"/>
      <point x="-299" y="-265"/>
    </contour>
  </outline>
</glyph>
<glyph name="rasubscriptuguru" format="2">
  <outline>
    <contour>
      <point x="3" y="-246" type="curve"/>
      <point x="58" y="-208" type="line"/>
      <point x="13" y="-146"/>
      <point x="-36" y="-116"/>
      <point x="-74" y="-97" type="curve"/>
      <point x="-67" y="-78"/>
      <point x="-64" y="-59"/>
      <point x="-64" y="-21" type="curve" smooth="yes"/>
      <point x="-64" y="0" type="line"/>
      <point x="-139" y="0" type="line"/>
      <point x="-139" y="-57" type="line" smooth="yes"/>
      <point x="-139" y="-63"/>
      <point x="-140" y="-72"/>
      <point x="-141" y="-77" type="curve"/>
      <point x="-154" y="-74"/>
      <point x="-164" y="-73"/>
      <point x="-177" y="-73" type="curve" smooth="yes"/>
      <point x="-213" y="-73"/>
      <point x="-248" y="-89"/>
      <point x="-248" y="-131" type="curve" smooth="yes"/>
      <point x="-248" y="-175"/>
      <point x="-212" y="-191"/>
      <point x="-176" y="-191" type="curve" smooth="yes"/>
      <point x="-142" y="-191"/>
      <point x="-119" y="-177"/>
      <point x="-100" y="-153" type="curve"/>
      <point x="-64" y="-175"/>
      <point x="-34" y="-200"/>
    </contour>
    <contour>
      <point x="-231" y="-324" type="curve" smooth="yes"/>
      <point x="-163" y="-324"/>
      <point x="-111" y="-309"/>
      <point x="-78" y="-291" type="curve"/>
      <point x="-93" y="-225" type="line"/>
      <point x="-126" y="-243"/>
      <point x="-173" y="-256"/>
      <point x="-231" y="-256" type="curve" smooth="yes"/>
      <point x="-289" y="-256"/>
      <point x="-335" y="-243"/>
      <point x="-368" y="-225" type="curve"/>
      <point x="-383" y="-291" type="line"/>
      <point x="-349" y="-309"/>
      <point x="-299" y="-324"/>
    </contour>
  </outline>
</glyph>
